<?xml version="1.0" encoding="utf-8"?>
<!-- Generator: Adobe Illustrator 18.0.0, SVG Export Plug-In . SVG Version: 6.00 Build 0)  -->
<!DOCTYPE svg PUBLIC "-//W3C//DTD SVG 1.1//EN" "http://www.w3.org/Graphics/SVG/1.1/DTD/svg11.dtd">
<svg version="1.1" id="Layer_1" xmlns="http://www.w3.org/2000/svg" xmlns:xlink="http://www.w3.org/1999/xlink" x="0px" y="0px"
	 viewBox="0 0 631 411" enable-background="new 0 0 631 411" xml:space="preserve">
<g>
	<path fill="#2580AA" d="M414,395c9.3-133.7,29.9-266.4,54.8-372.4C437.4,139.3,412.3,240,403.2,396L414,395z"/>
	<g>
		<defs>
			<polygon id="SVGID_3_" points="493.4,-27.1 451.3,-23.3 451.3,398.8 493.4,394.9 			"/>
		</defs>
		<clipPath id="SVGID_1_">
			<use xlink:href="#SVGID_3_"  overflow="visible"/>
		</clipPath>
		<g clip-path="url(#SVGID_1_)">
			<path fill="#2580AA" d="M470.1,551.6c9.6-438.2,4.9-527.5-1.5-528.6c-0.1,0-0.2,0-0.3,0.1c6.8,4.8,10.8,146-1.7,652.4"/>
		</g>
	</g>
</g>
<rect x="8.4" y="241" fill="#2580AA" width="608.5" height="13.2"/>
<rect x="44.2" y="247.6" fill="#2580AA" width="43.2" height="152.2"/>
<rect x="535.4" y="247.6" fill="#2580AA" width="43.2" height="152.2"/>
<path fill="#2580AA" d="M163.9,200.2c-0.9-10.6-3.2-15.7-8.4-22.7c-3.5-4.7-4.1,5.1-4.2,12.4c-0.1,3.6-1.6,10.2-1.6,10.2
	s1.9-18.6-3.5-26.3c-1.1-1.6-17.3,13-20.4,21.9c-6.5,18.2-11.3,40.8-11.3,45.9c0,10.4,31.7,6.3,34.6,5c0.7,0.1,1.4,0.2,2.2,0.2
	c8.6,0,18.4,2.7,18.4-5.1C169.7,237.7,164.6,208.9,163.9,200.2z M133.9,211.6c-2.3,0-4.1-1.8-4.1-4.1c0-2.3,1.8-4.1,4.1-4.1
	c2.3,0,4.1,1.8,4.1,4.1C138,209.8,136.2,211.6,133.9,211.6z"/>
<path fill="#2580AA" d="M334.6,226.8c-1.6-3.9-35.1-22.3-62.3-23.9c-24.4-1.4-44.9,0-47.5,6.8c-1.2-0.2-2.8,37.1,0.8,34.2
	c5.2,9.7,81.5-9.2,97.9-5.5c1.7,3.5,11,6.8,15.6,6.8c3.8,0,21.9-0.6,23.9-4.7C364.2,238.2,342.6,224.6,334.6,226.8z"/>
<path fill="#2580AA" d="M589.7,193.6c-6.6,0-11.5,8.3-12.2,14.6c-6.2,5.2-16.4,0.3-16.4,0.3s0-12.3-11.1-15.1
	c-7.1-1.8-16.1,10.2-16.5,10.2c-0.7,0-9-13.2-22.8-13.2c-8.3,0-19.7,8.2-21.3,16.1c0,0,5,6.9,12.8,8.3c3.4,0.6,6.8-2.2,6.4-1.4
	c-4.5,7.7-16.2,0.4-15.6,1.9c1.2,3,6.2,10.2,11.6,11.6c3.8,1,7.1,3,9.9,5.4c-1.5,1.4-2.4,3.3-2.4,5.5c0,4.2,3.4,7.6,7.6,7.6
	c2,0,3.9-0.8,5.2-2.1c1,1,1.7,1.6,2.4,1.6c3.6,0,29.1,3.8,33.5,3.8c5.7,0,23.6-8,23.6-26c0-0.3,21.1,3.6,23.2-6.1
	C609.1,209.4,596.7,193.6,589.7,193.6z M509.9,208.5c-1.7,0-3.1-1.4-3.1-3.1c0-1.7,1.4-3.1,3.1-3.1s3.1,1.4,3.1,3.1
	C513.1,207.1,511.7,208.5,509.9,208.5z"/>
</svg>
