<svg xmlns="http://www.w3.org/2000/svg" viewBox="0 0 960.343 518.4">
  <path fill="#27a9e0" d="M329.96 482.582c23.56 0 44.772-10.022 59.636-26.022 14.864 16 36.076 26.022 59.637 26.022 22.938 0 43.645-9.502 58.44-24.767 14.797 15.265 35.504 24.767 58.442 24.767 14.832 0 28.724-3.986 40.7-10.917 11.976 6.93 25.868 10.917 40.7 10.917 22.138 0 42.2-8.85 56.875-23.19 14.674 14.34 34.737 23.19 56.875 23.19 6.68 0 13.17-.81 19.382-2.33 38.82-46.25 64.044-101.337 70.663-161.043-129.39 29.293-265.318 44.927-405.54 44.927-127.046 0-250.567-12.836-368.895-37.032 7.417 53.278 29.683 102.675 63.153 145.132 10.267-5.748 19.18-13.627 26.09-23.08 14.806 20.257 38.732 33.426 65.745 33.426 18.42 0 35.407-6.126 49.05-16.443 13.638 10.316 30.624 16.442 49.046 16.442z"/>
  <path fill="#27a9e0" d="M326.7 206.705c-34.662-10.994-71.808 8.26-82.802 42.924-10.995 34.663 8.26 71.81 42.925 82.806 34.663 10.994 71.81-8.264 82.806-42.928 10.992-34.664-8.266-71.81-42.93-82.803zm-76.458 44.937c2.6-8.195 6.824-15.416 12.19-21.45l3.532 82.42c-15.95-15.14-22.817-38.6-15.722-60.97zm38.593 74.45c-5.548-1.76-10.645-4.27-15.237-7.367l32.59-43.898 2.275 53.107c.026.316.085.617.158.907-6.53.206-13.204-.66-19.785-2.747zm34.122-80.553c3.46.9 6.64 1.513 6.64 1.513 3.16.606 4.22-3.984 1.116-4.772 0 0-9.383-2.184-15.293-4.06-5.554-1.76-14.658-5.44-14.658-5.44-2.99-1.144-4.825 3.4-1.836 4.545 0 0 2.77 1.273 5.758 2.418l1.153 26.92-24.136 33.172-1.162-67.75c3.462.9 6.64 1.513 6.64 1.513 3.157.605 4.217-3.985 1.115-4.773 0 0-9.38-2.185-15.292-4.06-1.06-.335-2.3-.758-3.615-1.22 14.973-12.138 35.558-16.76 55.304-10.498 14.713 4.667 26.327 14.542 33.46 26.945-.24-.092-.467-.198-.718-.278-5.552-1.76-11.025 1.826-12.673 7.02-1.478 4.66-.04 9.452 1.346 15.02.956 4.445 1.932 10.077-.284 17.065-1.534 4.836-5.175 9.86-10.096 16.907l-11.613 17.047-1.156-67.235zm42.003 12.644c1.858 9.45 1.44 19.484-1.678 29.31-6.614 20.853-23.688 35.473-43.6 39.94l33.095-44.437c5.782-7.04 8.9-13.148 10.72-18.88.66-2.08 1.135-4.056 1.463-5.933z"/>
  <path fill="#27a9e0" d="M340.788 169.792c.518-1.974-.78-4.03-2.914-4.59-2.132-.56-4.31.584-4.827 2.558-.408 1.555.51 3.21 1.67 4.04l-7.363 29.05.01.102c-.013.07-1.26 7.002-6.23 9.906-2.372 1.385-5.262 1.644-8.606.766-3.838-1.007-6.518-2.857-7.975-5.5-1.124-2.037-1.404-4.313-1.32-6.354.758 1.547 1.947 3.023 3.798 3.996l1.235-2.15c-4.016-2.113-3.705-8.193-3.7-8.252l.498-7.932-3.06 7.324c-.138.326-3.3 8.063.2 14.427 1.824 3.32 5.09 5.618 9.706 6.83 4.097 1.076 7.672.718 10.687-1.048 5.752-3.37 7.152-10.74 7.347-11.48l7.35-29.005c1.42-.157 3.086-1.134 3.494-2.688zm-3.524-2.2c.712.186 1.148.872.975 1.53-.174.658-.89 1.04-1.603.855s-1.148-.873-.975-1.53c.173-.66.89-1.043 1.602-.856z"/>
  <path fill="#27a9e0" stroke="#27a9e0" stroke-miterlimit="10" d="M337.874 165.2c3.104-49.206 9.662-103.436.216-105.605-.148-.034-.3-.05-.45-.07 9.083 2.956.234 105.676.234 105.676z"/>
  <path fill="#27a9e0" d="M526.116 219.353c-4.372-19.987-24.43-24.984-31.855-24.984s-8.12-19.364-8.12-19.364c-1.25-.167 13.722-21.316 31.856-45.107 17.166-22.522 2.73-75.437-44.115-75.373-12.795.017-32.034 9.268-40.16 23.666-2.178 3.862 2.384 14.035 0 18.113-4.437 7.595-13.246 15.193-15.036 21.86-1.374 5.117 6.76 6 8.744 8.12 1.984 2.122-2.183 5.48-1.333 8.785 1.787 6.95 11.95 6.207 11.95 6.207s-11.493 8.693-10.428 11.158c1.532 3.543-.558 10.618 1.26 13.69 3.452 5.842 11.226 7.016 16.04 10.754-1.17 4.39 1.427 10.857-1.874 12.49-3.74 1.853-13.428-1.362-14.99 0-4.775-10.545-32.688-36.5-38.725-44.38 0 0-24.113-53.668-23.11-60.088 1.666-10.666-8.828-36.955-23.224-38.565-14.887-1.665-13.708 10.758-13.628 25.575.073 13.5-.62 19.16 12.492 20.612 7.797 1.907 14.99 56.593 14.99 63.118 0 14.143 13.136 30.59 21.86 39.317s24.14 27.98 26.02 30.663c1.88 2.682-1.035 76.953-1.035 86.947 0 8.873-8.576 68.134-8.576 88.324 0 32.426 8.63 5.13 41.055 5.13 7.86 0 15.355-1.556 22.207-4.36 4.47 1.207 37.066 7.45 41.918 7.45 29.666 0 .736-68.935 2.082-98.57.636-13.997 43.192-25.776 43.098-43.16-.08-14.82-14.99-28.044-19.362-48.03zm-17.177 47.314c-4.06-.78-13.742 13.897-13.742 13.897v-24.047c-.312 1.874 17.8 10.93 13.74 10.15zM633.947 410.226c-6.08-65.062-3.56-71.66 11.976-144.55 14.576-68.384 39.35-137.74 75.427-200.58-41.33 63.4-74.05 141.514-92.627 228.672-13.946 65.426-17.126 64.897-13.526 124.375"/>
  <g>
    <path fill="#27a9e0" d="M743.816 438.356c-13.883-254.906-12.97-374.124-22.154-373.713-.117.005-.234.06-.352.1 9.29 3.506 16.73 137.774 21.804 373.614"/>
  </g>
</svg>
