<?xml version="1.0" encoding="utf-8"?>
<!-- Generator: Adobe Illustrator 18.0.0, SVG Export Plug-In . SVG Version: 6.00 Build 0)  -->
<!DOCTYPE svg PUBLIC "-//W3C//DTD SVG 1.1//EN" "http://www.w3.org/Graphics/SVG/1.1/DTD/svg11.dtd">
<svg version="1.1" xmlns="http://www.w3.org/2000/svg" xmlns:xlink="http://www.w3.org/1999/xlink" x="0px" y="0px"
	 viewBox="-320 -180 1598 696" enable-background="new -320 -180 1598 696" xml:space="preserve">
<g id="Layer_1" display="none">
	<g id="bkgd">
		<rect x="239.6" y="169.8" display="inline" fill="#2580AA" width="698.3" height="416.5"/>
	</g>
	<g id="images">
		<g id="hgqPPR_1_" display="inline">
			
				<image overflow="visible" enable-background="new    " width="225" height="225" id="hgqPPR_3_" xlink:href="A65D7A9062AA4320.jpg"  transform="matrix(-1.4993 0 0 1.4993 879.0153 245.0953)">
			</image>
		</g>
		<g id="R2Yxqx_1_" display="inline">
			
				<image overflow="visible" enable-background="new    " width="319" height="160" id="R2Yxqx_3_" xlink:href="A65D7A9062AA4321.jpg"  transform="matrix(0.9342 0 0 0.9313 937.7654 389.6929)">
			</image>
		</g>
		<g id="vyAUYj_1_" display="inline">
			
				<image overflow="visible" enable-background="new    " width="401" height="421" id="vyAUYj_3_" xlink:href="A65D7A9062AA4327.jpg"  transform="matrix(0.9348 0 0 0.9349 502.7229 663.9654)">
			</image>
		</g>
		<g id="n8oLnq_1_" display="inline">
			
				<image overflow="visible" enable-background="new    " width="401" height="421" id="n8oLnq_3_" xlink:href="A65D7A9062AA4322.jpg"  transform="matrix(0.9348 0 0 0.9349 1508.7761 566.0383)">
			</image>
		</g>
		<g id="oQ07uo_1_" display="inline">
			
				<image overflow="visible" enable-background="new    " width="271" height="193" id="oQ07uo_2_" xlink:href="A65D7A9062AA4323.jpg"  transform="matrix(9.511500e-02 0 0 9.539661e-02 25.8228 542.8541)">
			</image>
		</g>
		<g id="f5Mqt6_1_" display="inline">
			
				<image overflow="visible" enable-background="new    " width="291" height="174" id="f5Mqt6_2_" xlink:href="A65D7A9062AA432E.jpg"  transform="matrix(0.493 0 0 0.4947 -20.1474 685.0855)">
			</image>
		</g>
		<g id="ZazR74_1_" display="inline">
			
				<image overflow="visible" enable-background="new    " width="247" height="208" id="ZazR74_2_" xlink:href="A65D7A9062AA432F.jpg"  transform="matrix(0.4107 0 0 0.4101 -259.7701 590.5259)">
			</image>
		</g>
		<g id="_x38_oYl0z_1_" display="inline">
			
				<image overflow="visible" enable-background="new    " width="244" height="210" id="_x38_oYl0z_2_" xlink:href="A65D7A9062AA4324.jpg"  transform="matrix(0.3225 0 0 0.3236 -144.8388 668.4855)">
			</image>
		</g>
		<g id="Layer_11" display="inline">
			<g id="ZdVMCK_1_">
				
					<image overflow="visible" enable-background="new    " width="710" height="475" id="ZdVMCK_3_" xlink:href="A65D7A9062AA4325.jpg"  transform="matrix(0.3625 0 0 0.3608 722.1608 369.7217)">
				</image>
			</g>
			<g id="OSBCFu_1_">
				
					<image overflow="visible" enable-background="new    " width="268" height="189" id="OSBCFu_3_" xlink:href="B82B6DE429BB3FF.jpg"  transform="matrix(0.7321 0 0 0.7282 807.4537 216.0266)">
				</image>
			</g>
			<g id="mbKGOr_1_">
				
					<image overflow="visible" enable-background="new    " width="404" height="271" id="mbKGOr_3_" xlink:href="B82B6DE429BB3FD.jpg"  transform="matrix(0.2227 0 0 0.2216 616.6664 260.4029)">
				</image>
			</g>
			<g id="mGmEBY_1_">
				
					<image overflow="visible" enable-background="new    " width="551" height="366" id="mGmEBY_3_" xlink:href="B82B6DE429BB3FB.jpg"  transform="matrix(0.5265 0 0 0.5274 603.2043 28.0659)">
				</image>
			</g>
			<g id="_x37_yX0mE_1_">
				
					<image overflow="visible" enable-background="new    " width="275" height="183" id="_x37_yX0mE_2_" xlink:href="B82B6DE429BB3F5.jpg"  transform="matrix(-0.6195 0 0 0.6195 450.3131 397.3089)">
				</image>
			</g>
		</g>
	</g>
	<g id="separate_all">
		<path display="inline" fill="#2580AA" d="M734,180.8c2.9,0,4.2,0.9,6.8,0c3.4-1.2,4.3-6.6,4-8.8c-0.1-0.7-6.2-4.1-4.3-3.2
			c0.9,0.4,4.7,0.4,5.3-0.7c0.8-1.6-0.6-3.3-0.4-5.2c0.1-1.7,4.2-1,4.2-3.2c0-3.5-4.2-5.8-4.7-8.9c-0.4-2.1,2.7-4.7,2-6.6
			c-3.1-9.4-11.3-15.8-22.8-15.8c-17.3,0-23.5,14.2-23.5,31.8c0,1.5-0.1,2.9-0.2,4c-0.5,6.7,2,12.1,4.6,13.3c0.8,0.4,6,1.2,8.7,3.7
			C719.5,186.7,732,180.8,734,180.8z"/>
		<path display="inline" fill="#2580AA" d="M712.3,179.8c-5.7,4.5-10.8,9.4-10.8,17.4c0,4.4,3,19.7-1.1,27.3
			c-7.4,13.7,12.2,28.4,27.2,28.4c15,0,23.2-6.4,23.2-22.1c0-8.1-4.5-20.5-4.3-26.8c0.2-1.3,0.3-2.6,0.3-4
			c0-6.3-12.2-15.1-15.9-19.4L712.3,179.8z"/>
		<path display="inline" fill="#2580AA" d="M568,389.5c-3.2-33.9-1.9-37.3,6.2-75.2c7.6-35.6,20.5-71.7,39.2-104.4
			c-21.5,33-38.5,73.6-48.2,119c-7.3,34-8.9,33.8-7,64.7"/>
		<path display="inline" fill="#2580AA" stroke="#FFFFFF" stroke-miterlimit="10" d="M624.6,424.3"/>
		<path display="inline" fill="#2580AA" stroke="#FFFFFF" stroke-miterlimit="10" d="M624.6,335.3"/>
		<path display="inline" fill="#2580AA" d="M483.2,89.6c2.3-0.3,3.6-0.6,3.6-1c0-1.2-13.9-2.1-31.1-2.1s-31.1,1-31.1,2.1
			c0,0.4,1.9,0.8,5.2,1.2c-8.1,5.1-13.1,12.4-13.1,20.6c0,15.4,17.9,27.8,40,27.8s40-12.5,40-27.8
			C496.7,102.1,491.5,94.7,483.2,89.6z"/>
		<g display="inline">
			<path fill="#2580AA" d="M625.9,444.3c-2.7-146.8-6.9-234.6-12.3-234.7c-0.1,0-0.1,0-0.2,0.1c5.9,2.2,10.4,111.9,13,289.9"/>
		</g>
		<path display="inline" fill="#2580AA" d="M8.6,544.1c-0.1-6.1-0.9-10.3-7-10.3c-0.1,0,0.6-2.3,0.4-2.3c0.7-0.7-2.1-7-4.4-7
			c-1.3,0-0.7,3.5-1.5,4.5c-1.2-1-3.2-4.5-4.9-4.5c-3.9,0-4.8,12.1,0.7,15c0.3,0.1-0.7,5.2-0.7,6.7c0,3.4,4.5-1.8,4.5-0.8
			c0,4.3,14.6,9.6,14.6,9.6s-4.6-5.6-4-5.6c3.5,0,8.9,1.2,8.9,1.2S11.3,544.8,8.6,544.1z"/>
		<path display="inline" fill="#2580AA" d="M456.5,84.7c-0.2-0.7-0.5-5.6-1.2-6c-1.4-0.9-3,5.2-2.9,5.3c-0.9,0.2-3,6.2-6.2,3
			c0.1-1.5-0.7-6.2-2.2-11c0,0,0,0,0,0c2.8-4.2,1.7-10-2.6-12.8c-2.1-1.4-4.5-1.8-6.8-1.4c-2-1.1-4.2-2.2-4.7-2.5
			c-4.4-2.9-12-2.5-13.1,2.6c-1,4.9,8.8,8.4,8.8,8.4s-14.4-4.3-6.2,4.7c0,0,0,0,0,0c0,0.2,0.1,0.5,0.2,0.8c-1.3,0.3-2.4,1-2.7,1.6
			c-0.5,1.1,0.4,4.5,1.9,6.2c1.1,1.3,2.3-1.5,3.1-3.5c3.2,5.2,8.3,12.1,10.4,13.5c2.5,1.7,10.1,9.5,23.5-4.3c0.3-0.3,4.4-1,5.8-2.7
			C465.6,82.3,457.8,84.1,456.5,84.7z M426.3,65.1c-0.7-0.5-0.9-1.5-0.4-2.2c0.5-0.7,1.5-0.9,2.2-0.4c0.7,0.5,0.9,1.5,0.4,2.2
			C428,65.4,427,65.6,426.3,65.1z"/>
		<path display="inline" fill="#2580AA" d="M490.2,80.5c4.8,0.8,6.7-4.6,5.1-6.4c-1.6-1.8-6.5,1.1-7.6,0.5
			c-3.8-2.2-8.8-7.1-11.9-2.3c-1.1,1.6-2.3,3-2.6,4.9c-1.5-1.3-4.2-2.5-5.5-1.5c-3.9,2.9,2,7.8,3.3,9c1.7,1.7,1.1,2.9-0.3,4
			c-1.8,1.4,2.1,1.4,4.2,0.6c-0.4,1.7-2,3.2-2.8,3.9c-0.4,0.4-0.7,0.8-0.9,1.3c-1.1-1.2-5.5-0.3-6.7,0.7c-1.2,1.1,0.2,2.9,2.5,3.1
			c1.2,0.1,1.7-0.6,3,0.8c-0.2,0.6,0.8,2.6,1.3,3.1c0.8,0.8,1.7,0.2,2.5-0.6c0.6-0.5,0.7-3.9,0.5-4.6c1-0.4,1.1-0.8,1.9-1.4
			c0.2-0.2-0.7,1.9-0.2,2.5c1,1.1,4.8,4.8,5.2,3.4c0.4-1.3,1.4-4,0.7-5.1c0.6,0,1.9,1.1,2.3,1.5c0.8,0.9,1.9,1.3,2.8,0.5
			c0.9-0.8-0.4-5.6,0.3-5.5c2.5-2,4.9-4.2,4.5-6.5c1.2,0.4,3.7,0.5,4.6-0.5c2.8-2.8,1.1-5.6-1.2-4.9C492.6,82,489.6,80.4,490.2,80.5
			z M484.2,76.5c-0.5,0.4-1.4,0.1-2.1-0.7c-0.7-0.8-0.9-1.8-0.5-2.2c0.5-0.4,1.4-0.1,2.1,0.7C484.5,75.1,484.7,76.1,484.2,76.5z"/>
		<path display="inline" fill="#2580AA" d="M491,357.3c-46.6,0-91.8-4.7-135.2-13.6c8.4,60.3,68.6,107.1,141.7,107.1
			c74.2,0,135.2-48.3,142.1-110C592.2,351.6,542.4,357.3,491,357.3z"/>
		<path display="inline" fill="#2580AA" d="M222.2,364.1c6.9-43.1,5.5-47.6-1.6-96.8c-7.3-50.5-21.8-96.9-41.4-136.9
			c24.7,44.1,43.1,97.5,51.6,156.4c6.4,44.2,8.6,44,3.5,83.4"/>
		<g display="inline">
			<path fill="#2580AA" d="M178.2,330.1c-5.7-124.3-5.7-198.9,1.2-199.5c0.1,0,0.2,0,0.2,0c-7.5,2.5-6.4,95.6,1.3,246.3"/>
		</g>
		<path display="inline" fill="#2580AA" d="M212.7,295.3c-2.7-4.4,2.1-7,2.1-12.6c0-7.3,8.9-27.8,10.2-32.4
			c1.3-4.6,0.1-30.9,3.1-35.8c3-4.9,2.7-2.7,1.7-5.6c-1.6-4.7-4.8-7.6-5.2-15.6c-1-16.4,11.7-27.8,23-26.6
			c12.4,1.4,14.4,2.2,19.1,12.5c1.1,2.3-3.3,5.3-3,7.8c0.2,1.3,3.6,7,3.6,8.4c0,2.7-4.9,2.1-5.5,4.7c-0.2,0.7,3.2,3.8-0.5,4.4
			c-1.3,0.2-7.2-2.2-8.2-1.3c-0.5,2.2,8.3,3,7.3,4.9c-1.3,2.5,0.3,4.9-1.2,6.5c-1.5,1.6-9,0.3-10.1,0.6c2.7,3,9.3,18.7,12.5,20.9
			c0.7-2.2,4.8-2.9,6.7-5.6c1.9-2.7,1.5-7.4,3.6-7.4c4.8,0,7.5,3.9,7.5,8.8c0,4.8-2.6,8.8-7.5,8.8c-12.5,15.6-13,7.9-16.3,8.2
			c-0.1,5.7-1.4,24.6-1.4,31.3c0,7.3,10,13.9,5.6,19.1c3.4,2.5,5.6,6.6,5.6,11.2c0,7.7-6.3,14-14,14c-5.9,0-11-3.7-13-8.9
			c-2.5,6.4-8.7,11-16,11c-9.5,0-17.1-7.7-17.1-17.1C205.3,303.6,208.2,298.4,212.7,295.3z"/>
		<path display="inline" fill="#2580AA" d="M735.1,353c-4.6,0-20.1-1.9-20.1-1.9c-3.5-2.6-9-15.3-10.6-16.8c0.8-0.3,1.5-0.4,1.8-0.4
			c2.8,0,4.1,0.9,6.6,0c3.3-1.1,4.2-6.4,3.8-8.4c-0.1-0.7-6-3.9-4.2-3.1c0.9,0.4,4.5,0.4,5.1-0.7c0.8-1.5-0.5-3.2-0.4-5
			c0.1-1.7,4.1-1,4.1-3c0-3.4-4.1-5.6-4.6-8.6c-0.3-2.1,2.6-4.6,2-6.4c-3-9.1-10.9-15.2-22-15.2c-16.7,0-22.7,13.7-22.7,30.6
			c0,1.5-0.1,2.8-0.2,3.9c-0.5,6.5,1.9,11.6,4.4,12.9c0.6,0.3,3.7,0.8,6.3,2.2c-5,11.5-1.6,19.1-2.7,27.1c-1.2,8-3.9,10.7-3.9,16.8
			c0,6.5,0.4,11.2,4.9,15.3c-1.2,1.7-1.3,9.8-0.3,11.4c-1.4,1.2-1.9,7.4-1.4,8.4c-1.7,2.2-2.7,2.9-2.7,6.5c0,3.6,2.9,6.5,6.5,6.5
			c0.6,0,2.1,0.3,2.6,0.2c0.5,1.9,2.3,2.2,4.3,2.2c2.5,0,5.7-0.8,5.7-3.3c0-2.5-3.2-4.5-5.7-4.5c0,0,0,0-0.1,0
			c0-1.9-0.9-3.5-2.3-4.6c2.5-1,4.2-6.8,4.1-7.1c3.3-0.9,6-3.5,6.9-6.8c0.8,0.5,0.3,4.6,0.3,6.7c0,2.8,1.6,5.3,3.9,6.6
			c-1.9,1.4-3.2,3.6-3.2,6.2c0,4.2,3.4,7.6,7.6,7.6c2.2,0,4.1-0.9,5.5-2.4c0.9,0.7,8.4-1.1,8.4-3.9c0-2.8-6.5-5-7.1-4.7
			c-0.7-1.4-1.7-2.5-3.1-3.2c1.9-1.4,3.2-3.6,3.2-6.2c0-2.9-1.7-5.5-4.1-6.7c2.5-1.8,0.2-8.4,0.2-11.7c0-0.9,1.6-14.1,1.6-24.5
			c3.4-0.6,7-1.1,10.5-1.3c5.9-0.3,13.4,3.7,13.7,1.1c4.7-1.4,8.5-2.1,8.5-7.2C746.4,350.9,741.5,353,735.1,353z"/>
		<path display="inline" fill="#2580AA" d="M545.8,192c4.5-0.1,15.1,1.7,16,1.2c4-0.9,11.8-12.4,14.2-12.4c1.9,0,4.6-2,4.8-6.2
			c0.1-2.2,6.4-1.9,6.4-3c0-3.1-7.2-2-10.3-1.7c-7.2,0.5-10.4,7.1-15,8.7c-0.4-0.1-8.4-0.7-11.4-0.7c-0.4,0-2.3-1.3-4.5-2.9"/>
		<g id="gHb3f0_1_" display="inline">
			
				<image overflow="visible" enable-background="new    " width="501" height="457" id="gHb3f0_2_" xlink:href="B82B6DE429BB3F7.jpg"  transform="matrix(0.9353 0 0 0.9351 -104.7824 463.9664)">
			</image>
		</g>
		<path display="inline" fill="#2580AA" d="M552.2,319.7c2.8-2.1,9.1-4.8,10.8-7.9c1.7-3.2-1.4-9.9-1.4-13.7
			c0-12.8-10.3-25.1-23.1-25.1c-12.8,0-23.1,12.3-23.1,25.1c0,4.2-2.9,11.2-0.9,14.6c2,3.4,8.8,6.3,12.2,8.3
			c-5,2.7-11.1,6.9-13.8,11.9c-2.2,4.1-1.5,8.8-1.5,13.8c0,16.2,13.1,29.3,29.3,29.3c16.2,0,31.1-13.1,31.1-29.3
			c0-8.1-0.5-13.6-5.8-18.8C563.5,325.2,555.7,321.2,552.2,319.7z"/>
		<path display="inline" fill="#2580AA" d="M434,304.5c-28-38.5-76.1-52-110.7-32.3c0.1,0.1,0.2,0.2,0.3,0.3
			c34.8-16.8,80.8-1.9,107.2,36.3c24.9,36,24.1,81,0.5,108.3c0.2,0.4,0.4,0.8,0.6,1.3C460,391.4,461.6,342.5,434,304.5z"/>
		<g display="inline">
			<path fill="#2580AA" d="M278.3,502.2c33.1-143.1,50.3-229.3,45.1-230.6c-0.1,0-0.1,0-0.2,0c5.2,3.6-17,111.1-57.8,284.4"/>
		</g>
		<path display="inline" fill="#2580AA" d="M485.7,285.4c-3.3-4.1-6.8-8.5-6.3-10.6c1-4.8,5.1-9.5,4.6-17.4
			c-1-16.4-14.3-26.8-25.6-27.2c-9.4-0.3-16.5,5.1-20,15.8c-0.8,2.4,3.9,4.8,3.9,7.4c0,1.3-2.7,7.4-2.6,8.7c0.3,2.7,5.1,1.5,6,4
			c0.2,0.7-2.7,4.1,1.1,4.3c1.3,0.1,8.7-3.5,9.9-2.7c0.3,11.2-8.8,8.2-7.6,10c1.6,2.4,0.3,4.9,2,6.2c1.7,1.4,9-0.8,10.1-0.6
			c-0.7,1-5.3,2.8-6.7,6.8c-1.8,5.2-2.8,12-4.2,15.3c0,0-8-3.3-12.4-5.6c-4.7-8.7-14.2-5.9-15.3-5.9c-6.2,0-2.1,1.6-2.1,7.8
			c0,2.2,6,2.3,9.6,4.4c6.5,3.6,14.4,15,22.5,15.2c2.8,0.1,6.7-4.7,8.7-6.8c1.2,2.4-8.7,37.2-8.7,47.8c0,14.5,4,11.4,18.5,11.4
			c14.5,0,31.2-1.2,31.2-15.7c0-8.2-4.8-35.9-4.8-44.7C497.3,303.7,489,289.4,485.7,285.4z"/>
	</g>
	<g id="wordpress_catch" display="inline">
		<g>
			<path fill="#2580AA" d="M309.2,514.2c22.1,0,42-9.4,55.9-24.4c13.9,15,33.8,24.4,55.9,24.4c21.5,0,40.9-8.9,54.8-23.2
				c13.9,14.3,33.3,23.2,54.8,23.2c13.9,0,26.9-3.7,38.1-10.2c11.2,6.5,24.2,10.2,38.1,10.2c20.7,0,39.5-8.3,53.3-21.7
				c13.8,13.4,32.6,21.7,53.3,21.7c6.3,0,12.3-0.8,18.2-2.2c36.4-43.3,60-95,66.2-150.9c-121.3,27.5-248.6,42.1-380.1,42.1
				c-119.1,0-234.8-12-345.7-34.7c7,49.9,27.8,96.2,59.2,136c9.6-5.4,18-12.8,24.4-21.6c13.9,19,36.3,31.3,61.6,31.3
				c17.3,0,33.2-5.7,46-15.4C276,508.5,292,514.2,309.2,514.2z"/>
		</g>
		<g>
			<path fill="#2580AA" d="M306.2,255.7c-32.5-10.3-67.3,7.7-77.6,40.2c-10.3,32.5,7.7,67.3,40.2,77.6c32.5,10.3,67.3-7.7,77.6-40.2
				C356.7,300.8,338.7,266,306.2,255.7z M234.5,297.8c2.4-7.7,6.4-14.4,11.4-20.1l3.3,77.2C234.3,340.7,227.9,318.7,234.5,297.8z
				 M270.7,367.5c-5.2-1.6-10-4-14.3-6.9l30.5-41.1l2.1,49.8c0,0.3,0.1,0.6,0.1,0.9C283.1,370.3,276.9,369.5,270.7,367.5z
				 M302.7,292.1c3.2,0.8,6.2,1.4,6.2,1.4c3,0.6,4-3.7,1-4.5c0,0-8.8-2-14.3-3.8c-5.2-1.7-13.7-5.1-13.7-5.1
				c-2.8-1.1-4.5,3.2-1.7,4.3c0,0,2.6,1.2,5.4,2.3l1.1,25.2L264,342.9l-1.1-63.5c3.2,0.8,6.2,1.4,6.2,1.4c3,0.6,4-3.7,1-4.5
				c0,0-8.8-2-14.3-3.8c-1-0.3-2.2-0.7-3.4-1.1c14-11.4,33.3-15.7,51.8-9.8c13.8,4.4,24.7,13.6,31.4,25.3c-0.2-0.1-0.4-0.2-0.7-0.3
				c-5.2-1.7-10.3,1.7-11.9,6.6c-1.4,4.4,0,8.9,1.3,14.1c0.9,4.2,1.8,9.4-0.3,16c-1.4,4.5-4.8,9.2-9.5,15.8l-10.9,16L302.7,292.1z
				 M342,303.9c1.7,8.9,1.3,18.3-1.6,27.5c-6.2,19.5-22.2,33.2-40.9,37.4l31-41.6c5.4-6.6,8.3-12.3,10-17.7
				C341.3,307.5,341.7,305.7,342,303.9z"/>
			<path fill="#2580AA" d="M319.4,221.1c0.5-1.8-0.7-3.8-2.7-4.3c-2-0.5-4,0.5-4.5,2.4c-0.4,1.5,0.5,3,1.6,3.8l-6.9,27.2l0,0.1
				c0,0.1-1.2,6.6-5.8,9.3c-2.2,1.3-4.9,1.5-8.1,0.7c-3.6-0.9-6.1-2.7-7.5-5.2c-1.1-1.9-1.3-4-1.2-6c0.7,1.4,1.8,2.8,3.6,3.7l1.2-2
				c-3.8-2-3.5-7.7-3.5-7.7l0.5-7.4l-2.9,6.9c-0.1,0.3-3.1,7.6,0.2,13.5c1.7,3.1,4.8,5.3,9.1,6.4c3.8,1,7.2,0.7,10-1
				c5.4-3.2,6.7-10.1,6.9-10.8l6.9-27.2C317.4,223.4,319,222.5,319.4,221.1z M316.1,219c0.7,0.2,1.1,0.8,0.9,1.4
				c-0.2,0.6-0.8,1-1.5,0.8s-1.1-0.8-0.9-1.4C314.7,219.2,315.4,218.8,316.1,219z"/>
			<g>
				<path fill="#2580AA" stroke="#2580AA" stroke-miterlimit="10" d="M316.6,216.8c2.9-46.1,9.1-96.9,0.2-99c-0.1,0-0.3,0-0.4-0.1
					C324.9,120.5,316.6,216.8,316.6,216.8z"/>
			</g>
		</g>
		<path fill="#2580AA" d="M527,263.1c4.7-12.1-29.8,23.2-33.9,4.4c-4.1-18.7-22.9-23.4-29.9-23.4s-7.6-18.1-7.6-18.1
			c-1.2-0.2,12.9-20,29.9-42.3c16.1-21.1,2.6-70.7-41.3-70.6c-12,0-30,8.7-37.6,22.2c-2,3.6,2.2,13.2,0,17
			c-4.2,7.1-12.4,14.2-14.1,20.5c-1.3,4.8,6.3,5.6,8.2,7.6c1.9,2-2,5.1-1.2,8.2c1.7,6.5,11.2,5.8,11.2,5.8s-10.8,8.1-9.8,10.5
			c1.4,3.3-0.5,10,1.2,12.8c3.2,5.5,10.5,6.6,15,10.1c-1.1,4.1,1.3,10.2-1.8,11.7c-3.5,1.7-12.6-1.3-14,0
			c-4.5-9.9-30.6-34.2-36.3-41.6c0,0-22.6-50.3-21.7-56.3c1.6-10-8.3-34.6-21.8-36.1c-14-1.6-12.8,10.1-12.8,24
			c0.1,12.7-0.6,18,11.7,19.3c7.3,1.8,14,53,14,59.2c0,13.3,12.3,28.7,20.5,36.8c8.2,8.2,22.6,26.2,24.4,28.7c1.8,2.5-1,72.1-1,81.5
			c0,8.3-8,63.9-8,82.8c0,30.4,8.1,4.8,38.5,4.8c7.4,0,14.4-1.5,20.8-4.1c4.2,1.1,34.7,7,39.3,7c27.8,0-2.2-113.5-2.2-113.5
			l-2.6-29.5c-0.3,1.8,16.7,10.2,12.9,9.5c-3.8-0.7,23,2.7,23,2.7"/>
		<path fill="#2580AA" d="M594.1,446.4c-5.7-61-3.3-67.2,11.2-135.5c13.7-64.1,36.9-129.1,70.7-188
			c-38.7,59.4-69.4,132.6-86.8,214.3c-13.1,61.3-16,60.8-12.7,116.6"/>
		<g>
			<path fill="#2580AA" d="M697.1,472.8c-13-238.9-12.2-350.6-20.8-350.2c-0.1,0-0.2,0.1-0.3,0.1c8.7,3.3,15.7,129.1,20.4,350.1"/>
		</g>
	</g>
	<g id="wateronly">
		<g display="inline">
			<path fill="#2580AA" d="M630.2,390.3c-6.8,0-13-2.2-18-6c-5,3.8-11.2,6-18,6c-9.9,0-18.7-4.8-24.1-12.2
				c-5.4,7.4-14.2,12.2-24.1,12.2c-8.1,0-15.5-3.2-20.8-8.5c-5.4,5.3-12.7,8.5-20.8,8.5c-5.4,0-10.5-1.5-14.9-4
				c-4.4,2.5-9.5,4-14.9,4c-8.4,0-16-3.5-21.4-9.1c-5.4,5.6-13,9.1-21.4,9.1c-8.6,0-16.4-3.7-21.9-9.5c-5.4,5.9-13.2,9.5-21.9,9.5
				c-6.8,0-13-2.2-18-6c-5,3.8-11.2,6-18,6c-9.9,0-18.7-4.8-24.1-12.2c-5.4,7.4-14.2,12.2-24.1,12.2c-8.1,0-15.5-3.2-20.8-8.5
				c-4.3,4.2-9.9,7.1-16.2,8.1c-1.5,0.2-3.1,0.4-4.7,0.4"/>
		</g>
		<g display="inline">
			<path fill="#2580AA" d="M992.9,390.3c-6.8,0-13-2.2-18-6c-5,3.8-11.2,6-18,6c-9.9,0-18.7-4.8-24.1-12.2
				c-5.4,7.4-14.2,12.2-24.1,12.2c-8.1,0-15.5-3.2-20.8-8.5c-5.4,5.3-12.7,8.5-20.8,8.5c-5.4,0-10.5-1.5-14.9-4
				c-4.4,2.5-9.5,4-14.9,4c-8.4,0-16-3.5-21.4-9.1c-5.4,5.6-13,9.1-21.4,9.1c-8.6,0-16.4-3.7-21.9-9.5c-5.4,5.9-13.2,9.5-21.9,9.5
				c-6.8,0-13-2.2-18-6c-5,3.8-11.2,6-18,6c-9.9,0-18.7-4.8-24.1-12.2c-5.4,7.4-14.2,12.2-24.1,12.2c-8.1,0-15.5-3.2-20.8-8.5
				c-4.3,4.2-9.9,7.1-16.2,8.1c-1.5,0.2-3.1,0.4-4.7,0.4"/>
		</g>
		<rect x="259" y="390.3" display="inline" fill="#2580AA" width="580.1" height="101.6"/>
	</g>
	<g id="teach_fish">
		<g display="inline">
			<path fill="#2580AA" d="M563.7,498.5c16.8-104.8,13.5,25.1-3.9-94.8C542,280.9,506.6,167.7,459,70.4
				c60.2,107.2,104.9,237.4,125.7,380.7c15.6,107.6,20.8-33.8,8.6,62.3"/>
			<path fill="#2580AA" d="M449.9,281.9c-17.4,1.3-25.2,17.4-36.5,21.2c-1-0.1-20.5-1.6-27.8-1.6c-2.5,0-27.6-19.6-33.8-25.8
				c2-0.6,3.6-1,4.3-1c6.8-0.1,9.9,2.1,15.9,0c8-2.8,10.2-15.6,9.4-20.6c-0.3-1.7-17-3.8-10.2-7.6c2.2,1,11,1,12.4-1.7
				c1.9-3.7-1.3-7.8-1-12.2c0.3-4,9.9-2.3,9.9-7.4c0-8.2-9.9-13.6-11.1-21c-0.8-5,6.2-11.1,4.8-15.6c-7.3-22.1-26.5-37-53.6-37
				c-40.7,0-55.1,33.4-55.1,74.6c0,3.6-0.2,6.7-0.4,9.5c-1.2,15.8,4.6,28.3,10.8,31.3c1.5,0.7,9.1,2,15.4,5.2
				c-12.3,28-3.8,46.4-6.7,65.9c-2.9,19.5-9.5,26.2-9.5,40.9c0,15.9,1,27.3,11.8,37.4c-3,4.1-3.3,24-0.7,27.8
				c-3.4,3-4.7,18-3.3,20.4c-4.1,5.4-6.6,7.2-6.6,15.7c0,8.7,7.1,24.9,15.8,24.9c1.6,0,5,0.8,6.3,0.4c1.2,4.7,5.5,5.3,10.6,5.3
				c6.1,0,13.9-2,13.9-8c0-6.1-7.8-20.1-13.9-20.1c-0.1,0-0.1,0-0.2,0c0-4.6-2.2-8.6-5.6-11.2c6-2.4,10.2-16.5,10.1-17.2
				c8.1-2.2,14.5-8.5,16.9-16.5c1.9,1.3,0.7,11.1,0.7,16.3c0,6.9,3.8,12.9,9.4,16.1c-4.7,3.4-7.7,8.9-7.7,15.1
				c0,10.2,8.3,27.7,18.6,27.7c5.3,0,10.1-2.2,13.5-5.8c2.2,1.8,20.3-11.8,20.3-18.7c0-6.9-15.7-12.1-17.2-11.5
				c-1.6-3.3-4.2-6-7.4-7.8c4.7-3.4,7.7-8.9,7.7-15.1c0-7.1-4-13.3-9.9-16.4c6.1-4.4,0.4-20.5,0.4-28.6c0-2.7,5.4-46.9,3.6-72.7
				c-0.1-0.2-0.1-0.4-0.2-0.6c11-0.3,36.8,4.1,39,2.9c9.7-2.1,28.8-30.2,34.6-30.2c4.7,0,11.2-4.9,11.7-15.1
				c0.3-5.4,15.6-4.6,15.6-7.3C474.9,278.6,457.3,281.4,449.9,281.9z"/>
			<path fill="#2580AA" d="M678,445.4c6.2-10.2-4.9-16.2-4.9-29c0-16.9-20.5-64.1-23.6-74.7c-3.1-10.6-0.2-71.2-7.1-82.5
				c-7-11.3-6.3-6.2-4-12.8c3.7-10.8,11-17.6,12.1-35.9c2.3-37.8-27.1-64.1-53.1-61.2c-28.5,3.2-33.2,5.1-44.1,28.8
				c-2.4,5.2,7.6,12.1,6.8,18c-0.4,2.9-8.3,16.2-8.3,19.3c0,6.3,11.3,5,12.7,10.8c0.4,1.6-7.3,8.7,1.3,10.2
				c3.1,0.5,16.5-5.1,18.9-2.9c1.2,5.1-19.2,6.8-16.9,11.4c2.9,5.9-0.6,11.2,2.8,14.9c3.4,3.7,20.8,0.7,23.4,1.4
				c-6.3,7-21.3,43-28.8,48.1c-1.7-5.1-11.1-6.7-15.4-13c-4.3-6.3-3.6-17.1-8.3-17.1c-11.1,0-17.2,9-17.2,20.2
				c0,11.1,6.1,20.2,17.2,20.2c28.8,35.9,30,18.1,37.7,18.9c0.3,13.1,3.3,56.8,3.3,72.2c0,16.8-23.1,32.1-12.9,43.9
				c-7.8,5.9-12.9,15.2-12.9,25.7c0,17.8,14.4,41.3,32.2,41.3c13.6,0,25.3-17.6,29.9-29.6c5.7,14.8,20,34.5,36.9,34.5
				c21.8,0,39.5-26.8,39.5-48.6C695,464.4,688.3,452.5,678,445.4z"/>
			<g>
				<path fill="#2580AA" d="M330.3,538.7c21,0,39.9-8.9,53.2-23.2c13.3,14.3,32.2,23.2,53.2,23.2c20.5,0,38.9-8.5,52.1-22.1
					c13.2,13.6,31.7,22.1,52.1,22.1c13.2,0,25.6-3.6,36.3-9.7c10.7,6.2,23.1,9.7,36.3,9.7c19.7,0,37.6-7.9,50.7-20.7
					c13.1,12.8,31,20.7,50.7,20.7c6,0,11.7-0.7,17.3-2.1c34.6-41.3,57.1-99.5,63-152.8c-115.4,26.1-236.7,40.1-361.8,40.1
					c-113.3,0-223.5-11.5-329.1-33c6.6,47.5,26.5,100.7,56.3,138.6c9.2-5.1,17.1-12.2,23.3-20.6c13.2,18.1,34.6,29.8,58.6,29.8
					c16.4,0,31.6-5.5,43.8-14.7C298.8,533.2,313.9,538.7,330.3,538.7z"/>
			</g>
			<g>
				<g>
					<defs>
						<rect id="SVGID_1_" x="407.4" y="28.2" width="85.2" height="448"/>
					</defs>
					<clipPath id="SVGID_2_">
						<use xlink:href="#SVGID_1_"  overflow="visible"/>
					</clipPath>
					<g clip-path="url(#SVGID_2_)">
						<path fill="#2580AA" d="M456.6,556.4c-13.8-302.7-13.9-484.3,2.8-485.7c0.2,0,0.4,0,0.6,0.1c-18.2,6.1-15.6,232.8,3.3,599.5"
							/>
					</g>
				</g>
			</g>
		</g>
	</g>
	<g id="we_fish">
		<path display="inline" fill="#2580AA" d="M669.8,507.4c-7.7-82.2-4.5-90.5,15.1-182.6c18.4-86.4,49.7-174,95.3-253.4
			c-52.2,80.1-93.5,178.8-117,288.9c-17.6,82.6-21.6,82-17.1,157.1"/>
		<path display="inline" fill="#2580AA" stroke="#FFFFFF" stroke-miterlimit="10" d="M807.2,375.8"/>
		<g display="inline">
			<path fill="#2580AA" d="M808.6,542.9c-6.5-301.7-16-472-28-472.1c-0.1,0-0.3,0.1-0.4,0.1c11.7,4.4,21.1,174,27.5,471.9"/>
		</g>
		<path display="inline" fill="#2580AA" d="M631.4,338c6.8-5,22.2-11.6,26.2-19.1c4.1-7.8-3.3-23.9-3.3-33.3
			c0-31-25.1-60.9-56.1-60.9c-31,0-56.1,30-56.1,60.9c0,10.3-7,27.2-2.1,35.5c4.8,8.3,21.5,15.2,29.7,20.1
			c-12.1,6.6-26.9,16.7-33.4,28.8c-5.4,10-3.5,21.4-3.5,33.5c0,39.2,31.8,71,71,71s75.6-31.8,75.6-71c0-19.7-1.2-32.9-14.1-45.8
			C658.9,351.3,639.8,341.6,631.4,338z"/>
		<path display="inline" fill="#2580AA" d="M344.5,301.2c-68-93.6-184.7-126.2-268.8-78.3c0.3,0.2,0.5,0.5,0.8,0.7
			c84.5-40.7,196.3-4.7,260.3,88.2c60.4,87.5,64.3,147.6,6.9,213.9c0.5,1,2.4,10.5,2.8,11.5C414.9,471.4,411.5,393.3,344.5,301.2z"
			/>
		<g display="inline">
			<path fill="#2580AA" d="M24.4,524.5c41.6-191.4,60.8-301,51.7-303.4c-0.1,0-0.3,0-0.5,0c8.1,5.6-11.1,114.6-52,302.7"/>
		</g>
		<path display="inline" fill="#2580AA" d="M469.9,254.6c-8.1-9.8-16.5-20.7-15.4-25.8c2.5-11.8,12.4-23,11.3-42.2
			c-2.3-39.7-34.7-65-62.2-66c-22.9-0.8-40.1,12.4-48.6,38.4c-1.9,5.8,9.4,11.7,9.4,18c0,3.1-6.6,18-6.2,21.1
			c0.8,6.6,12.4,3.8,14.6,9.7c0.6,1.6-6.5,10,2.6,10.5c3.3,0.2,21.2-8.6,24-6.7c0.7,27.2-21.4,19.9-18.5,24.4
			c3.8,5.7,0.8,11.8,4.8,15.2c4,3.4,21.8-1.8,24.6-1.4c-1.7,2.4-13,6.9-16.3,16.4c-4.4,12.6-6.8,29-10.2,37.1c0,0-19.5-8.1-30-13.6
			c-11.4-21.2-34.4-14.3-37.2-14.3c-15.1,0-5.1,3.8-5.1,18.9c0,5.4,14.5,5.6,23.3,10.6c15.8,8.8,34.9,36.3,54.7,37
			c6.9,0.2,16.2-11.5,21.2-16.5c2.9,5.9-21.2,90.3-21.2,116c0,35.2,9.8,27.6,45,27.6s75.6-3,75.6-38.2c0-19.9-11.7-87.1-11.7-108.4
			C498.2,299.3,478,264.5,469.9,254.6z"/>
		<g display="inline">
			<path fill="#2580AA" d="M346.6,537.2c21,0,39.8-8.9,53.1-23.2c13.2,14.2,32.1,23.2,53.1,23.2c20.4,0,38.8-8.5,52-22
				c13.2,13.6,31.6,22,52,22c13.2,0,25.6-3.5,36.2-9.7c10.7,6.2,23,9.7,36.2,9.7c19.7,0,37.5-7.9,50.6-20.6
				c13.1,12.8,30.9,20.6,50.6,20.6c5.9,0,11.7-0.7,17.2-2.1c34.5-41.1,57-90.2,62.9-143.3c-115.1,26.1-236,40-360.8,40
				c-113,0-222.9-11.4-328.2-32.9c6.6,47.4,26.4,91.3,56.2,129.1c9.1-5.1,17.1-12.1,23.2-20.5c13.2,18,34.5,29.7,58.5,29.7
				c16.4,0,31.5-5.5,43.6-14.6C315.1,531.8,330.2,537.2,346.6,537.2z"/>
		</g>
	</g>
	<g id="delivery">
		<g display="inline">
			<path fill="#2580AA" d="M480.4,272.1c8.9,3.6,14.9-5.9,12.6-10.1c-2.3-4.2-12.9-0.7-14.8-2.4c-6.5-5.9-13.8-17.5-22-9.6
				c-2.8,2.7-5.8,4.9-7.1,8.2c-2.3-3.1-7-6.6-10-5.3c-8.8,4,0.5,16,2.3,18.9c2.5,4.1,0.8,6.1-2.3,7.6c-4.2,2,3.5,3.7,7.8,2.9
				c-1.6,3.1-5.2,5.2-7.2,6.3c-0.9,0.5-1.7,1.2-2.3,2.1c-1.5-2.7-10.5-3-13.2-1.5c-2.7,1.5-0.8,5.7,3.4,7c2.2,0.7,3.5-0.3,5.4,2.9
				c-0.6,1.2,0.5,5.4,1.1,6.6c1.1,2,3.1,1.1,5.1,0c1.4-0.8,3-7.2,3-8.7c2.1-0.4,2.5-1,4.3-2c0.5-0.3-2.3,3.3-1.5,4.7
				c1.4,2.5,7.2,11.4,8.6,8.9c1.3-2.4,4.5-7.1,3.6-9.5c1.1,0.2,3.3,3,3.7,3.9c1.2,2.1,3,3.4,5.1,2.2s1.6-11,2.9-10.5
				c5.7-2.8,11.2-5.9,11.4-10.5c2.1,1.3,6.9,2.5,9.1,1.1c6.6-4.2,4.7-10.3-0.2-9.9C484.4,276,479.3,271.6,480.4,272.1z M470.6,261.8
				c-1.1,0.6-2.8-0.4-3.8-2.3c-1-1.8-1-3.8,0.1-4.4s2.8,0.4,3.8,2.3C471.7,259.2,471.6,261.2,470.6,261.8z"/>
			<path fill="#2580AA" d="M436.9,316.1c0-8.3-5.7-8.6-14-8c-9.7,0.7-9.8,7.8-14.4,12.5s-16.3,15.2-22.5,17.3
				c-1.1-0.1-36.8-19-44.8-20c-8-1.1-8.4-3.3-13.4-9.6c0.1-0.9,0.9-1.9,2.9-3.4c1.9-0.6,3.3-1,4.1-1c6.4-0.1,9.3,2,15,0
				c7.5-2.6,9.6-14.6,8.8-19.3c-0.3-1.6-13.7-9-9.6-7.1c2.1,0.9,10.4,0.9,11.7-1.6c1.8-3.5-1.2-7.3-0.9-11.5c0.3-3.8,9.3-2.2,9.3-7
				c0-7.7-9.3-12.8-10.4-19.7c-0.8-4.7,5.9-10.5,4.5-14.7c-6.9-20.8-24.9-34.8-50.4-34.8c-38.2,0-51.8,31.4-51.8,70.1
				c0,3.4-0.1,6.3-0.3,8.9c-1.1,14.9,4.4,26.6,10.1,29.4c1.4,0.7,8.6,1.9,14.4,4.9c-7.9,18-6.6,31.8-5.9,44.6c0,0-9.7,74.8,2.3,85.9
				c-3.3,4.5-20.8,12-18,16.3c-3.7,3.3-5.2,19.9-3.7,22.6c-4.6,6-7.3,8-7.3,17.5c0,9.7,7.8,17.5,17.5,17.5c1.7,0,5.6,0.9,6.9,0.5
				c1.4,5.2,6.1,5.8,11.7,5.8c6.7,0,15.4-2.2,15.4-8.9c0-6.7-8.7-12.2-15.4-12.2c-0.1,0-0.1,0-0.2,0c0-5.1-2.5-9.5-6.2-12.4
				c6.7-2.7,11.3-18.3,11.2-19.1c9-2.5,16.1-9.4,18.8-18.3c2.1,1.5,0.8,12.4,0.8,18.1c0,7.7,4.2,14.4,10.4,17.9
				c-5.2,3.7-8.6,9.8-8.6,16.7c0,11.4,9.2,20.6,20.6,20.6c5.9,0,11.2-2.5,14.9-6.5c2.4,2,22.6-3,22.6-10.6s-17.5-13.4-19.1-12.7
				c-1.8-3.7-4.7-6.7-8.2-8.7c5.2-3.7,8.6-9.8,8.6-16.7c0-7.9-4.5-14.8-11-18.2c6.8-4.9,0.5,10,0.5,1c0-3,15.6-25.4-0.1-81.3
				c-0.1-0.2,3.9,0.2,3.9,0c12.2-0.3,40.8,4.6,43.3,3.2c10.7-2.3,31.9-33.6,38.4-33.6c5.3,0,36.4,1.5,37-9.9
				C466.5,314.7,436.9,319.1,436.9,316.1z"/>
			<path fill="#2580AA" d="M777.8,324.4c0,0-12.7-6.6-14.7-13.7c2.7-6-0.6-14.9-7.1-17.5c-8.2-3.3-13.4-2.1-18.6,6.6
				c-19.2,7.2-44.1,15.7-48.6,13.7c2.4-5.9,28.4-20.2,28.4-47.7c0-24.4-46.3-60.8-49.7-63.7c-10.2-8.7-30.7-23.4-30.6-30.4
				c0.2-11.5,5-20.3,0.2-38.2c-9.8-36.9-48.4-56.5-72.4-45.5c-26.3,12.1-27.9,19-31,45.1c-0.7,5.8,11.1,9.2,12.2,15.1
				c0.6,2.9-2.8,18.2-1.9,21.1c2,6.1,12.4,1.2,15.5,6.4c0.9,1.4-4.2,10.6,4.4,9.4c3.1-0.5,13.6-13.4,16.6-12.1
				c5.8,12.4-15.6,15.9-11.9,19.6c4.7,4.7,3,10.9,7.4,13.4c4.4,2.4,20.2-5.9,22.9-6c-3.8,8.7-6.5,47.9-12.4,55.1
				c0,0-18.9,19.8-28.2,19.6c-3.1-0.1-3.4-10.4-5.2-11c-7.2-2.7-5.4,12-9.3,14.7c-4.6,3.2-30.9,6.6-31.2,11.3
				c-0.3,4.7,23.9,5.1,29.4,4.1c15.4-2.9,42.5-2.4,57.5-8.9c8.4-3.6,15.6-28.5,15.6-28.5c-0.6,3.1,17.6,27.6,19.3,32.8
				c-9,7.6-29.5,20.6-29.5,33.3c0,22.9,15.9,33,38.8,33c9,0,17.2-2.9,24-7.7c7.3,8.1,17.8,13.2,29.5,13.2
				c17.2,0,42.5-24.9,48.1-40.2c3.5,2,10.9,16.3,30.6,18c9,0.8,14.7,0.9,14.7-8.2C790.9,321.3,786.8,324.4,777.8,324.4z"/>
			<path fill="#2580AA" d="M347.5,525.8c-45.4-65,42.2,31.9-29.4-23.3c-73.3-56.6-151-98.9-227.1-126.4
				c88,26.2,179.5,72.8,265.1,138.9c64.2,49.6-28.4-54.4,15,3.5"/>
			<g>
				<path fill="#2580AA" d="M105.5,507.8c12.6,17.3,33.1,28.6,56.2,28.6c15.7,0,30.2-5.2,41.9-14c11.7,8.8,26.2,14,41.9,14
					c20.1,0,38.2-8.6,50.9-22.2c12.7,13.7,30.8,22.2,50.9,22.2c16.8,0,32.3-6,44.3-16c31.8-33.1,52.6-74.1,57.6-119.1
					c-86.3,19.5-177,30-270.6,30c-84.8,0-167.2-8.6-246.1-24.7c6.2,44.3,27.7,84.6,59.9,116.9c2.9-2.1,5.7-4.4,8.3-6.9
					c12.5,12.2,29.7,19.8,48.6,19.8C72.5,536.4,92.9,525.1,105.5,507.8z"/>
			</g>
			<g>
				<path fill="#2580AA" d="M675.1,514.1c12.7,13.7,30.8,22.2,50.9,22.2c19.6,0,37.3-8.1,49.9-21.2c12.6,13,30.3,21.2,49.9,21.2
					c12.7,0,24.5-3.4,34.8-9.3c10.2,5.9,22.1,9.3,34.8,9.3c18.9,0,36-7.6,48.6-19.8c12.5,12.2,29.7,19.8,48.6,19.8
					c23.1,0,43.5-11.2,56.2-28.6c12.6,17.3,33.1,28.5,56.1,28.6V425.5l8.7-28.9v-59.7H574.8v59.7l32.8,29.9v107.9
					c5.3,1.3,10.9,2,16.6,2C644.3,536.4,662.4,527.8,675.1,514.1z"/>
			</g>
			<g>
				<path fill="#2580AA" d="M105.5,507.8c12.6,17.3,33.1,28.6,56.2,28.6c15.7,0,30.2-5.2,41.9-14c11.7,8.8,26.2,14,41.9,14
					c20.1,0,38.2-8.6,50.9-22.2c12.7,13.7,30.8,22.2,50.9,22.2c16.8,0,32.3-6,44.3-16c31.8-33.1,52.6-74.1,57.6-119.1
					c-86.3,19.5-177,30-270.6,30c-84.8,0-167.2-8.6-246.1-24.7c6.2,44.3,27.7,84.6,59.9,116.9c2.9-2.1,5.7-4.4,8.3-6.9
					c12.5,12.2,29.7,19.8,48.6,19.8C72.5,536.4,92.9,525.1,105.5,507.8z"/>
			</g>
			<g>
				<g>
					<defs>
						<rect id="SVGID_3_" x="28.7" y="286.5" width="310.2" height="217"/>
					</defs>
					<clipPath id="SVGID_4_">
						<use xlink:href="#SVGID_3_"  overflow="visible"/>
					</clipPath>
					<g clip-path="url(#SVGID_4_)">
						<path fill="#2580AA" d="M51,612c13.1-147.7,27.1-235.8,39.7-235.5c0.1,0,0.3,0,0.4,0.1c-14,1.8-29.6,112-43.9,291"/>
					</g>
				</g>
			</g>
		</g>
	</g>
	<g id="Layer_17">
		<path display="inline" fill="#2580AA" d="M657.5,321.7c8.9,3.6,14.9-5.9,12.6-10.1c-2.3-4.2-12.9-0.7-14.8-2.4
			c-6.5-5.9-13.8-17.5-22-9.6c-2.8,2.7-5.8,4.9-7.1,8.2c-2.3-3.1-7-6.6-10-5.3c-8.8,4,0.5,16,2.3,18.9c2.5,4.1,0.8,6.1-2.3,7.6
			c-4.2,2,3.5,3.7,7.8,2.9c-1.6,3.1-5.2,5.2-7.2,6.3c-0.9,0.5-1.7,1.2-2.3,2.1c-1.5-2.7-10.5-3-13.2-1.5c-2.7,1.5-0.8,5.7,3.4,7
			c2.2,0.7,3.5-0.3,5.4,2.9c-0.6,1.2,0.5,5.4,1.1,6.6c1.1,2,3.1,1.1,5.1,0c1.4-0.8,3-7.2,3-8.7c2.1-0.4,2.5-1,4.3-2
			c0.5-0.3-2.3,3.3-1.5,4.7c1.4,2.5,7.2,11.4,8.6,8.9c1.3-2.4,4.5-7.1,3.6-9.5c1.1,0.2,3.3,3,3.7,3.9c1.2,2.1,3,3.4,5.1,2.2
			c2.1-1.2,1.6-11,2.9-10.5c5.7-2.8,11.2-5.9,11.4-10.5c2.1,1.3,6.9,2.5,9.1,1.1c6.6-4.2,4.7-10.3-0.2-9.9
			C661.5,325.7,656.4,321.3,657.5,321.7z M647.7,311.4c-1.1,0.6-2.8-0.4-3.8-2.3c-1-1.8-1-3.8,0.1-4.4c1.1-0.6,2.8,0.4,3.8,2.3
			C648.8,308.8,648.8,310.8,647.7,311.4z"/>
	</g>
	<g id="me_fish_alone">
		<path display="inline" fill="#2580AA" d="M422.7,424.7c74.2-36.9,83.2-36.9,176.5-51.8c95.6-15.3,188.2-15.2,271.8-2.4
			c-93.9-20-201.3-23-312.9-5.2c-83.8,13.4-84.6,9.4-153.3,40.8"/>
		<path display="inline" fill="#2580AA" stroke="#FFFFFF" stroke-miterlimit="10" d="M868.9,591.9"/>
		<path display="inline" fill="#2580AA" stroke="#FFFFFF" stroke-miterlimit="10" d="M868.9,374.8"/>
		<g display="inline">
			<path fill="#2580AA" d="M908.5,616.6C894.8,462.2,880.2,370,867,370.4c-0.1,0-0.3,0-0.4,0.1c14.6,1.9,31,117.1,45.9,304.3"/>
		</g>
		<path display="inline" fill="#2580AA" d="M543.3,361.5c-11.3,0-49-4.6-49.1-4.6c-8.4-6.3-22-37.3-25.7-41c2-0.6,3.6-1,4.4-1
			c6.8-0.1,9.9,2.1,16,0c8-2.8,10.2-15.6,9.4-20.6c-0.3-1.7-14.6-9.6-10.2-7.6c2.2,1,11,1,12.4-1.7c1.9-3.7-1.3-7.8-1-12.2
			c0.3-4,9.9-2.3,9.9-7.4c0-8.2-9.9-13.7-11.1-21c-0.8-5,6.2-11.1,4.8-15.6c-7.3-22.2-26.5-37.1-53.7-37.1
			c-40.7,0-55.2,33.4-55.2,74.7c0,3.6-0.2,6.7-0.4,9.5c-1.2,15.8,4.6,28.4,10.8,31.3c1.5,0.7,9.1,2,15.4,5.2
			c-12.3,28.1-3.8,46.5-6.7,66c-2.9,19.6-9.5,26.2-9.5,41c0,16,1,27.4,11.9,37.4c-3,4.1-3.3,24-0.7,27.9c-3.4,3-4.7-16.3-3.3-13.9
			c-4.1,5.4-6.6,7.2-6.6,15.8c0,8.7,7.1,15.8,15.8,15.8c1.6,0,5,0.8,6.3,0.4c1.2,4.7,5.5,5.3,10.6,5.3c6.1,0,13.9-2,13.9-8.1
			c0-6.1-7.9-11-13.9-11c-0.1,0-0.1,0-0.2,0c0-4.6-2.2-8.6-5.6-11.2c6-2.4,10.2-16.5,10.1-17.2c8.1-2.2,14.5,25.8,16.9,17.8
			c1.9,1.3,0.7-23.1,0.7-18c0,6.9,3.8,12.9,9.4,16.1c-4.7,3.4-7.8,8.9-7.8,15.1c0,10.3,8.3,18.6,18.6,18.6c5.3,0,10.1-2.2,13.5-5.8
			c2.2,1.8,20.4-2.7,20.4-9.6c0-6.9-15.8-12.1-17.2-11.5c-1.6-3.3-4.2-6-7.4-7.9c4.7-3.4,7.8-8.9,7.8-15.1c0-7.1-4,20.9-9.9,17.8
			c6.1-4.4,0.4-20.5,0.4-28.6c0-2.3,3.9-34.4,4-59.8c8.3-1.5,17.1-2.8,25.6-3.2c14.5-0.7,32.7,9.1,33.4,2.8
			c11.4-3.5,20.6-5.1,20.6-17.6C570.7,356.4,558.8,361.5,543.3,361.5z"/>
		<path display="inline" fill="#2580AA" d="M284,418.2c-0.9-1.6-5.1-12.7-7-13.3c-3.9-1.2-3.6,14.3-3.1,14.4
			c-1.9,1-2.9,16.6-12.5,11.1c-0.8-3.5-5.9-13.9-12.6-24.4c0,0,0,0,0-0.1c3.7-11.8-2.9-24.4-14.7-28.1c-5.8-1.8-11.8-1.1-16.9,1.4
			c-5.5-1.2-11.4-2.2-12.8-2.7c-12.1-3.8-29.8,2.4-28.9,15.1c0.9,12.1,26.4,13.8,26.4,13.8s-36.8-0.3-11.3,15.1c0,0,0,0,0,0
			c0.2,0.5,0.6,1.1,1.1,1.7c-2.7,1.5-5,4-5.3,5.6c-0.5,2.9,3.9,10.2,8.8,13.3c3.5,2.2,4.4-5,5-10.2c10.9,9.9,27.7,22.6,33.6,24.5
			c7,2.2,30.2,15.3,52.1-26.1c0.5-1,9.7-5.5,11.9-10.2C303.8,406.4,286.6,415.9,284,418.2z M200,392.8c-2-0.6-3.2-2.8-2.5-4.8
			c0.6-2,2.8-3.2,4.8-2.5c2,0.6,3.2,2.8,2.5,4.8C204.1,392.3,202,393.4,200,392.8z"/>
		<g display="inline">
			<path fill="#2580AA" d="M278.5,536.9c21,0,40-9,53.3-23.2c13.3,14.3,32.2,23.2,53.3,23.2c20.5,0,39-8.5,52.2-22.1
				c13.2,13.6,31.7,22.1,52.2,22.1c13.2,0,25.7-3.6,36.4-9.8c10.7,6.2,23.1,9.8,36.4,9.8c19.8,0,37.7-7.9,50.8-20.7
				c13.1,12.8,31,20.7,50.8,20.7c6,0,11.8-0.7,17.3-2.1c34.7-41.3,57.2-90.5,63.1-143.9c-115.6,26.2-237,40.1-362.3,40.1
				c-113.5,0-223.8-11.5-329.5-33.1c6.6,47.6,26.5,91.7,56.4,129.6c9.2-5.1,17.1-12.2,23.3-20.6c13.2,18.1,34.6,29.9,58.7,29.9
				c16.5,0,31.6-5.5,43.8-14.7C246.8,531.5,262,536.9,278.5,536.9z"/>
		</g>
	</g>
	<circle display="inline" fill="#2580AA" cx="497" cy="301.1" r="19"/>
	<circle display="inline" fill="#2580AA" cx="514.7" cy="285.3" r="14.7"/>
	<circle display="inline" fill="#2580AA" cx="525.7" cy="266.3" r="12.7"/>
	<circle display="inline" fill="#2580AA" cx="530.7" cy="249.3" r="12.3"/>
	<circle display="inline" fill="#2580AA" cx="536.4" cy="238.4" r="9.9"/>
	<g display="inline">
		
			<ellipse transform="matrix(0.9975 7.082988e-02 -7.082988e-02 0.9975 10.6695 -40.2184)" fill="#2580AA" cx="572.4" cy="130.3" rx="3" ry="31.9"/>
		<path fill="#2580AA" d="M581.8,85.6c-0.5,7.3-5.3,18.3-7,18.2S569,91.3,569.5,84c0.5-7.3,7-10.9,7-10.9S582.3,78.3,581.8,85.6z"/>
	</g>
	<path display="inline" fill="#2580AA" d="M573.9,154.6c-38.2-15.8-63.8,28.9-71.5,50.3c-5,14,17.1,8,25.8,18.8
		c4.6,5.7-8.4,17.9-3,23.6c11.2,11.7,39.8-6.1,52.6-24.9C597.2,194.3,594.9,163.3,573.9,154.6z M541.9,236c-3.3-1.2-5.1-4.9-3.9-8.2
		c1.2-3.3,4.9-5.1,8.2-3.9c3.3,1.2,5.1,4.9,3.9,8.2C548.9,235.5,545.2,237.2,541.9,236z"/>
</g>
<g id="Layer_2">
	<path fill="#2480A9" d="M366.8,181.5c9.2-9.6,12.4-39.9-0.9-39.9c-13.3,0-32,7.2-32,20.5c0,0.3-43.8,19.2-54.4,30.2
		c-2.9,3-26.2-47.9-60.9-59.8c0,0-3.9-13.9-2.7-14.4c2.8-1,12.7-2,22.3,0.9c11.9,3.6,28-17.3,26.8-24.6c-0.4-2.4-24.6-7.3-17.8-12.5
		c0.6-0.4,1.3-0.6,2-0.4c4.3,1.1,15.4,0.8,17.3-2.8c2.8-5.5-1.9-11.4-1.5-18c0.4-5.9,14.5-3.4,14.5-10.9c0-12.1-9.3-14.6-10.9-24.8
		c-1.1-7.4,4.6-17.9,1.6-28.9c-7.3-27-38.2-52.4-77.4-44.8c-38.3,7.5-51,19.4-69.6,60.6c-17.7,39.3-13.9,51.8-9.9,59.3
		c7.2,13.4,46.2,38.7,46.5,40.2c1.8,8.8-4.9,25-6,25.2c-41.3,6.5-56.4,33-59.3,35.5c-10,8.3-26.3,12.3-26.7,12.2
		c-16.2-5.9-27.7-29.1-53-30.9c-11-0.8-36.7-4.8-36.7,6.2c0,4,18.1,30.8,25.1,30.8c1.4,0,18.8,3.2,21.8,5.1
		c14.9,9.2,45.5,36.9,58.9,36.3c16-0.7,47.3-35.7,42.2-22.8c-18.5,47.1-19.6,107.7-19.6,120.4c0,22.6,3.5-10.8,18,0
		c0.9,0.7,1.3,1.9,0.8,3c-3.3,7.8-3.6,30.8-0.8,38c0.3,0.7,0.2,1.6-0.3,2.2c-4,5.6-5.7,22.7-4.4,27.9c0.2,0.7,0,1.5-0.4,2.1
		c-5.5,7.2-8.8,10.1-8.8,22.1c0,12.8,10.4,36.6,23.2,36.6c1.8,0,5.2,0.7,7.5,0.8c1,0,1.9,0.6,2.3,1.5c2.3,5.4,8.1,6.1,15,6.1
		c8.9,0,20.4-2.9,20.4-11.8c0-8.9-11.5-29.5-20.4-29.5c-0.1,0-0.2,0-0.2,0c0-5.6-2.3-10.6-5.9-14.3c-1-1.1-0.9-2.7,0.2-3.6
		c6.3-5.1,10.9-18.2,12-22.4c0.2-0.8,0.9-1.5,1.7-1.7c8.7-2.8,16-8.8,20.4-16.7c1.2-2.2,4.6-1.3,4.6,1.2c0,5.1-0.5,11.4-0.5,15.6
		c0,9,4.4,17,11.1,22c1.2,0.9,1.3,2.7,0.2,3.8c-5.5,5-8.9,12.1-8.9,20.1c0,15.1,12.2,40.7,27.3,40.7c7.3,0,14-2.9,18.9-7.6
		c0.5-0.5,1.1-0.7,1.7-0.7c5.5-0.1,29-18.2,29-27.7c0-9.1-18.8-16.2-24.1-16.9c-0.8-0.1-1.5-0.5-1.9-1.2c-1.9-3.4-4.5-6.3-7.6-8.6
		c-1.2-0.9-1.3-2.7-0.2-3.8c5.5-5,8.9-12.1,8.9-20.1c0-9.4-4.8-17.7-12.1-22.6c-1.1-0.8-1.4-2.3-0.6-3.4
		c5.8-8.3,14.8-25.3,16.6-36.1c6.9-40.5-15.5-106.8-5.9-99.4c10.7,8.3,18,18.6,25.9,17.4c8.2-1.3,28.8-12.8,34.4-17.3
		c18.9-15.2,20.8-17.6,32.7-33.3C338.5,188.9,362.3,186.3,366.8,181.5z"/>
	<g>
		<path fill="#2480A9" d="M283.2,466.6c-0.8-146.4-33.7,32.1,15.1-127.6c49.7-162.6,131.6-309.3,218-433.5
			c-104.7,133.4-193,301.2-251.6,492.1c-44,143.2-21.2-50.4-24.9,83"/>
		<g>
			<defs>
				
					<rect id="SVGID_5_" x="475.7" y="-150.6" transform="matrix(0.9997 -2.401138e-02 2.401138e-02 0.9997 -3.6437 12.8776)" width="117.4" height="617.5"/>
			</defs>
			<clipPath id="SVGID_6_">
				<use xlink:href="#SVGID_5_"  overflow="visible"/>
			</clipPath>
			<g clip-path="url(#SVGID_6_)">
				<path fill="#2480A9" d="M535.4,577.6c9-417.5,3.2-667.8-20-669.2c-0.3,0-0.5,0.1-0.8,0.1c25.3,7.8,29.3,320.2,15.3,826.2"/>
			</g>
		</g>
	</g>
	<path fill="#2780A9" d="M642.4,156.4c15.3,0,29.9,16.4,31.4,20.1c23.6,4.5,36.7,10.3,52.1,13.2c6.6-9.3,9.6-59.4,23.8-73.1
		c13-12.5,29-16.6,42.8-19.3c3.1-1.2,2.9-18.2,4.1-24.2c0.7-3.6-15.5,0.8-24.4-9.1c-5.5-6.2-6.3-23-6.6-26.7
		c-0.1-1.2,6.8,0.5,12.4-1.3c3.6-1.2,6.7-6,6.8-6.8c0.1-1.6-14.6,2.4-19.6-2.6s3.8-17.6,3.8-17.6S744.2,12.3,752.7-7
		c4.8-10.8,14.4-19.3,14.4-19.3s-5-11.7-4.3-15.6c3.7-21.6,16.1-45.1,61.4-45.1s74.5,36.3,69.9,81.4c-3.7,35.9-15,52.7-42.1,70.8
		c-6.1,15.8-5.4,22.4,6,23.9c24.5-0.9,37.9,18.1,43.4,27.7c5.8,10.2,11.3,24.2,14,24.6c3.6,0.5,16.1-15.6,23.2-26.6
		c-3.1-14.8,20.8-38.1,34.7-42.9c15.2-5.3,6,15.5,11.6,31.6c5.7,16.1-7.9,23.3-23.5,27.2c-10.4,2.6-23.9,55.9-37.8,63.8
		c-13.2,7.5-43.9-11.6-45.4-22.2c-3.6,23.7-8,22-5.6,39.9c2.6,18.9,24.4,85.8,25.3,113.4c1.8,55.3-25.6,90.7-80.9,92.1
		c-55.7,1.4-81.3-30.6-81.3-85.9c0-35.2,19.5-74.4,22.8-93.7s0-47.5,8.6-62.4c1.1,12-16.2,53.2-23,53.1c-46.8-0.5-73.9-33.2-80-35
		c-7.1-2.2-24.1,7.7-33-3.9C623.2,179.5,629.4,156.4,642.4,156.4z"/>
	<g>
		<g>
			
				<ellipse transform="matrix(-0.9027 0.4303 -0.4303 -0.9027 1284.5892 26.1774)" fill="#2780A9" cx="639.3" cy="158.3" rx="5.3" ry="56.1"/>
			<path fill="#2780A9" d="M600.5,103.8c5.5,11.5,15.2,13.9,17.8,12.6c2.6-1.3,6.8-11.5,1.3-23c-5.5-11.5-21.5-21-21.5-21
				S595,92.2,600.5,103.8z"/>
		</g>
		<g>
			
				<rect x="627.5" y="132.7" transform="matrix(-0.625 0.7806 -0.7806 -0.625 1164.6395 -215.0268)" fill="#2780A9" width="12.9" height="79.1"/>
			<path fill="#2780A9" d="M607.7,157.6l6.2-7.7c4-5,3.2-12.2-1.8-16.2l-20.5-19.6c-1.4-3.1-7.1-3.7-9.5-0.7l-15.5,19.3
				c-3,3.7-2.4,9.2,1.4,12.2l23.9,14.4C596.7,163.3,603.8,162.5,607.7,157.6z"/>
		</g>
		<polygon fill="#2780A9" points="663.5,104.2 658,184 657.2,194.4 649.2,193.9 649.9,183.4 655.4,103.7 660.5,88.1 		"/>
	</g>
	<g>
		<path fill="#2480A9" d="M1022.1,427.2c-61.6-125.4-7.2,36.7-31.7-120.8c-25-161.3-24.2-317.3-1.9-458.2
			c-34.4,158.1-40.3,339.1-11.1,527.4c21.9,141.3-39.2-34.5,13.2,81.6"/>
		<g>
			<defs>
				
					<rect id="SVGID_7_" x="956.2" y="-206.7" transform="matrix(0.9991 -4.277643e-02 4.277643e-02 0.9991 -2.8408 43.379)" width="112.1" height="589.5"/>
			</defs>
			<clipPath id="SVGID_8_">
				<use xlink:href="#SVGID_7_"  overflow="visible"/>
			</clipPath>
			<g clip-path="url(#SVGID_8_)">
				<path fill="#2480A9" d="M1020.6,488.4c1.1-398.6-8.9-637.4-31.1-638.3c-0.3,0-0.5,0.1-0.8,0.1c24.2,7,33.7,305.1,29.4,788.2"/>
			</g>
		</g>
	</g>
	<g>
		<path fill="#2480A9" d="M606,470.2c12,11.7,28.3,18.9,46.3,18.9c22,0,41.5-10.7,53.6-27.2c12.1,16.5,31.6,27.2,53.6,27.2
			c15,0,28.8-5,40-13.4c11.1,8.4,24.9,13.4,40,13.4c19.2,0,36.5-8.2,48.6-21.2c12.1,13,29.4,21.2,48.6,21.2
			c18.7,0,35.6-7.7,47.6-20.2c12.1,12.4,28.9,20.2,47.6,20.2c12.1,0,24.4-14.2,34.2-19.9c9.8,5.6,20.1,19.9,32.2,19.9
			c18,0,159.5-250.3,162.5-277.6c-123.3,27.9-387,104.8-748.8,106.6C225.4,319.5-6.8,270-119.5,247c7.1,50.8,19.6,201.2,51.5,241.6
			c9.8-5.5,18.3-13,24.9-22c14.1,19.3,36.9,31.9,62.7,31.9c17.6,0,33.7-5.8,46.8-15.7c13,9.8,29.2,15.7,46.8,15.7
			c22.5,0,42.7-9.6,56.8-24.8c14.2,15.3,34.4,24.8,56.8,24.8c21.9,0,41.6-9.1,55.7-23.6c14.1,14.5,33.8,23.6,55.7,23.6
			c14.1,0,27.4-3.8,38.8-10.4c11.4,6.6,24.7,10.4,38.8,10.4c21.1,0,40.2-8.4,54.2-22.1c14,13.7,33.2,20.6,54.2,22.1
			C591.2,503.2,606,470.2,606,470.2z"/>
	</g>
	<path fill="#2480A9" d="M-39.9,154c-20.6-4-82.4-15-99.9-15.5c-44.3-1.3-56.5,18.4-64.1,57.6c-7.6,39.3-2.8,76.9,36.5,84.5
		c13.7,2.7,184.7,16.2,193.4-29C34.8,206.5,5.3,162.7-39.9,154z"/>
	
		<rect x="-58" y="-59.6" transform="matrix(0.9811 -0.1936 0.1936 0.9811 -15.0539 -9.131)" fill="#2480A9" width="7.5" height="264"/>
	<g>
		<g>
			<path fill="#2480A9" d="M-51.4,73.3c-85.3-7.7-169.2-0.4-248.1,20.6C-291,41-282.7-11.4-274.8-63.3
				c67.5-2.9,135.8,5.8,202.2,25.9C-65.1-0.8-58,36.1-51.4,73.3z"/>
			<path fill="#FFFFFF" d="M-173.5-35.2c-24.4-2.7-46.6,17.1-49.6,42.4c-3,25.4,17.1,43,45.6,41.5c28.5-1.5,51.4-18.2,50.4-39.3
				C-128.2-11.7-149.1-32.6-173.5-35.2z M-218.3,7c0.6-5.9,2.5-11.5,5.3-16.5c4.9,17.4,10.3,34.4,16.1,51
				C-211.4,36.2-220,23.1-218.3,7z M-177.3,44.5c-4.5,0.2-8.8-0.2-12.8-1c5.3-11.5,10.4-22.7,15.3-33.6c3.9,10.7,8.1,21.2,12.4,31.6
				c0.1,0.2,0.2,0.4,0.3,0.5C-166.8,43.4-171.9,44.3-177.3,44.5z M-168.7-10.7c2.5,0,4.8,0,4.8,0c2.3-0.1,2.1-3-0.2-3.1
				c0,0-6.8,0-11.2-0.2c-4.1-0.2-11-1-11-1c-2.2-0.2-2.7,3-0.5,3.2c0,0,2.1,0.3,4.4,0.5c1.9,5.5,3.8,11,5.8,16.4
				c-3.5,8.2-7.2,16.6-11.1,25.1c-4.5-13.8-8.7-27.7-12.6-42c2.5-0.1,4.8-0.3,4.8-0.3c2.3-0.2,2.2-3.3,0-3.2c0,0-6.8,0.3-11.1,0.3
				c-0.8,0-1.7,0-2.7-0.1c8.5-10.8,21.4-17.1,35.5-15.9c10.6,0.9,20.1,5.7,27.5,12.4c-0.2,0-0.4-0.1-0.5-0.1c-4.1-0.5-7,2.4-7,5.7
				c0,3,1.9,5.7,4.1,8.9c1.6,2.5,3.5,5.8,3.5,10.2c0,3.1-1.4,6.6-3.4,11.5c-1.5,4-3,8-4.6,12C-159.3,16.3-164.1,2.9-168.7-10.7z
				 M-137.6-8.5c3.4,5.4,5.4,11.3,5.6,17.5c0.4,13-8.4,23.7-22.1,30.1c4.9-10.8,9.5-21.2,13.8-31.4c2.4-4.9,3.2-8.9,3.1-12.4
				C-137.3-6.2-137.4-7.4-137.6-8.5z"/>
		</g>
	</g>
</g>
</svg>
