<?xml version="1.0" encoding="utf-8"?>
<!-- Generator: Adobe Illustrator 18.0.0, SVG Export Plug-In . SVG Version: 6.00 Build 0)  -->
<!DOCTYPE svg PUBLIC "-//W3C//DTD SVG 1.1//EN" "http://www.w3.org/Graphics/SVG/1.1/DTD/svg11.dtd">
<svg version="1.1" id="Layer_1" xmlns="http://www.w3.org/2000/svg" xmlns:xlink="http://www.w3.org/1999/xlink" x="0px" y="0px"
	 viewBox="0 292 612 254" enable-background="new 0 292 612 254" xml:space="preserve">
<g>
	<g>
		<g>
			<path fill="#52BE61" d="M182.1,428.7c1.7-1.5,3.4-3,5-4.5c1.6-1.6,3.2-3.1,4.7-4.7c0,0,1.1,0.3,2.1,0.6c0.5,0.1,1.1,0.3,1.5,0.4
				c0.4,0.1,0.7,0.2,0.7,0.2s-0.5,0.5-1.2,1.3c-0.7,0.8-1.6,1.8-2.6,2.8c-1,1-1.9,2-2.7,2.7c-0.7,0.7-1.2,1.2-1.2,1.2s0.3,0.1,1,0.3
				s1.5,0.4,2.6,0.7c0.5,0.1,1.1,0.3,1.7,0.4c0.3,0.1,0.6,0.2,0.9,0.2c0.2,0,0.3,0.1,0.5,0.1c0.2,0,0.4,0.1,0.6,0.1
				c3.6,0.8,7.4,1.6,11.3,2.1c3.9,0.6,7.8,1,11.8,1.2c8,0.5,16,0.3,23.4-0.5c3.7-0.4,7.3-0.9,10.7-1.6c3.4-0.6,6.5-1.3,9.4-2.1
				c0.4-0.1,0.7-0.2,1.1-0.3c0.3-0.1,0.7-0.2,1-0.3c0.7-0.2,1.4-0.4,2-0.6c0.7-0.2,1.3-0.4,1.9-0.6c0.3-0.1,0.6-0.2,0.9-0.3
				c0.3-0.1,0.6-0.2,0.9-0.3c1.2-0.4,2.2-0.7,3.2-1.1c1-0.3,1.9-0.7,2.7-1c0.8-0.3,1.5-0.6,2.2-0.8c0.6-0.3,1.2-0.5,1.6-0.7
				c0.9-0.3,1.3-0.6,1.3-0.6l1.6,3.8c0,0-0.5,0.2-1.4,0.6c-0.4,0.2-1,0.4-1.6,0.7c-0.7,0.3-1.4,0.5-2.2,0.9c-0.8,0.3-1.8,0.6-2.8,1
				s-2.1,0.7-3.3,1.1c-0.3,0.1-0.6,0.2-0.9,0.3c-0.3,0.1-0.6,0.2-0.9,0.3c-0.6,0.2-1.3,0.4-2,0.6c-0.7,0.2-1.4,0.4-2.1,0.6
				c-0.3,0.1-0.7,0.2-1.1,0.3c-0.4,0.1-0.7,0.2-1.1,0.3c-3,0.8-6.2,1.5-9.7,2.1c-3.5,0.6-7.2,1.2-11,1.6c-7.6,0.8-15.9,1-24.1,0.6
				c-4.1-0.2-8.2-0.7-12.2-1.2c-4-0.6-7.9-1.3-11.6-2.2c-0.2,0-0.4-0.1-0.6-0.1c-0.2,0-0.3-0.1-0.5-0.1c-0.3-0.1-0.7-0.2-1-0.2
				c-0.6-0.2-1.2-0.3-1.8-0.5c-1.1-0.3-2-0.6-2.7-0.7c-0.6-0.2-1-0.3-1-0.3s0.2,0.7,0.4,1.7c0.3,1,0.6,2.4,1,3.7
				c0.4,1.4,0.8,2.7,1.1,3.7c0.3,1,0.6,1.7,0.6,1.7s-0.3-0.1-0.8-0.2c-0.5-0.1-1.1-0.3-1.7-0.4c-1.2-0.3-2.5-0.7-2.5-0.7
				c-0.6-2.2-1.2-4.5-1.8-6.7C183.1,433.1,182.6,430.9,182.1,428.7z"/>
		</g>
	</g>
</g>
<g>
	<g>
		<g>
			<path fill="#52BE61" d="M294.9,388c-3.7,2.6-7.3,5.2-10.7,8.1c0,0-0.3-0.1-0.6-0.3c-0.4-0.2-0.9-0.4-1.4-0.6
				c-1-0.4-2.1-0.8-2.1-0.8s2.1-1.8,4.2-3.6c2.1-1.7,4.3-3.4,4.3-3.4s-0.3-0.1-0.9-0.4c-0.3-0.1-0.7-0.3-1.1-0.5
				c-0.2-0.1-0.4-0.2-0.7-0.3c-0.2-0.1-0.5-0.2-0.7-0.3c-0.5-0.2-1.1-0.4-1.7-0.6c-0.3-0.1-0.6-0.2-0.9-0.3
				c-0.1-0.1-0.3-0.1-0.5-0.2c-0.1,0-0.2-0.1-0.2-0.1c-0.1,0-0.2-0.1-0.3-0.1c-3.9-1.4-8-2.7-12.1-3.9c-4.2-1.1-8.5-2.1-12.9-2.8
				c-4.3-0.7-8.7-1.3-13.1-1.6c-4.3-0.3-8.6-0.5-12.7-0.4c-1,0-2.1,0.1-3.1,0.1c-0.5,0-1,0-1.5,0c-0.5,0-1,0.1-1.5,0.1
				c-2,0.1-3.9,0.3-5.8,0.4c-3.8,0.3-7.4,0.8-10.7,1.3c-6.6,1-12.1,2-15.9,2.7c-3.9,0.7-6,1.1-6,1.1l-0.8-4.1c0,0,2.2-0.4,6.1-1.1
				c1.9-0.3,4.3-0.8,7-1.2c2.7-0.5,5.8-1,9.1-1.4c3.4-0.5,7-0.9,10.9-1.3c1.9-0.2,3.9-0.3,6-0.4c0.5,0,1-0.1,1.5-0.1s1,0,1.6,0
				c1,0,2.1-0.1,3.2-0.1c4.3,0,8.7,0.1,13.1,0.4c4.5,0.4,8.9,0.9,13.4,1.7c4.5,0.8,8.9,1.8,13.2,2.9c4.3,1.2,8.5,2.5,12.5,4
				c0.1,0,0.2,0.1,0.3,0.1c0.1,0,0.2,0.1,0.2,0.1c0.2,0.1,0.3,0.1,0.5,0.2c0.3,0.1,0.6,0.2,0.9,0.4c0.6,0.2,1.2,0.5,1.7,0.7
				c0.3,0.1,0.5,0.2,0.8,0.3c0.2,0.1,0.5,0.2,0.7,0.3c0.4,0.2,0.8,0.3,1.1,0.5c0.6,0.3,1,0.4,1,0.4s-0.3-2.8-0.8-5.6
				c-0.4-2.8-1-5.6-1-5.6s1.2,0.5,2.4,0.9c0.6,0.2,1.2,0.5,1.7,0.7c0.4,0.2,0.8,0.3,0.8,0.3C294,378.9,294.5,383.5,294.9,388z"/>
		</g>
	</g>
</g>
<g>
	<path d="M9.3,321.1h12.9v3.5h-8.8v6.4h7.4v3.5h-7.4v9.1H9.3V321.1z"/>
	<path d="M25.1,327.4H29v2.8c0,0.6-0.1,1.1-0.1,1.1H29c0.7-2.3,2.7-4.1,5.1-4.1c0.4,0,0.7,0.1,0.7,0.1v4c0,0-0.4-0.1-0.9-0.1
		c-1.7,0-3.6,1-4.4,3.4c-0.3,0.8-0.3,1.7-0.3,2.6v6.4h-4V327.4z"/>
	<path d="M45.2,327.1c4.9,0,8.9,3.5,8.9,8.4c0,5-4,8.4-8.9,8.4c-4.9,0-8.9-3.5-8.9-8.4C36.3,330.6,40.3,327.1,45.2,327.1z
		 M45.2,340.5c2.6,0,4.8-2,4.8-5c0-3-2.2-5-4.8-5c-2.6,0-4.8,2.1-4.8,5C40.4,338.5,42.6,340.5,45.2,340.5z"/>
	<path d="M57.3,327.4h3.9v1.9c0,0.6-0.1,1.1-0.1,1.1h0.1c0.7-1.4,2.5-3.4,5.7-3.4c3.6,0,5.6,1.9,5.6,6.1v10.4h-4V334
		c0-2-0.5-3.3-2.6-3.3c-2.1,0-3.7,1.4-4.3,3.3c-0.2,0.7-0.3,1.4-0.3,2.1v7.4h-4V327.4z"/>
	<path d="M77.3,330.9h-2.1v-3.2h2.2v-4.6h3.9v4.6H85v3.2h-3.7v6.3c0,2.7,2.1,3,3.2,3c0.4,0,0.7-0.1,0.7-0.1v3.5c0,0-0.5,0.1-1.2,0.1
		c-2.2,0-6.7-0.7-6.7-6.1V330.9z"/>
	<path d="M88.8,332.8h9.5v3.5h-9.5V332.8z"/>
	<path d="M110.1,327.1c4.6,0,7.1,3.4,7.1,7.6c0,0.5-0.1,1.5-0.1,1.5H106c0.3,2.8,2.4,4.3,4.8,4.3c2.6,0,4.6-1.8,4.6-1.8l1.5,2.9
		c0,0-2.5,2.3-6.5,2.3c-5.3,0-8.7-3.9-8.7-8.4C101.9,330.5,105.2,327.1,110.1,327.1z M113.1,333.5c-0.1-2.2-1.4-3.4-3.2-3.4
		c-2.1,0-3.5,1.3-3.9,3.4H113.1z"/>
	<path d="M120.5,327.4h3.9v1.9c0,0.6-0.1,1.1-0.1,1.1h0.1c0.7-1.4,2.5-3.4,5.7-3.4c3.6,0,5.6,1.9,5.6,6.1v10.4h-4V334
		c0-2-0.5-3.3-2.6-3.3c-2.1,0-3.7,1.4-4.3,3.3c-0.2,0.7-0.3,1.4-0.3,2.1v7.4h-4V327.4z"/>
	<path d="M146.1,327.1c3.5,0,4.6,2.1,4.6,2.1h0.1c0,0,0-0.4,0-0.9v-7.1h4v22.4H151v-1.3c0-0.6,0.1-1,0.1-1H151c0,0-1.4,2.8-5.1,2.8
		c-4.4,0-7.1-3.4-7.1-8.4C138.8,330.4,141.8,327.1,146.1,327.1z M146.8,340.6c2.1,0,4-1.5,4-5.1c0-2.5-1.3-5-4-5c-2.2,0-4,1.8-4,5
		C142.8,338.6,144.5,340.6,146.8,340.6z"/>
</g>
<g>
	<path d="M351.6,321.1h8c4,0,6.9,2.1,6.9,5.8c0,2.1-1,3.9-2.7,4.8v0.1c2.5,0.7,3.6,3,3.6,5.3c0,4.5-3.6,6.5-7.7,6.5h-8.1V321.1z
		 M359.6,330.3c1.8,0,2.8-1.3,2.8-2.9s-0.9-2.8-2.8-2.8h-3.9v5.7H359.6z M360,340.1c2.1,0,3.3-1.4,3.3-3.3c0-1.9-1.2-3.2-3.3-3.2
		h-4.4v6.5H360z"/>
	<path d="M379.4,333.5h0.5v-0.2c0-2.1-1.3-2.8-3.1-2.8c-2.3,0-4.4,1.5-4.4,1.5l-1.5-2.9c0,0,2.5-2,6.3-2c4.2,0,6.7,2.3,6.7,6.4v10.1
		h-3.7v-1.3c0-0.6,0.1-1.1,0.1-1.1h-0.1c0,0-1.2,2.8-4.9,2.8c-2.9,0-5.5-1.8-5.5-5C369.9,333.8,376.8,333.5,379.4,333.5z
		 M376.3,340.8c2.1,0,3.6-2.3,3.6-4.2v-0.4h-0.7c-2.1,0-5.4,0.3-5.4,2.5C373.9,339.8,374.7,340.8,376.3,340.8z"/>
	<path d="M395.7,327.1c4.2,0,6.2,2.4,6.2,2.4l-1.8,2.8c0,0-1.7-1.7-4.2-1.7c-3,0-4.9,2.2-4.9,5c0,2.7,2,5.1,5,5.1
		c2.7,0,4.7-2.1,4.7-2.1l1.5,2.8c0,0-2.3,2.6-6.6,2.6c-5.3,0-8.8-3.8-8.8-8.4C386.9,330.9,390.3,327.1,395.7,327.1z"/>
	<path d="M405.3,321.1h4v12h2l3.9-5.7h4.5l-5.1,7.2v0.1l5.7,8.9h-4.6l-4.3-7h-2.1v7h-4V321.1z"/>
	<path d="M422.8,332.8h9.5v3.5h-9.5V332.8z"/>
	<path d="M444.1,327.1c4.6,0,7.1,3.4,7.1,7.6c0,0.5-0.1,1.5-0.1,1.5H440c0.3,2.8,2.4,4.3,4.8,4.3c2.6,0,4.6-1.8,4.6-1.8l1.5,2.9
		c0,0-2.5,2.3-6.5,2.3c-5.3,0-8.7-3.9-8.7-8.4C435.9,330.5,439.2,327.1,444.1,327.1z M447.2,333.5c-0.1-2.2-1.4-3.4-3.2-3.4
		c-2.1,0-3.5,1.3-3.9,3.4H447.2z"/>
	<path d="M454.5,327.4h3.9v1.9c0,0.6-0.1,1.1-0.1,1.1h0.1c0.7-1.4,2.5-3.4,5.7-3.4c3.6,0,5.6,1.9,5.6,6.1v10.4h-4V334
		c0-2-0.5-3.3-2.6-3.3c-2.2,0-3.7,1.4-4.3,3.3c-0.2,0.7-0.3,1.4-0.3,2.1v7.4h-4V327.4z"/>
	<path d="M480.1,327.1c3.5,0,4.6,2.1,4.6,2.1h0.1c0,0,0-0.4,0-0.9v-7.1h4v22.4H485v-1.3c0-0.6,0.1-1,0.1-1H485c0,0-1.4,2.8-5.1,2.8
		c-4.4,0-7.1-3.4-7.1-8.4C472.8,330.4,475.8,327.1,480.1,327.1z M480.8,340.6c2.1,0,4-1.5,4-5.1c0-2.5-1.3-5-4-5c-2.2,0-4,1.8-4,5
		C476.8,338.6,478.5,340.6,480.8,340.6z"/>
</g>
<g>
	<path d="M556.9,455.6c0,1.5-1.5,3.1-3.1,3.1s-3.1-1.5-3.1-3.1v-24.7c0-1.5,1.5-3.1,3.1-3.1s3.1,1.5,3.1,3.1V455.6z M597.1,350.6
		h-55.6v185.4h55.6c3.4,0,6.2-2.8,6.2-6.2v-173C603.2,353.4,600.5,350.6,597.1,350.6z"/>
	<path d="M513.7,356.8v173c0,3.4,2.8,6.2,6.2,6.2h18.5V350.6h-18.5C516.4,350.6,513.7,353.4,513.7,356.8z"/>
	<path d="M374.6,495.2c0-0.9,0.6-1.5,1.5-1.5c0.9,0,1.5,0.6,1.5,1.5v12.4c0,0.9-0.6,1.5-1.5,1.5c-0.9,0-1.5-0.9-1.5-1.5V495.2z
		 M371.6,535.9h43.2v-69.5h-43.2V535.9z"/>
	<path d="M362.3,495.2c0-0.9,0.6-1.5,1.5-1.5c0.9,0,1.5,0.6,1.5,1.5v12.4c0,0.9-0.6,1.5-1.5,1.5c-0.9,0-1.5-0.9-1.5-1.5V495.2z
		 M325.2,535.9h43.2v-69.5h-43.2V535.9z"/>
	<path d="M411.7,458.7h-83.4c-1.5,0-3.1,1.5-3.1,3.1v3.1h89.6v-3.1C414.8,460.3,413.3,458.7,411.7,458.7z"/>
	<path d="M433.3,500.4h61.8v24.7h-61.8V500.4z M433.3,486.5h61.8v9.3h-61.8V486.5z M419.4,535.9H509v-60.2h-89.6V535.9z"/>
	<path d="M436.4,463.3c1.5,0,3.1,1.5,3.1,3.1c0,1.5-1.5,3.1-3.1,3.1c-1.5,0-3.1-1.5-3.1-3.1C433.3,464.9,434.9,463.3,436.4,463.3z
		 M448.8,463.3c1.5,0,3.1,1.5,3.1,3.1c0,1.5-1.5,3.1-3.1,3.1s-3.1-1.5-3.1-3.1C445.7,464.9,447.2,463.3,448.8,463.3z M476.6,465.2
		c0-0.9,0.6-1.5,1.5-1.5h15.4c0.9,0,1.5,0.6,1.5,1.5v2.5c0,0.9-0.6,1.5-1.5,1.5h-15.4c-0.9,0-1.5-0.6-1.5-1.5V465.2z M419.4,474.2
		H509v-15.4h-89.6V474.2z"/>
	<path d="M346.8,424.7h30.9v24.7h-30.9V424.7z M387,438.6c1.5,0,3.1,1.5,3.1,3.1s-1.5,3.1-3.1,3.1c-1.5,0-3.1-1.5-3.1-3.1
		S385.5,438.6,387,438.6z M387,426.3c1.5,0,3.1,1.5,3.1,3.1c0,1.5-1.5,3.1-3.1,3.1c-1.5,0-3.1-1.5-3.1-3.1
		C383.9,427.8,385.5,426.3,387,426.3z M345.3,455.6h49.4c1.5,0,3.1-1.5,3.1-3.1v-30.9c0-1.5-1.5-3.1-3.1-3.1h-49.4
		c-1.5,0-3.1,1.5-3.1,3.1v30.9C342.2,454.1,343.7,455.6,345.3,455.6z"/>
	<path d="M421.6,435.5h2.5v10.8c0,5.2,4,9.3,9.3,9.3h18.5c5.2,0,9.3-4,9.3-9.3v-10.8h2.5c1.2,0,2.5-0.9,2.5-2.5
		c0-1.5-1.3-2.2-2.5-2.2c-13.9,0-27.8,0-41.7,0c-1.2,0-2.5,0.9-2.5,2.5C419.4,434.9,420.4,435.5,421.6,435.5z"/>
	<path d="M445.7,425.7c-0.3-1.2-1.5-2.5-3.1-2.5s-2.8,0.9-3.1,2.5c-9,0.3-15.4,1.8-15.4,3.7c12.4,0,24.7,0,37.1,0
		C461.1,427.5,454.4,426,445.7,425.7z"/>
</g>
<g>
	<g>
		<path d="M74,388.7c0,6.7-5.5,12.2-12.2,12.2c-6.7,0-12.2-5.5-12.2-12.2c0-6.7,5.5-12.2,12.2-12.2C68.5,376.5,74,382,74,388.7z"/>
		<path d="M68.5,403.9c0-1.5-0.6-2.2-0.6-2.2l-4.5,1.1c-0.3-0.5-0.9-0.9-1.6-0.9c-0.7,0-1.3,0.4-1.6,0.9l-4.4-1.1
			c0,0-0.6,0.7-0.6,2.2c0,1.6,0.6,2.2,0.6,2.2l4.5-1.1c0.4,0.5,0.9,0.8,1.5,0.8c0.6,0,1.2-0.3,1.5-0.8l4.6,1.1
			C68,406.2,68.5,405.5,68.5,403.9z"/>
		<path d="M114.8,411.3L114.8,411.3c0.6-1.5,0.5-3.2-0.5-4.6c-1.5-2.1-4.5-2.5-6.5-1c-0.5,0.3-0.8,0.8-1.1,1.2l0,0l-0.1,0.1
			c0,0-0.1,0.1-0.1,0.2l-7.5,13l-10.5-13.3c-0.8-1.2-2.2-2-3.7-2l-0.2-0.1H70.8l-7.1,26.9h3V463H47.3v-31.3H47h13.6l-7.1-26.9H36.8
			c0,0-0.1,0-0.1,0c-2.5,0-4.6,2-4.7,4.5l0,0v31.1c0,2.8,2.3,5,5,5h3.1l2.4,24.3h2l3.9,56.1c-2.5,1.1-4.3,3.1-4.3,5.5h33.6
			c0-2.6-2.1-4.8-5.1-5.8l4.5-55.7h2l6.3-42.2l9.5,7.4c1.9,2.2,5.2,2.6,7.6,0.8c0.8-0.6,1.4-1.4,1.8-2.3l0,0l10.2-21.6
			c0.1-0.1,0.1-0.2,0.2-0.4L114.8,411.3z"/>
	</g>
	<g>
		<path fill="#39B54A" d="M111.5,389.9c-0.9-3,4-4.9,3.9-1.8c0.5,1.6,0.6,2.6-1.1,2.9C112.8,391.2,111.9,391.4,111.5,389.9z"/>
		<path fill="#39B54A" d="M115,379.8c-0.5,1.7,1.9,1.9,1.3,3.7c1.3,0,0.9-1,1.4-1.8c0.7-1.2,2.2-1.5,2.1-3.1c0.1,3,1.8-0.2,2.9-0.3
			c0.1-0.6-0.2-1.3-0.3-1.6c-0.6-1.2-0.5-2.3-2-1.5c-1.1,0.6-2.5,1.7-1.1,2.8C117.9,378.1,115.5,378.1,115,379.8z"/>
		<path fill="#39B54A" d="M111.5,375.5c-0.6,0.4-0.9,1.7-1.1,2.4c-0.3,1.2-0.2,5,1.8,4.4c1.1-0.3,0.9-2.1,1.4-3
			c0.3-0.6,0.7-0.5,0.9-1.2c0.1-0.5-0.2-1.2-0.2-1.7c0.8,2,3.7,1.1,3-0.9c-0.6-0.5-1.8-0.9-2.5-0.5c-1.1,0.6-0.1,1.2-1,1.3
			C113.2,376.3,112.7,374.8,111.5,375.5z"/>
		<path fill="#39B54A" d="M114.7,383.9c-0.8-2.7-5.7,1.2-4.8,2.9c0.7,1.2,1.8-0.9,2.5-1.2C113.4,385.1,114.9,385.5,114.7,383.9z"/>
		<path fill="#39B54A" d="M116.6,373.9c0.8,0.3,1.6,0.3,1.4-0.8c-1.1-0.9-4.2-1.2-4.1,0.9C114.7,373.8,115.7,373.5,116.6,373.9z"/>
		<path fill="#39B54A" d="M118.7,384.5c0.8-0.6,2.2-0.5,2-1.9c-1.4-3.1-3.9,3.1-4.2,4.2C117.5,386.4,117.8,385.2,118.7,384.5z"/>
		<path fill="#39B54A" d="M124.6,388.6c0.5,0.9,2.5,0.3,3.6-0.2c1.4-0.7,1.7-1.6,1.4-3.1C128.5,381.5,123.3,386.1,124.6,388.6z"/>
		<path fill="#39B54A" d="M121.4,390.2c1.1-1,0.9-4.1,0.7-5.4c-1.2-0.2-2.6,0.3-3.5,1.2c-0.6,0.6-2.4,3.6-1.7,4.5
			C117.4,391.1,121,390.5,121.4,390.2z"/>
		<path fill="#39B54A" d="M128.1,382.6c0.9-0.2,0.6-1.6,0.4-2.5c-0.1-2.2-2.5-0.4-2,1.2C126.6,381.9,127.3,382.8,128.1,382.6z"/>
		<path fill="#39B54A" d="M121.8,382.6c0.4,0.7,1.3,0.7,1.5,1.9c0.3,1.3-0.3,2.8-0.1,4.1c0.9-0.7,0.7-3.2,1.5-4.4
			c0.4-0.7,1-0.8,1-1.6c0-0.6-0.5-1.3-0.8-1.8c0.9,0,1.8-3.2,0.5-3.1c-0.6-0.9-1.4-1.1-1.7-0.1c-0.3,1.1,1,2.1,1.3,3
			C123.4,379.7,120.7,380.4,121.8,382.6z"/>
		<path fill="#39B54A" d="M103.2,382.3c0.6,0,0.5,0.5,1.1,0.3c0.6-0.3,1-1.4,1.4-1.9c0.6-2.8-5.1-2.4-4.6,1
			C101.3,383,101.9,382.3,103.2,382.3z"/>
		<path fill="#39B54A" d="M100.6,379c-0.2-1.2-1.9-1.5-2.4-0.4C97.9,379.4,100.4,381.8,100.6,379z"/>
		<path fill="#39B54A" d="M100,385.9c-0.4,0.8-0.5,1.8-0.5,2.7c0.1,1.6,0.3,1.2,1.4,1.6c0.6,0.2,1.6,0.8,2.2,0.7
			c1.3-0.2,0.7-0.6,0.5-1.5c-0.2-0.8-0.7-1.5-0.7-2.3c0-1.1,0.9-1.8,0.8-3C103,381.5,100.5,384.9,100,385.9z"/>
		<path fill="#39B54A" d="M95.3,382.8c0.6,0.2,0.8,1.2,1.3,1.4c0.5,0.1,1-0.6,1.8-0.5c0.7,0.1,0.8,1.4,1.5,0.3
			c0.4-0.7,0.3-1.4,0-2.1c-1.5-1.4-3.3-2.2-5.2-1.2c-0.4,0.2-2,0.6-1.2,1.3C94.4,382.7,94.6,382.5,95.3,382.8z"/>
		<path fill="#39B54A" d="M112.6,372.9c-0.9-1.7-5.7-1.8-4.8,0.9C108.5,375.6,112.9,375.1,112.6,372.9z"/>
		<path fill="#39B54A" d="M95.1,383.6c-1.1,0.6-2.2,1.6-1.6,3c1.1,2.5,1.5,1.1,2.2-0.4c0.2,1,0,2.1,1,2.6c1.2,0.6,1.7,0,1.8-1.2
			c0.1-0.8,0.6-2.8-0.4-3.1c-0.7-0.2-1.6,1.1-2.3,1.3c0.1-0.4,0.2-0.8,0.4-1.1C96,384.1,95.5,383.9,95.1,383.6z"/>
		<path fill="#39B54A" d="M107.2,379.3c0.2,1.1-1.3,2.7-1.8,3.5c0.4-0.2,0.4,0,0.8-0.4c0,0.6,0.1,1.1,0.1,1.7
			c1.5-0.2,1.9,1.4,3.1-0.5c1.1-1.8,0-2.6-1.9-2.4c0.4-1,1.3-0.1,1.6-1.2c0.2-1.1,0.2-2.2,0.5-3.4c-0.5-0.5-1.6-1.3-2.3-1.1
			c-0.5,0.2-1.7,1.6-1.6,2.1C105.8,378.4,107,378.3,107.2,379.3z"/>
		<path fill="#39B54A" d="M104.5,386.9c-1.1,1.5,0.4,1.5,1,2.2c0.6,0.7,0.4,1.6,1.2,1.8c0.6,0.1,1.8,0.6,2.4,0.2
			c1.2-0.9-0.3-3.3-0.9-4.3C107.4,385.7,105.3,385.8,104.5,386.9z"/>
		<path d="M133.9,386.8c0-1.6-0.9-3.1-2.5-4.4c-0.7,0.4-1.4,0.8-2.1,1.1c1,0.8,1.6,1.6,1.6,2.5c0,3.5-8.6,6.3-19.3,6.3
			s-19.3-2.8-19.3-6.3c0-1,0.7-1.9,2-2.7l-2-1.3c-1.9,1.4-3,3.1-3,4.8c0,0.1,0,0.2,0,0.3h0c0.1,3.8,1.3,7.7,3.2,11.4
			c0,0,4.7,9.2,19,9.2s19-9.3,19-9.3c1.9-3.7,3.2-7.6,3.3-11.3h0C133.9,387,133.9,386.9,133.9,386.8z"/>
		<path fill="#39B54A" d="M106.3,374.8c0.7-2.6-5.5-0.1-4.4,2.7C102.7,379.5,105.7,375.8,106.3,374.8z"/>
	</g>
</g>
<g>
	<path fill-opacity="0.1" d="M73.6,387.2c0-6.4-5.2-11.7-11.7-11.7s-11.7,5.2-11.7,11.7h3.3c0-4.6,3.7-8.3,8.3-8.3s8.3,3.7,8.3,8.3"
		/>
	
		<radialGradient id="SVGID_1_" cx="-0.5555" cy="791.6417" r="6.117689e-02" gradientTransform="matrix(245.3452 0 0 -245.3452 198.1459 194601.8281)" gradientUnits="userSpaceOnUse">
		<stop  offset="0.1" style="stop-color:#7FB3DF"/>
		<stop  offset="0.9" style="stop-color:#0F5B94"/>
	</radialGradient>
	
		<radialGradient id="SVGID_2_" cx="-0.5555" cy="791.6479" r="7.369815e-02" gradientTransform="matrix(245.3452 0 0 -245.3452 198.1459 194601.8281)" gradientUnits="userSpaceOnUse">
		<stop  offset="0" style="stop-color:#F6F0EE"/>
		<stop  offset="1" style="stop-color:#DDDDDD"/>
	</radialGradient>
	<circle fill="url(#SVGID_1_)" stroke="url(#SVGID_2_)" stroke-width="0.6758" cx="61.9" cy="383.8" r="7.5"/>
	
		<radialGradient id="SVGID_3_" cx="-1.164714e-02" cy="791.2535" r="3.058845e-02" gradientTransform="matrix(526.1292 0 0 -346.6912 68.6581 274685.8125)" gradientUnits="userSpaceOnUse">
		<stop  offset="0" style="stop-color:#F06B59"/>
		<stop  offset="1" style="stop-color:#DF2227"/>
	</radialGradient>
	<path fill="url(#SVGID_3_)" d="M78.6,375.6c-4.6-9.2-15.8-13-25-8.4c-2.9,1.4-5.3,3.6-7.1,6.2l7.5,13c-1.4-4.4,1.1-9.1,5.5-10.5
		c0.8-0.2,1.6-0.4,2.4-0.4"/>
	
		<radialGradient id="SVGID_4_" cx="0.1042" cy="791.7014" r="4.649444e-02" gradientTransform="matrix(408.8576 0 0 -474.3341 16.9141 375913.0312)" gradientUnits="userSpaceOnUse">
		<stop  offset="0.65" style="stop-color:#4CB749"/>
		<stop  offset="1" style="stop-color:#388B41"/>
	</radialGradient>
	<path fill="url(#SVGID_4_)" d="M46.4,373.4c-5.7,8.6-3.5,20.2,5.1,25.9c2.7,1.8,5.7,2.8,8.9,3.1l7.8-13.3
		c-2.9,3.6-8.2,4.1-11.7,1.1c-1.2-1-2.1-2.3-2.6-3.8"/>
	
		<radialGradient id="SVGID_5_" cx="-0.7004" cy="791.758" r="4.894152e-02" gradientTransform="matrix(328.3353 0 0 -439.7786 297.647 348580.5)" gradientUnits="userSpaceOnUse">
		<stop  offset="0.6" style="stop-color:#FCD209"/>
		<stop  offset="0.7" style="stop-color:#F7C616"/>
		<stop  offset="1" style="stop-color:#BC821E"/>
	</radialGradient>
	<path fill="url(#SVGID_5_)" d="M60.4,402.4c10.3,0.8,19.3-6.9,20-17.2c0.3-3.3-0.4-6.6-1.9-9.6H61.8c4.6,0,8.3,3.8,8.3,8.4
		c0,1.9-0.6,3.7-1.8,5.1"/>
	<path opacity="7.500000e-02" enable-background="new    " d="M46.4,373.4l7.5,13c-0.6-1.9-0.4-3.9,0.3-5.7l-7.5-7.8"/>
	<path opacity="5.000000e-02" enable-background="new    " d="M60.4,402.4l7.8-13.3c-1.2,1.5-2.9,2.5-4.8,2.8l-3.3,10.5"/>
	<path opacity="5.000000e-02" enable-background="new    " d="M78.6,375.6H61.8c2.5,0,4.9,1.2,6.5,3.2l10.7-2.7"/>
</g>
</svg>
