<?xml version="1.0" encoding="utf-8"?>
<!-- Generator: Adobe Illustrator 18.0.0, SVG Export Plug-In . SVG Version: 6.00 Build 0)  -->
<!DOCTYPE svg PUBLIC "-//W3C//DTD SVG 1.1//EN" "http://www.w3.org/Graphics/SVG/1.1/DTD/svg11.dtd">
<svg version="1.1" id="Layer_1" xmlns="http://www.w3.org/2000/svg" xmlns:xlink="http://www.w3.org/1999/xlink" x="0px" y="0px"
	 viewBox="0 296 562 173" enable-background="new 0 296 562 173" xml:space="preserve">
<g>
	<g>
		<g>
			<path fill="#52BE61" d="M211.9,421.1c1.6-1.4,3.1-2.8,4.6-4.2c1.5-1.4,3-2.9,4.4-4.4c0,0,1,0.3,2,0.5c0.5,0.1,1,0.3,1.4,0.4
				c0.4,0.1,0.6,0.2,0.6,0.2s-0.4,0.5-1.1,1.2c-0.6,0.7-1.5,1.7-2.4,2.6c-0.9,0.9-1.8,1.8-2.5,2.5s-1.2,1.1-1.2,1.1s0.3,0.1,0.9,0.3
				c0.6,0.2,1.4,0.4,2.4,0.7c0.5,0.1,1,0.3,1.6,0.4c0.3,0.1,0.6,0.2,0.9,0.2c0.2,0,0.3,0.1,0.5,0.1c0.2,0,0.3,0.1,0.5,0.1
				c3.4,0.8,6.9,1.5,10.5,2c3.6,0.5,7.3,0.9,11,1.1c7.4,0.4,14.8,0.2,21.7-0.5c3.5-0.4,6.8-0.9,9.9-1.4c3.1-0.6,6.1-1.2,8.8-1.9
				c0.3-0.1,0.7-0.2,1-0.3c0.3-0.1,0.6-0.2,1-0.3c0.6-0.2,1.3-0.4,1.9-0.5c0.6-0.2,1.2-0.4,1.8-0.5c0.3-0.1,0.6-0.2,0.9-0.3
				c0.3-0.1,0.5-0.2,0.8-0.3c1.1-0.4,2.1-0.7,3-1c0.9-0.3,1.8-0.6,2.5-0.9c0.7-0.3,1.4-0.5,2-0.8c0.6-0.2,1.1-0.4,1.5-0.6
				c0.8-0.3,1.2-0.5,1.2-0.5l1.5,3.6c0,0-0.4,0.2-1.3,0.5c-0.4,0.2-0.9,0.4-1.5,0.6c-0.6,0.2-1.3,0.5-2.1,0.8
				c-0.8,0.3-1.7,0.6-2.6,0.9c-0.9,0.3-2,0.7-3.1,1c-0.3,0.1-0.6,0.2-0.8,0.3c-0.3,0.1-0.6,0.2-0.9,0.3c-0.6,0.2-1.2,0.4-1.8,0.6
				c-0.6,0.2-1.3,0.4-1.9,0.5c-0.3,0.1-0.7,0.2-1,0.3c-0.3,0.1-0.7,0.2-1,0.3c-2.8,0.7-5.8,1.4-9,2c-3.2,0.6-6.6,1.1-10.2,1.5
				c-7.1,0.7-14.8,1-22.4,0.5c-3.8-0.2-7.6-0.6-11.3-1.2s-7.3-1.2-10.8-2.1c-0.2,0-0.4-0.1-0.5-0.1c-0.2,0-0.3-0.1-0.5-0.1
				c-0.3-0.1-0.6-0.2-0.9-0.2c-0.6-0.2-1.1-0.3-1.7-0.4c-1-0.3-1.9-0.5-2.5-0.7c-0.6-0.2-0.9-0.3-0.9-0.3s0.2,0.6,0.4,1.6
				c0.3,0.9,0.6,2.2,1,3.5c0.4,1.3,0.7,2.5,1,3.5c0.3,0.9,0.5,1.6,0.5,1.6s-0.3-0.1-0.7-0.2c-0.4-0.1-1-0.3-1.6-0.4
				c-1.2-0.3-2.3-0.6-2.3-0.6c-0.6-2.1-1.1-4.1-1.6-6.2C212.8,425.2,212.3,423.1,211.9,421.1z"/>
		</g>
	</g>
</g>
<g>
	<g>
		<g>
			<path fill="#52BE61" d="M316.7,383.2c-3.5,2.4-6.8,4.9-10,7.5c0,0-0.2-0.1-0.6-0.3c-0.4-0.2-0.8-0.4-1.3-0.5
				c-1-0.4-1.9-0.7-1.9-0.7s1.9-1.7,3.9-3.3c2-1.6,4-3.2,4-3.2s-0.3-0.1-0.9-0.4c-0.3-0.1-0.6-0.3-1-0.4c-0.2-0.1-0.4-0.2-0.6-0.3
				c-0.2-0.1-0.4-0.2-0.7-0.3c-0.5-0.2-1-0.4-1.6-0.6c-0.3-0.1-0.6-0.2-0.9-0.3c-0.1-0.1-0.3-0.1-0.4-0.2c-0.1,0-0.2-0.1-0.2-0.1
				c-0.1,0-0.2-0.1-0.3-0.1c-3.6-1.3-7.4-2.5-11.3-3.6c-3.9-1-7.9-1.9-11.9-2.6c-4-0.7-8.1-1.2-12.1-1.5c-4-0.3-8-0.4-11.8-0.4
				c-1,0-1.9,0.1-2.8,0.1c-0.5,0-0.9,0-1.4,0c-0.5,0-0.9,0.1-1.4,0.1c-1.8,0.1-3.6,0.2-5.4,0.4c-3.5,0.3-6.8,0.7-9.9,1.2
				c-6.1,0.9-11.2,1.8-14.8,2.5c-3.6,0.7-5.6,1-5.6,1l-0.7-3.8c0,0,2-0.4,5.6-1c1.8-0.3,4-0.7,6.5-1.2c2.5-0.4,5.4-0.9,8.5-1.3
				c3.1-0.4,6.5-0.9,10.1-1.2c1.8-0.2,3.6-0.3,5.6-0.4c0.5,0,1-0.1,1.4-0.1c0.5,0,1,0,1.4,0c1,0,1.9-0.1,2.9-0.1c4,0,8,0.1,12.2,0.4
				c4.1,0.3,8.3,0.9,12.5,1.6c4.2,0.7,8.3,1.7,12.3,2.7c4,1.1,7.9,2.3,11.6,3.7c0.1,0,0.2,0.1,0.3,0.1c0.1,0,0.2,0.1,0.2,0.1
				c0.2,0.1,0.3,0.1,0.4,0.2c0.3,0.1,0.6,0.2,0.9,0.3c0.6,0.2,1.1,0.4,1.6,0.6c0.2,0.1,0.5,0.2,0.7,0.3c0.2,0.1,0.4,0.2,0.6,0.3
				c0.4,0.2,0.7,0.3,1,0.4c0.6,0.2,0.9,0.4,0.9,0.4s-0.3-2.6-0.7-5.2c-0.4-2.6-0.9-5.2-0.9-5.2s1.1,0.4,2.2,0.9
				c0.6,0.2,1.1,0.5,1.5,0.6c0.4,0.2,0.7,0.3,0.7,0.3C315.9,374.8,316.3,379.1,316.7,383.2z"/>
		</g>
	</g>
</g>
<g>
	<path d="M51.3,321.1h12v3.3h-8.2v5.9H62v3.3h-6.9v8.4h-3.8V321.1z"/>
	<path d="M66,327h3.6v2.6c0,0.6-0.1,1.1-0.1,1.1h0.1c0.7-2.1,2.5-3.8,4.8-3.8c0.4,0,0.7,0.1,0.7,0.1v3.7c0,0-0.4-0.1-0.9-0.1
		c-1.6,0-3.4,0.9-4.1,3.1c-0.2,0.7-0.3,1.6-0.3,2.4v5.9H66V327z"/>
	<path d="M84.6,326.6c4.6,0,8.3,3.3,8.3,7.8c0,4.6-3.7,7.8-8.2,7.8c-4.6,0-8.3-3.2-8.3-7.8C76.4,329.9,80.1,326.6,84.6,326.6z
		 M84.7,339.2c2.4,0,4.4-1.9,4.4-4.7c0-2.8-2-4.7-4.4-4.7c-2.4,0-4.5,1.9-4.5,4.7C80.2,337.3,82.2,339.2,84.7,339.2z"/>
	<path d="M95.9,327h3.6v1.7c0,0.6-0.1,1-0.1,1h0.1c0.6-1.3,2.3-3.1,5.3-3.1c3.3,0,5.2,1.7,5.2,5.7v9.6h-3.7v-8.9
		c0-1.8-0.5-3.1-2.4-3.1c-2,0-3.5,1.3-4,3.1c-0.2,0.6-0.3,1.3-0.3,2v6.9h-3.7V327z"/>
	<path d="M114.5,330.2h-1.9v-3h2v-4.3h3.6v4.3h3.4v3h-3.4v5.8c0,2.5,1.9,2.8,3,2.8c0.4,0,0.7-0.1,0.7-0.1v3.3c0,0-0.4,0.1-1.1,0.1
		c-2.1,0-6.2-0.6-6.2-5.6V330.2z"/>
	<path d="M125.2,332h8.8v3.3h-8.8V332z"/>
	<path d="M144.9,326.6c4.3,0,6.6,3.1,6.6,7.1c0,0.4-0.1,1.4-0.1,1.4h-10.3c0.2,2.6,2.3,4,4.5,4c2.4,0,4.3-1.6,4.3-1.6l1.4,2.7
		c0,0-2.3,2.1-6,2.1c-5,0-8-3.6-8-7.8C137.3,329.9,140.5,326.6,144.9,326.6z M147.8,332.6c-0.1-2-1.3-3.1-3-3.1
		c-1.9,0-3.2,1.2-3.6,3.1H147.8z"/>
	<path d="M154.6,327h3.6v1.7c0,0.6-0.1,1-0.1,1h0.1c0.6-1.3,2.3-3.1,5.3-3.1c3.3,0,5.2,1.7,5.2,5.7v9.6H165v-8.9
		c0-1.8-0.5-3.1-2.4-3.1c-2,0-3.5,1.3-4,3.1c-0.2,0.6-0.3,1.3-0.3,2v6.9h-3.7V327z"/>
	<path d="M178.4,326.6c3.3,0,4.3,1.9,4.3,1.9h0.1c0,0,0-0.4,0-0.9v-6.6h3.7V342H183v-1.2c0-0.6,0.1-1,0.1-1H183c0,0-1.3,2.6-4.7,2.6
		c-4.1,0-6.6-3.2-6.6-7.8C171.6,329.7,174.4,326.6,178.4,326.6z M179.1,339.2c1.9,0,3.8-1.4,3.8-4.7c0-2.3-1.2-4.6-3.7-4.6
		c-2.1,0-3.8,1.7-3.8,4.6C175.4,337.3,176.9,339.2,179.1,339.2z"/>
</g>
<g>
	<path d="M359.4,321.1h7.5c3.8,0,6.4,1.9,6.4,5.4c0,1.9-0.9,3.6-2.5,4.5v0.1c2.3,0.7,3.4,2.8,3.4,4.9c0,4.2-3.3,6.1-7.2,6.1h-7.5
		V321.1z M366.8,329.6c1.6,0,2.6-1.2,2.6-2.7s-0.9-2.6-2.6-2.6h-3.6v5.3H366.8z M367.2,338.7c1.9,0,3-1.3,3-3c0-1.7-1.1-3-3-3h-4.1
		v6H367.2z"/>
	<path d="M385.2,332.6h0.5v-0.2c0-2-1.2-2.6-2.9-2.6c-2.1,0-4.1,1.4-4.1,1.4l-1.4-2.7c0,0,2.3-1.9,5.9-1.9c3.9,0,6.2,2.2,6.2,6v9.4
		H386v-1.2c0-0.6,0.1-1.1,0.1-1.1H386c0,0-1.1,2.6-4.6,2.6c-2.7,0-5.1-1.7-5.1-4.7C376.4,332.9,382.8,332.6,385.2,332.6z
		 M382.4,339.4c2,0,3.4-2.1,3.4-3.9v-0.4h-0.6c-1.9,0-5,0.3-5,2.3C380.1,338.5,380.8,339.4,382.4,339.4z"/>
	<path d="M400.3,326.6c3.9,0,5.8,2.2,5.8,2.2l-1.6,2.6c0,0-1.6-1.6-3.9-1.6c-2.8,0-4.6,2.1-4.6,4.6c0,2.5,1.8,4.7,4.7,4.7
		c2.5,0,4.4-1.9,4.4-1.9l1.4,2.6c0,0-2.1,2.4-6.2,2.4c-5,0-8.1-3.5-8.1-7.8C392.2,330.2,395.4,326.6,400.3,326.6z"/>
	<path d="M409.3,321.1h3.7v11.2h1.9l3.6-5.3h4.1l-4.7,6.7v0.1l5.3,8.2h-4.3l-4-6.6H413v6.6h-3.7V321.1z"/>
	<path d="M425.6,332h8.8v3.3h-8.8V332z"/>
	<path d="M445.3,326.6c4.3,0,6.6,3.1,6.6,7.1c0,0.4-0.1,1.4-0.1,1.4h-10.3c0.2,2.6,2.3,4,4.5,4c2.4,0,4.3-1.6,4.3-1.6l1.4,2.7
		c0,0-2.3,2.1-6,2.1c-5,0-8-3.6-8-7.8C437.7,329.9,440.8,326.6,445.3,326.6z M448.2,332.6c-0.1-2-1.3-3.1-3-3.1
		c-1.9,0-3.2,1.2-3.6,3.1H448.2z"/>
	<path d="M455,327h3.6v1.7c0,0.6-0.1,1-0.1,1h0.1c0.6-1.3,2.3-3.1,5.3-3.1c3.3,0,5.2,1.7,5.2,5.7v9.6h-3.7v-8.9
		c0-1.8-0.5-3.1-2.4-3.1c-2,0-3.5,1.3-4,3.1c-0.2,0.6-0.3,1.3-0.3,2v6.9H455V327z"/>
	<path d="M478.8,326.6c3.3,0,4.3,1.9,4.3,1.9h0.1c0,0,0-0.4,0-0.9v-6.6h3.7V342h-3.5v-1.2c0-0.6,0.1-1,0.1-1h-0.1
		c0,0-1.3,2.6-4.7,2.6c-4.1,0-6.6-3.2-6.6-7.8C472,329.7,474.8,326.6,478.8,326.6z M479.5,339.2c1.9,0,3.8-1.4,3.8-4.7
		c0-2.3-1.2-4.6-3.7-4.6c-2.1,0-3.8,1.7-3.8,4.6C475.8,337.3,477.3,339.2,479.5,339.2z"/>
</g>
<g>
	<path d="M84.4,383v-13.6h1.8v5.9h5v-5.9H93V383h-1.8v-6.4h-5v6.4H84.4z"/>
	<path d="M98.6,383v-12.1h-4.1v-1.5h9.9v1.5h-4.1V383H98.6z"/>
	<path d="M106.9,383h-1.4v-13.6h1.8l3.2,9l3.2-9h1.7V383h-1.6v-8.7l0-1.2h0l-0.4,1.2l-2.1,6h-1.8l-2.1-6l-0.3-1.2h0l0,1.2V383z"/>
	<path d="M125,381.5v1.5h-7.4v-13.6h1.8v12.1H125z"/>
	<path d="M98.3,404.4c-1,0.4-1.9,0.6-2.7,0.6c-1.1,0-2-0.3-2.9-0.9c-0.9-0.6-1.6-1.4-2.1-2.5s-0.7-2.4-0.7-3.8
		c0-1.4,0.2-2.7,0.7-3.8s1.2-2,2.1-2.6s1.9-0.9,3-0.9c0.8,0,1.7,0.2,2.7,0.6v1.6c-0.9-0.5-1.9-0.8-2.8-0.8c-0.7,0-1.3,0.2-1.9,0.7
		c-0.6,0.5-1.1,1.2-1.4,2.1c-0.4,0.9-0.5,1.9-0.5,3c0,1.1,0.2,2.1,0.6,3.1s0.8,1.6,1.4,2.1s1.2,0.7,1.9,0.7c0.9,0,1.9-0.3,2.8-0.8
		V404.4z"/>
	<path d="M100.9,404.3v-1.7c1.4,0.7,2.7,1,3.8,1c0.5,0,0.9-0.1,1.4-0.3c0.4-0.2,0.8-0.5,1-0.8c0.2-0.3,0.3-0.7,0.3-1.1
		c0-0.5-0.2-0.9-0.5-1.3c-0.3-0.4-0.9-0.9-1.7-1.4l-0.9-0.5l-0.9-0.5c-1.6-0.9-2.4-2.1-2.4-3.5c0-1,0.4-1.9,1.1-2.6s1.8-1.1,3.3-1.1
		c1,0,1.9,0.1,2.8,0.4v1.5c-1-0.4-2-0.6-2.9-0.6c-0.8,0-1.4,0.2-1.8,0.6c-0.5,0.4-0.7,0.9-0.7,1.4c0,0.6,0.2,1,0.5,1.4
		s0.8,0.7,1.4,1l0.7,0.4l0.9,0.5l0.7,0.4c1.5,0.9,2.2,2.1,2.2,3.4c0,1.1-0.4,2-1.1,2.7c-0.8,0.8-2,1.1-3.7,1.1c-0.5,0-1.1,0-1.5-0.1
		C102.3,404.8,101.7,404.6,100.9,404.3z"/>
	<path d="M111.7,404.3v-1.7c1.4,0.7,2.7,1,3.8,1c0.5,0,0.9-0.1,1.4-0.3c0.4-0.2,0.8-0.5,1-0.8c0.2-0.3,0.3-0.7,0.3-1.1
		c0-0.5-0.2-0.9-0.5-1.3c-0.3-0.4-0.9-0.9-1.7-1.4l-0.9-0.5l-0.9-0.5c-1.6-0.9-2.4-2.1-2.4-3.5c0-1,0.4-1.9,1.1-2.6s1.8-1.1,3.3-1.1
		c1,0,1.9,0.1,2.8,0.4v1.5c-1-0.4-2-0.6-2.9-0.6c-0.8,0-1.4,0.2-1.8,0.6c-0.5,0.4-0.7,0.9-0.7,1.4c0,0.6,0.2,1,0.5,1.4
		s0.8,0.7,1.4,1l0.7,0.4l0.9,0.5l0.7,0.4c1.5,0.9,2.2,2.1,2.2,3.4c0,1.1-0.4,2-1.1,2.7c-0.8,0.8-2,1.1-3.7,1.1c-0.5,0-1.1,0-1.5-0.1
		C113.2,404.8,112.5,404.6,111.7,404.3z"/>
	<path d="M51.9,425.9v-1.7c1.3,0.7,2.3,1,3.2,1c0.5,0,0.9-0.1,1.2-0.3c0.4-0.2,0.7-0.5,0.9-0.9c0.2-0.4,0.3-1.3,0.3-2.7v-7.5h-3.1
		v-1.4h4.8v8.9c0,1.5-0.2,2.5-0.5,3.1s-0.8,1.1-1.4,1.5c-0.6,0.3-1.4,0.5-2.3,0.5C54.1,426.6,53,426.4,51.9,425.9z"/>
	<path d="M69.5,424c-0.5,0.8-1.1,1.4-1.8,1.8c-0.7,0.4-1.3,0.6-1.9,0.6c-0.8,0-1.6-0.4-2.2-1.1c-0.7-0.7-1-1.8-1-3.2
		c0-1.1,0.2-2.2,0.7-3c0.4-0.9,1-1.6,1.7-2.1c0.7-0.5,1.6-0.8,2.7-0.8c0.3,0,0.8,0,1.4,0.1c0.1,0,0.2,0,0.4,0h1.6v6.9
		c0,1.2,0.1,2.1,0.4,2.9h-1.7C69.7,425.7,69.6,424.9,69.5,424z M69.5,422v-4.2c-0.6-0.2-1.1-0.2-1.6-0.2c-1,0-1.9,0.4-2.5,1.2
		c-0.7,0.8-1,1.8-1,3.2c0,1,0.2,1.7,0.6,2.2c0.4,0.5,0.8,0.7,1.3,0.7c0.5,0,1.1-0.3,1.7-0.8S69.1,422.9,69.5,422z"/>
	<path d="M77.1,426.2l-4.3-9.8h1.8l3.4,7.8l3.4-7.8h1.6l-4.3,9.8H77.1z"/>
	<path d="M91.1,424c-0.5,0.8-1.1,1.4-1.8,1.8c-0.7,0.4-1.3,0.6-1.9,0.6c-0.8,0-1.6-0.4-2.2-1.1c-0.7-0.7-1-1.8-1-3.2
		c0-1.1,0.2-2.2,0.7-3c0.4-0.9,1-1.6,1.7-2.1c0.7-0.5,1.6-0.8,2.7-0.8c0.3,0,0.8,0,1.4,0.1c0.1,0,0.2,0,0.4,0h1.6v6.9
		c0,1.2,0.1,2.1,0.4,2.9h-1.7C91.3,425.7,91.2,424.9,91.1,424z M91.2,422v-4.2c-0.6-0.2-1.1-0.2-1.6-0.2c-1,0-1.9,0.4-2.5,1.2
		c-0.7,0.8-1,1.8-1,3.2c0,1,0.2,1.7,0.6,2.2c0.4,0.5,0.8,0.7,1.3,0.7c0.5,0,1.1-0.3,1.7-0.8S90.7,422.9,91.2,422z"/>
	<path d="M95.5,425.9v-1.7c1.4,0.7,2.7,1,3.8,1c0.5,0,0.9-0.1,1.4-0.3c0.4-0.2,0.8-0.5,1-0.8c0.2-0.3,0.3-0.7,0.3-1.1
		c0-0.5-0.2-0.9-0.5-1.3c-0.3-0.4-0.9-0.9-1.7-1.4l-0.9-0.5l-0.9-0.5c-1.6-0.9-2.4-2.1-2.4-3.5c0-1,0.4-1.9,1.1-2.6s1.8-1.1,3.3-1.1
		c1,0,1.9,0.1,2.8,0.4v1.5c-1-0.4-2-0.6-2.9-0.6c-0.8,0-1.4,0.2-1.8,0.6c-0.5,0.4-0.7,0.9-0.7,1.4c0,0.6,0.2,1,0.5,1.4
		s0.8,0.7,1.4,1l0.7,0.4l0.9,0.5l0.7,0.4c1.5,0.9,2.2,2.1,2.2,3.4c0,1.1-0.4,2-1.1,2.7c-0.8,0.8-2,1.1-3.7,1.1c-0.5,0-1.1,0-1.5-0.1
		C96.9,426.4,96.3,426.2,95.5,425.9z"/>
	<path d="M114.6,425.9c-1.1,0.4-2.1,0.6-3.1,0.6c-1,0-1.9-0.2-2.6-0.7c-0.8-0.5-1.4-1.1-1.8-1.8s-0.6-1.7-0.6-2.7
		c0-1.5,0.5-2.7,1.5-3.7s2.1-1.5,3.5-1.5c1,0,2.1,0.2,3.2,0.6v1.6c-1.1-0.5-2.2-0.8-3.1-0.8c-0.6,0-1.2,0.1-1.7,0.4
		s-0.9,0.8-1.2,1.4s-0.4,1.3-0.4,1.9c0,0.9,0.3,1.7,0.8,2.5s1.4,1.2,2.6,1.2c0.4,0,0.7,0,1.1-0.1s1-0.2,1.9-0.5V425.9z"/>
	<path d="M117.9,426.2v-9.8h1.6v2.1c0.5-0.8,1.1-1.4,1.8-1.8c0.7-0.4,1.4-0.6,2.2-0.6c0.6,0,1.2,0.1,1.8,0.3v3.5h-1.6v-2.2
		c-0.3,0-0.5-0.1-0.7-0.1c-0.6,0-1.2,0.2-1.8,0.7s-1.2,1.2-1.7,2.2v5.7H117.9z"/>
	<path d="M130.6,426.2v-8.5h-2.7v-1.4h4.4v8.5h2.7v1.4H130.6z M130.4,412.8c0-0.4,0.1-0.6,0.4-0.8s0.5-0.3,0.7-0.3
		c0.2,0,0.5,0.1,0.7,0.3s0.4,0.5,0.4,0.8c0,0.4-0.1,0.6-0.4,0.8s-0.5,0.3-0.7,0.3c-0.2,0-0.5-0.1-0.7-0.3S130.4,413.2,130.4,412.8z"
		/>
	<path d="M140.2,418.6c0.5-0.8,1.1-1.4,1.8-1.9c0.7-0.4,1.3-0.6,1.9-0.6c0.8,0,1.6,0.4,2.2,1.1s1,1.8,1,3.2c0,1.1-0.2,2.2-0.7,3
		c-0.4,0.9-1,1.6-1.7,2.1c-0.7,0.5-1.6,0.8-2.7,0.8c-0.3,0-0.8,0-1.4-0.1c-0.1,0-0.2,0-0.4,0v3.8h-1.6v-13.6h1.6V418.6z
		 M140.2,420.5v4.2c0.6,0.2,1.1,0.2,1.6,0.2c1,0,1.8-0.4,2.5-1.2s1-1.8,1-3.2c0-1-0.2-1.7-0.6-2.2s-0.8-0.7-1.3-0.7
		c-0.5,0-1.1,0.3-1.7,0.8S140.7,419.7,140.2,420.5z"/>
	<path d="M157.7,425.8c-0.8,0.3-1.3,0.5-1.7,0.6c-0.3,0.1-0.7,0.1-1,0.1c-0.7,0-1.3-0.1-1.9-0.4s-1-0.7-1.3-1.2s-0.4-1.3-0.4-2.4v-4
		H149v-1.4h2.5v-4h1.6v4h4.4v1.4h-4.4v3.9c0,0.8,0.1,1.3,0.3,1.7c0.2,0.3,0.4,0.6,0.8,0.7s0.7,0.2,1.1,0.2c0.8,0,1.6-0.2,2.5-0.7
		V425.8z"/>
</g>
<g>
	<path d="M362.7,378v5h-1.8v-13.6h3.4c1.4,0,2.4,0.2,3,0.5s1.1,0.8,1.5,1.4s0.5,1.3,0.5,2c0,0.9-0.2,1.7-0.7,2.4s-1.1,1.3-1.9,1.7
		c-0.8,0.4-1.9,0.6-3.3,0.6H362.7z M362.7,376.7h0.8c1.1,0,1.9-0.1,2.4-0.4s0.9-0.7,1.2-1.2c0.3-0.5,0.4-1.1,0.4-1.7
		c0-0.8-0.3-1.4-0.8-1.9s-1.5-0.7-3-0.7h-1.1V376.7z"/>
	<path d="M371.3,383v-13.6h1.8v5.9h5v-5.9h1.8V383h-1.8v-6.4h-5v6.4H371.3z"/>
	<path d="M384.3,378v5h-1.8v-13.6h3.4c1.4,0,2.4,0.2,3,0.5s1.1,0.8,1.5,1.4s0.5,1.3,0.5,2c0,0.9-0.2,1.7-0.7,2.4s-1.1,1.3-1.9,1.7
		c-0.8,0.4-1.9,0.6-3.3,0.6H384.3z M384.3,376.7h0.8c1.1,0,1.9-0.1,2.4-0.4s0.9-0.7,1.2-1.2c0.3-0.5,0.4-1.1,0.4-1.7
		c0-0.8-0.3-1.4-0.8-1.9s-1.5-0.7-3-0.7h-1.1V376.7z"/>
	<path d="M362.4,405.2v5.8h-1.8v-13.6h3.6c1.2,0,2.1,0.1,2.6,0.4c0.6,0.2,1,0.6,1.3,1.1c0.3,0.5,0.5,1,0.5,1.6
		c0,0.5-0.1,1.1-0.3,1.6c-0.2,0.5-0.5,1-0.8,1.4c-0.4,0.4-0.9,0.8-1.6,1.2l3.9,6.4h-2.1l-3.6-5.8H362.4z M362.4,403.8h2.5
		c0.6-0.3,1-0.6,1.2-0.9c0.3-0.3,0.5-0.7,0.6-1c0.1-0.4,0.2-0.7,0.2-1.1c0-0.6-0.2-1.1-0.7-1.5c-0.5-0.4-1.3-0.6-2.5-0.6h-1.3V403.8
		z"/>
	<path d="M379.6,401.2v9.8H378v-2.2c-0.5,0.8-1.1,1.4-1.8,1.8s-1.3,0.6-1.9,0.6c-0.6,0-1.1-0.2-1.6-0.5c-0.5-0.3-0.8-0.7-1-1.2
		c-0.2-0.5-0.3-1.5-0.3-2.9v-5.5h1.6v5.7c0,0.9,0,1.6,0.1,1.9c0.1,0.3,0.3,0.5,0.5,0.7s0.5,0.3,0.8,0.3c0.6,0,1.2-0.3,1.9-0.8
		s1.2-1.2,1.6-2.1v-5.7H379.6z"/>
	<path d="M383.8,403.4c0.5-0.8,1.1-1.4,1.8-1.9c0.7-0.4,1.3-0.6,1.9-0.6c0.8,0,1.6,0.4,2.2,1.1s1,1.8,1,3.2c0,1.1-0.2,2.2-0.7,3
		c-0.4,0.9-1,1.6-1.7,2.1c-0.7,0.5-1.6,0.8-2.7,0.8c-0.3,0-0.8,0-1.4-0.1c-0.1,0-0.2,0-0.4,0h-1.6v-14.2h1.6V403.4z M383.8,405.3
		v4.2c0.6,0.2,1.1,0.2,1.6,0.2c1,0,1.8-0.4,2.5-1.2s1-1.8,1-3.2c0-1-0.2-1.7-0.6-2.2s-0.8-0.7-1.3-0.7c-0.5,0-1.1,0.3-1.7,0.8
		S384.3,404.5,383.8,405.3z"/>
	<path d="M396.7,410.6l-4.5-9.4h1.8l3.6,7.4l3-7.4h1.6l-3.8,9.1c-0.8,1.9-1.6,3.2-2.3,3.8c-0.7,0.6-1.7,0.9-2.8,0.9
		c-0.5,0-0.9,0-1.3-0.1v-1.4c0.5,0.1,0.9,0.2,1.3,0.2c0.5,0,1-0.1,1.4-0.3c0.4-0.2,0.8-0.6,1.1-1.1c0.3-0.5,0.6-1,0.7-1.3
		L396.7,410.6z"/>
	<path d="M362.7,434v5h-1.8v-13.6h3.4c1.4,0,2.4,0.2,3,0.5s1.1,0.8,1.5,1.4s0.5,1.3,0.5,2c0,0.9-0.2,1.7-0.7,2.4s-1.1,1.3-1.9,1.7
		c-0.8,0.4-1.9,0.6-3.3,0.6H362.7z M362.7,432.7h0.8c1.1,0,1.9-0.1,2.4-0.4s0.9-0.7,1.2-1.2c0.3-0.5,0.4-1.1,0.4-1.7
		c0-0.8-0.3-1.4-0.8-1.9s-1.5-0.7-3-0.7h-1.1V432.7z"/>
	<path d="M375.1,438.6l-4.5-9.4h1.8l3.6,7.4l3-7.4h1.6l-3.8,9.1c-0.8,1.9-1.6,3.2-2.3,3.8c-0.7,0.6-1.7,0.9-2.8,0.9
		c-0.5,0-0.9,0-1.3-0.1v-1.4c0.5,0.1,0.9,0.2,1.3,0.2c0.5,0,1-0.1,1.4-0.3c0.4-0.2,0.8-0.6,1.1-1.1c0.3-0.5,0.6-1,0.7-1.3
		L375.1,438.6z"/>
	<path d="M390.5,438.6c-0.8,0.3-1.3,0.5-1.7,0.6c-0.3,0.1-0.7,0.1-1,0.1c-0.7,0-1.3-0.1-1.9-0.4s-1-0.7-1.3-1.2s-0.4-1.3-0.4-2.4v-4
		h-2.5V430h2.5v-4h1.6v4h4.4v1.4h-4.4v3.9c0,0.8,0.1,1.3,0.3,1.7c0.2,0.3,0.4,0.6,0.8,0.7s0.7,0.2,1.1,0.2c0.8,0,1.6-0.2,2.5-0.7
		V438.6z"/>
	<path d="M393.1,439v-14.2h1.6v6.5c0.5-0.8,1-1.3,1.7-1.8s1.3-0.6,2-0.6c0.6,0,1.1,0.1,1.5,0.4c0.5,0.3,0.8,0.6,1,1
		c0.1,0.3,0.2,0.6,0.3,1c0.1,0.3,0.1,1.1,0.1,2.2v5.5h-1.6v-5.7c0-0.9,0-1.6-0.1-1.9c-0.1-0.3-0.3-0.5-0.5-0.7s-0.5-0.3-0.8-0.3
		c-0.6,0-1.2,0.3-1.8,0.8s-1.2,1.2-1.6,2v5.7H393.1z"/>
	<path d="M408,439.3c-1.4,0-2.5-0.5-3.4-1.5s-1.3-2.2-1.3-3.7s0.4-2.7,1.3-3.7s2-1.5,3.4-1.5c1.4,0,2.5,0.5,3.4,1.5
		c0.8,1,1.3,2.2,1.3,3.7s-0.4,2.7-1.3,3.7C410.5,438.8,409.4,439.3,408,439.3z M408,437.9c0.9,0,1.6-0.3,2.1-1
		c0.5-0.7,0.8-1.6,0.8-2.8c0-1.2-0.3-2.1-0.8-2.8c-0.5-0.7-1.2-1-2.1-1c-0.9,0-1.6,0.3-2.1,1s-0.8,1.6-0.8,2.8
		c0,1.2,0.3,2.1,0.8,2.8S407.1,437.9,408,437.9z"/>
	<path d="M414.7,439v-9.8h1.6v2.1c0.5-0.8,1-1.3,1.7-1.8s1.3-0.6,2-0.6c0.6,0,1.1,0.2,1.6,0.5c0.5,0.3,0.8,0.7,1,1.2
		s0.3,1.5,0.3,2.9v5.5h-1.6v-5.7c0-0.9,0-1.6-0.1-1.9c-0.1-0.3-0.3-0.5-0.5-0.7s-0.5-0.3-0.8-0.3c-0.6,0-1.2,0.3-1.8,0.8
		s-1.2,1.2-1.6,2v5.7H414.7z"/>
</g>
<g>
	<path d="M452.4,382.3v-9.8h1.6v2.1c0.5-0.8,1-1.3,1.7-1.8s1.3-0.6,2-0.6c0.6,0,1.1,0.2,1.6,0.5s0.8,0.7,1,1.2
		c0.2,0.5,0.3,1.5,0.3,2.9v5.5h-1.6v-5.7c0-0.9,0-1.6-0.1-1.9s-0.3-0.5-0.5-0.7c-0.2-0.2-0.5-0.3-0.8-0.3c-0.6,0-1.2,0.3-1.9,0.8
		c-0.7,0.5-1.2,1.2-1.6,2v5.7H452.4z"/>
	<path d="M467.2,382.5c-1.4,0-2.5-0.5-3.4-1.5s-1.3-2.2-1.3-3.7s0.4-2.7,1.3-3.7s2-1.5,3.4-1.5c1.4,0,2.5,0.5,3.4,1.5
		s1.3,2.2,1.3,3.7s-0.4,2.7-1.3,3.7S468.6,382.5,467.2,382.5z M467.2,381.2c0.9,0,1.6-0.3,2.1-1s0.8-1.6,0.8-2.8
		c0-1.2-0.3-2.1-0.8-2.8s-1.2-1-2.1-1c-0.9,0-1.6,0.3-2.1,1s-0.8,1.6-0.8,2.8c0,1.2,0.3,2.1,0.8,2.8S466.3,381.2,467.2,381.2z"/>
	<path d="M480.5,380.1c-0.5,0.8-1.1,1.4-1.8,1.9c-0.7,0.4-1.3,0.6-1.9,0.6c-0.8,0-1.6-0.4-2.2-1.1s-1-1.8-1-3.2c0-1.1,0.2-2.2,0.7-3
		c0.4-0.9,1-1.6,1.7-2.1s1.6-0.8,2.7-0.8c0.3,0,0.8,0,1.4,0.1c0.1,0,0.2,0,0.4,0v-4.4h1.6v14.2h-1.6V380.1z M480.5,378.1v-4.2
		c-0.6-0.2-1.1-0.2-1.6-0.2c-1,0-1.9,0.4-2.5,1.2s-1,1.8-1,3.2c0,1,0.2,1.7,0.5,2.2c0.4,0.5,0.8,0.7,1.3,0.7c0.5,0,1.1-0.3,1.7-0.8
		C479.5,379.7,480,379,480.5,378.1z"/>
	<path d="M492.9,381.6c-1.3,0.6-2.5,0.9-3.7,0.9c-0.9,0-1.7-0.2-2.4-0.7s-1.3-1.1-1.7-1.9c-0.4-0.8-0.6-1.7-0.6-2.6
		c0-0.9,0.2-1.8,0.6-2.6c0.4-0.8,1-1.5,1.7-1.9s1.5-0.7,2.4-0.7c1.2,0,2.1,0.4,2.8,1.2c0.7,0.8,1.1,2.1,1.1,3.8v0.4h-6.8
		c0,0.7,0.1,1.3,0.4,1.9c0.3,0.6,0.7,1,1.1,1.3s1,0.4,1.6,0.4c1.1,0,2.2-0.4,3.5-1.1V381.6z M486.4,376.4h4.9v-0.2
		c0-0.8-0.2-1.4-0.6-1.9s-0.9-0.7-1.6-0.7c-0.7,0-1.2,0.2-1.7,0.7C486.9,374.7,486.6,375.5,486.4,376.4z"/>
	<path d="M499.6,382.7c-0.4,0-0.7-0.1-1-0.4s-0.4-0.6-0.4-1c0-0.4,0.1-0.7,0.4-1c0.3-0.3,0.6-0.4,1-0.4s0.7,0.1,1,0.4s0.4,0.6,0.4,1
		c0,0.4-0.1,0.7-0.4,1S500,382.7,499.6,382.7z"/>
	<path d="M506.5,386.1v-1.5c0.9,0.3,1.7,0.4,2.3,0.4c0.5,0,1-0.1,1.4-0.3s0.7-0.5,0.9-1s0.3-1.2,0.3-2.4v-7.6h-4.2v-1.4h5.8v8.6
		c0,1.7-0.2,2.8-0.6,3.5c-0.4,0.6-0.9,1.1-1.4,1.4c-0.6,0.3-1.3,0.4-2.3,0.4C508.1,386.4,507.3,386.3,506.5,386.1z M511.2,368.9
		c0-0.4,0.1-0.6,0.4-0.8c0.2-0.2,0.5-0.3,0.7-0.3s0.5,0.1,0.7,0.3c0.2,0.2,0.4,0.5,0.4,0.8c0,0.4-0.1,0.6-0.4,0.8
		c-0.2,0.2-0.5,0.3-0.7,0.3s-0.5-0.1-0.7-0.3C511.3,369.5,511.2,369.3,511.2,368.9z"/>
	<path d="M517.3,381.8V380c0.7,0.4,1.4,0.7,2.1,0.9s1.4,0.3,1.9,0.3c0.8,0,1.4-0.1,1.8-0.4s0.5-0.6,0.5-1c0-0.3-0.1-0.5-0.3-0.7
		s-0.6-0.4-1.3-0.7l-0.6-0.2l-1.1-0.4c-1.2-0.5-2-0.9-2.3-1.3c-0.3-0.4-0.5-0.9-0.5-1.5c0-0.8,0.3-1.5,0.9-2c0.6-0.5,1.6-0.8,3-0.8
		c1,0,2,0.2,3,0.5v1.5c-1.1-0.4-2.1-0.6-3-0.6c-0.7,0-1.2,0.1-1.6,0.4c-0.4,0.2-0.6,0.5-0.6,0.9c0,0.4,0.2,0.6,0.5,0.8
		c0.3,0.2,0.9,0.5,1.6,0.7l1.1,0.4c1,0.4,1.7,0.8,2.1,1.2c0.4,0.4,0.6,1,0.6,1.6c0,0.8-0.3,1.5-1,2.1s-1.7,0.8-3.1,0.8
		C519.9,382.5,518.6,382.3,517.3,381.8z"/>
	<path d="M452.4,410v-1.7c1.4,0.7,2.7,1,3.8,1c0.5,0,0.9-0.1,1.4-0.3c0.4-0.2,0.8-0.5,1-0.8c0.2-0.3,0.3-0.7,0.3-1.1
		c0-0.5-0.2-0.9-0.5-1.3c-0.3-0.4-0.9-0.9-1.7-1.4l-0.9-0.5l-0.9-0.5c-1.6-0.9-2.4-2.1-2.4-3.5c0-1,0.4-1.9,1.1-2.6
		c0.7-0.7,1.8-1.1,3.3-1.1c1,0,1.9,0.1,2.8,0.4v1.5c-1-0.4-2-0.6-2.9-0.6c-0.8,0-1.4,0.2-1.8,0.6c-0.5,0.4-0.7,0.9-0.7,1.4
		c0,0.6,0.2,1,0.5,1.4c0.4,0.4,0.8,0.7,1.4,1l0.7,0.4l0.9,0.5l0.7,0.4c1.5,0.9,2.2,2.1,2.2,3.4c0,1.1-0.4,2-1.2,2.7
		c-0.8,0.8-2,1.1-3.7,1.1c-0.5,0-1.1,0-1.5-0.1C453.8,410.5,453.2,410.3,452.4,410z"/>
	<path d="M471.4,410c-1.1,0.4-2.1,0.6-3.1,0.6c-1,0-1.9-0.2-2.6-0.7c-0.8-0.5-1.4-1.1-1.8-1.8s-0.6-1.7-0.6-2.7
		c0-1.5,0.5-2.7,1.5-3.7c1-1,2.1-1.5,3.5-1.5c1,0,2.1,0.2,3.2,0.6v1.6c-1.1-0.5-2.2-0.8-3.1-0.8c-0.6,0-1.2,0.1-1.7,0.4
		s-0.9,0.8-1.2,1.4s-0.4,1.3-0.4,1.9c0,0.9,0.3,1.7,0.8,2.5c0.6,0.8,1.4,1.2,2.6,1.2c0.4,0,0.7,0,1.1-0.1s1-0.2,1.9-0.5V410z"/>
	<path d="M480.4,408.1c-0.5,0.8-1.1,1.4-1.8,1.8c-0.7,0.4-1.3,0.6-1.9,0.6c-0.8,0-1.6-0.4-2.2-1.1s-1-1.8-1-3.2c0-1.1,0.2-2.2,0.7-3
		c0.4-0.9,1-1.6,1.7-2.1s1.6-0.8,2.7-0.8c0.3,0,0.8,0,1.4,0.1c0.1,0,0.2,0,0.4,0h1.6v6.9c0,1.2,0.1,2.1,0.4,2.9h-1.7
		C480.6,409.7,480.5,409,480.4,408.1z M480.4,406.1v-4.2c-0.6-0.2-1.1-0.2-1.6-0.2c-1,0-1.9,0.4-2.5,1.2s-1,1.8-1,3.2
		c0,1,0.2,1.7,0.5,2.2c0.4,0.5,0.8,0.7,1.3,0.7c0.5,0,1.1-0.3,1.7-0.8S479.9,407,480.4,406.1z"/>
	<path d="M487.4,410.3v-12.8h-2.9v-1.4h4.6v12.8h3.1v1.4H487.4z"/>
	<path d="M502,408.1c-0.5,0.8-1.1,1.4-1.8,1.8c-0.7,0.4-1.3,0.6-1.9,0.6c-0.8,0-1.6-0.4-2.2-1.1s-1-1.8-1-3.2c0-1.1,0.2-2.2,0.7-3
		c0.4-0.9,1-1.6,1.7-2.1s1.6-0.8,2.7-0.8c0.3,0,0.8,0,1.4,0.1c0.1,0,0.2,0,0.4,0h1.6v6.9c0,1.2,0.1,2.1,0.4,2.9h-1.7
		C502.2,409.7,502.1,409,502,408.1z M502,406.1v-4.2c-0.6-0.2-1.1-0.2-1.6-0.2c-1,0-1.9,0.4-2.5,1.2s-1,1.8-1,3.2
		c0,1,0.2,1.7,0.5,2.2c0.4,0.5,0.8,0.7,1.3,0.7c0.5,0,1.1-0.3,1.7-0.8S501.5,407,502,406.1z"/>
	<path d="M452,438v-1.7c1.3,0.7,2.3,1,3.2,1c0.5,0,0.9-0.1,1.2-0.3c0.4-0.2,0.7-0.5,0.9-0.9c0.2-0.4,0.3-1.3,0.3-2.7V426h-3.1v-1.4
		h4.8v8.9c0,1.5-0.2,2.5-0.5,3.1c-0.3,0.6-0.8,1.1-1.4,1.5c-0.6,0.3-1.4,0.5-2.3,0.5C454.2,438.7,453.1,438.4,452,438z"/>
	<path d="M469.6,436.1c-0.5,0.8-1.1,1.4-1.8,1.8c-0.7,0.4-1.3,0.6-1.9,0.6c-0.8,0-1.6-0.4-2.2-1.1s-1-1.8-1-3.2c0-1.1,0.2-2.2,0.7-3
		c0.4-0.9,1-1.6,1.7-2.1c0.7-0.5,1.6-0.8,2.7-0.8c0.3,0,0.8,0,1.4,0.1c0.1,0,0.2,0,0.4,0h1.6v6.9c0,1.2,0.1,2.1,0.4,2.9h-1.7
		C469.8,437.7,469.7,437,469.6,436.1z M469.6,434.1v-4.2c-0.6-0.2-1.1-0.2-1.6-0.2c-1,0-1.9,0.4-2.5,1.2s-1,1.8-1,3.2
		c0,1,0.2,1.7,0.5,2.2c0.4,0.5,0.8,0.7,1.3,0.7c0.5,0,1.1-0.3,1.7-0.8S469.1,435,469.6,434.1z"/>
	<path d="M477.2,438.3l-4.3-9.8h1.8l3.4,7.8l3.4-7.8h1.6l-4.3,9.8H477.2z"/>
	<path d="M491.2,436.1c-0.5,0.8-1.1,1.4-1.8,1.8c-0.7,0.4-1.3,0.6-1.9,0.6c-0.8,0-1.6-0.4-2.2-1.1s-1-1.8-1-3.2c0-1.1,0.2-2.2,0.7-3
		c0.4-0.9,1-1.6,1.7-2.1c0.7-0.5,1.6-0.8,2.7-0.8c0.3,0,0.8,0,1.4,0.1c0.1,0,0.2,0,0.4,0h1.6v6.9c0,1.2,0.1,2.1,0.4,2.9h-1.7
		C491.4,437.7,491.3,437,491.2,436.1z M491.2,434.1v-4.2c-0.6-0.2-1.1-0.2-1.6-0.2c-1,0-1.9,0.4-2.5,1.2s-1,1.8-1,3.2
		c0,1,0.2,1.7,0.5,2.2c0.4,0.5,0.8,0.7,1.3,0.7c0.5,0,1.1-0.3,1.7-0.8S490.7,435,491.2,434.1z"/>
</g>
</svg>
