<?xml version="1.0" encoding="utf-8"?>
<!-- Generator: Adobe Illustrator 18.0.0, SVG Export Plug-In . SVG Version: 6.00 Build 0)  -->
<!DOCTYPE svg PUBLIC "-//W3C//DTD SVG 1.1//EN" "http://www.w3.org/Graphics/SVG/1.1/DTD/svg11.dtd">
<svg version="1.1" id="Layer_1" xmlns="http://www.w3.org/2000/svg" xmlns:xlink="http://www.w3.org/1999/xlink" x="0px" y="0px"
	 viewBox="0 0 2929.3 1055.4" enable-background="new 0 0 2929.3 1055.4" xml:space="preserve">
<g>
	<path fill-rule="evenodd" clip-rule="evenodd" d="M1761,251.7c34.5,0,62.4,31.4,62.4,70.2c0,38.8-27.9,70.2-62.4,70.2
		c-34.5,0-62.4-31.4-62.4-70.2C1698.5,283.2,1726.4,251.7,1761,251.7z"/>
	<rect x="2759.8" y="975.6" fill-rule="evenodd" clip-rule="evenodd" width="52.2" height="26.1"/>
	<path fill-rule="evenodd" clip-rule="evenodd" d="M1816.1,412.9c7.4,3.2,14.1,7.4,19.7,13l66.9,66.9l66.3-66.3
		c7.7-7.8,18.3-10.6,28.2-8.5l31-115.4c4.6-16.6,21.5-26.5,38.1-22.2c16.6,4.6,26.5,21.5,22.2,38.1l-45.2-12l-31.8,118.5
		c0.7,0.3,1.1,1,1.4,1.4c12,12,12,32.1,0,44.1l-89.9,90l-2.9,1.3c-0.3,0.3-0.7,0.7-1.4,1.1l-10,4.6h-14.3l-14.3-6.5l-27.2-27.2
		v218.7h-6.3v218.7c0,17.3-14.1,31.4-31.4,31.4h-18.7c-17.3,0-31.4-14.1-31.4-31.4V752.5h-12.3v218.7c0,17.3-14.1,31.4-31.4,31.4
		h-18.7c-17.3,0-31.4-14.1-31.4-31.4V752.5h-6.3V629.7l-70.2-70.2c-6.3-6.3-9.5-15.2-9.2-23.7c0-0.7,0-1.4,0.3-2.1v-3.6l6.5-14.4
		l90.3-90.3c5.7-5.7,12.3-10.2,20.1-13.4l2.1,2.8l1.4,1.8l1,1l0.7,1l1.1,1.4l0.3,0.3l1.4,1.8l2.3,2.3v0.3l12.5,12.5h0.3l2,2h0.3
		l0.3,0.3h0.3l2.3,2.3c-5.3,6-8.1,13.7-7.4,21.9l1,12l11.7-2.8c7-1.8,13.4-4.6,18.3-9.5c5,4.6,11.3,7.7,18.3,9.5l11.7,2.8l1-9.5
		l0.3-2.5c0.7-8.1-2.1-15.9-7.4-21.9l2.3-2.3h0.3l0.3-0.3h0.3l2-2h0.3l4.9-4.9h0.3l7.2-7.2V425l2.6-2.6v-0.3l4.2-4.2l1.4-1.8
		l2.1-2.8L1816.1,412.9z M1667.2,540.6v-7.4l-3.9,3.9l3.9,3.9V540.6z"/>
	<path fill-rule="evenodd" clip-rule="evenodd" d="M1755.4,408h10.6c-1.4,6.3-3.2,12.3-5.3,18.3
		C1758.2,420.3,1756.4,414.3,1755.4,408z"/>
	<path fill-rule="evenodd" clip-rule="evenodd" d="M1792,408c4.6,0,9.2,0.3,13.4,1.4c-10.2,14.5-23.7,26.8-39.5,37v0.3
		c7.8,1.4,16.6,9.9,15.5,20.1c-8.8-2.1-15.5-6.3-19.4-14.8c-0.3,0-1,0.3-1.8,0.3s-1.1,0-1.8-0.3c-3.5,8.5-10.5,12.7-19.4,14.8
		c-1-10.2,7.8-18.7,15.5-20.1v-0.3c-15.9-10.2-29.3-22.5-39.5-37c4.2-1,8.8-1.4,13.4-1.4h15.2c2.1,12,6.3,24.3,12.3,35.3
		c1-1.1,2.1-1.4,3.5-1.4c1.4,0,2.8,0.7,3.5,1.4c6-11.3,10.2-23.3,12.3-35.3h15.2H1792z"/>
	<polygon fill-rule="evenodd" clip-rule="evenodd" points="2080.5,702.2 2054.4,962.5 2877,962.5 2851.2,702.2 	"/>
	<path fill-rule="evenodd" clip-rule="evenodd" d="M2618.4,545.9c0,11.7,37.4,20.8,83.2,20.8c45.9,0,83.2-9.2,83.2-20.8H2618.4z"/>
	<path fill-rule="evenodd" clip-rule="evenodd" d="M2618.4,577.3c0,11.7,37.4,20.8,83.2,20.8c45.9,0,83.2-9.2,83.2-20.8H2618.4z"/>
	<path fill-rule="evenodd" clip-rule="evenodd" d="M2618.4,608.7c0,11.7,37.4,20.8,83.2,20.8c45.9,0,83.2-9.2,83.2-20.8H2618.4z"/>
	<path fill-rule="evenodd" clip-rule="evenodd" d="M2618.4,639.8c0,11.7,37.4,20.8,83.2,20.8c45.9,0,83.2-9.2,83.2-20.8H2618.4z"/>
	<path fill-rule="evenodd" clip-rule="evenodd" d="M2618.4,671.2c0,11.7,37.4,20.8,83.2,20.8c45.9,0,83.2-9.2,83.2-20.8H2618.4z"/>
	<path fill-rule="evenodd" clip-rule="evenodd" d="M2576.8,483.5h-208.5V546c0,11.3,9.5,20.8,20.8,20.8h166.5
		c11.3,0,20.8-9.5,20.8-20.8v-62.4H2576.8z"/>
	<polygon fill-rule="evenodd" clip-rule="evenodd" points="2556,577.3 2556,692 2535.2,692 2535.2,645.1 2410.3,645.1 2410.3,692 
		2389.5,692 2389.5,577.3 2410.3,577.3 2410.3,624.2 2535.2,624.2 2535.2,577.3 	"/>
	<path fill-rule="evenodd" clip-rule="evenodd" d="M2425.2,473.3c-5.3-11.7-8.5-22.9-8.5-32.1c0-10.6,9.9-17.7,24.3-21.5
		c10.6,27.9,41.6,62.4,64.9,39.2c12-12,8.8-26.1-1.1-38.4c31,7.4,58.9,24.7,61.7,52.9h-141.8L2425.2,473.3z"/>
	<path fill-rule="evenodd" clip-rule="evenodd" d="M1719,126.9h83.2V256c-11.7-8.8-25.7-14.5-41.7-14.5c-15.9,0-30.3,5.3-41.6,14.5
		L1719,126.9L1719,126.9z"/>
	<rect x="2119.3" y="975.6" fill-rule="evenodd" clip-rule="evenodd" width="52.2" height="26.1"/>
	<path fill-rule="evenodd" clip-rule="evenodd" d="M2444.5,397.1c-9.5,9.5,29.7,84.3,57.2,57.2
		C2528.9,427.1,2454,387.6,2444.5,397.1z"/>
	<path fill-rule="evenodd" clip-rule="evenodd" d="M2420.9,472.9c0.3-0.7-3.2-3.5-5-5c-4.2-3.9,0-5.7-1.1-8.8
		c-0.7-1.8-2.5-15.2-8.8-7c-7.8,9.9-3.9-7.4-13.7-7.4c-14.1,0,7,12-14.8,10.9c-4.6-0.3,3.9,8.8,0.3,9.5c-12,2.5-2.1,5.7-3.2,8.5
		h46.2V472.9z"/>
	<path fill-rule="evenodd" clip-rule="evenodd" d="M2326.7,483.5h-208.4V546c0,11.3,9.5,20.8,20.8,20.8h166.5
		c11.3,0,20.8-9.5,20.8-20.8v-62.4H2326.7z"/>
	<polygon fill-rule="evenodd" clip-rule="evenodd" points="2305.9,577.3 2305.9,692 2285.1,692 2285.1,645.1 2160.3,645.1 
		2160.3,692 2139.4,692 2139.4,577.3 2160.3,577.3 2160.3,624.2 2285.1,624.2 2285.1,577.3 	"/>
	<path fill-rule="evenodd" clip-rule="evenodd" fill="#39B54A" d="M2318.6,473.3c5.3-5,5.7-12.3-3.2-12c-1.4,0-7.8,9.5-8.1-3.2
		c0-2.1,5.7-12.7-3.9-10.5c-8.1,1.8,1.4,10.2-7.8,10.2c-8.5,0-7.8,7-11.3-7c0,0-5.3-5-5.3,5.7c0,10.9-11.3,5.7-13,10.6
		c-0.3,0.7-0.3,1-0.7,1.4c1.8,1,3.2,2.8,4.6,4.6h48.7V473.3z"/>
	<path fill-rule="evenodd" clip-rule="evenodd" fill="#39B54A" d="M2260.8,473.3c-0.3,0-0.7-0.3-1.4-0.3c-14.1-1.4-8.1-1.4-11.3-8.8
		c-1-2.8-10.2,6.3-10.5-6c-0.3-5.3-7.4,5.7-8.1-11.3c0-3.9-15.2-13-15.2-5.3c0,18.3-5,4.2-9.9,12.3c-1.4,2.5-7.7-1.4-9.9,3.9
		c-2.8,7-17.7,1.8-20.1-1.1c-3.5-3.5-8.5,0.3-8.5,6c0,11.7-9.2,7.4-13,10.2h108.3L2260.8,473.3z"/>
	<path fill-rule="evenodd" clip-rule="evenodd" fill="#39B54A" d="M2159.1,464.1c-9.2-3.9-12.3,6-13-11.3c0-5.3-13-8.8-13-1.8
		c0,14.8-6.7,4.2-5.7,9.9c1.8,13.4-4.6-3.2-4.6,12.3h22.2l0.3-0.7c3.5-8.1,10.2-5.3,13.7-7c0-0.3,0.3-0.7,0.3-1.1L2159.1,464.1z"/>
	<path fill-rule="evenodd" clip-rule="evenodd" fill="#39B54A" d="M2259.3,464.1c3.9,0,6.3-5,10.6-9.5c6.3-7-19.8-5.7-17.3,7
		c0,0.3,5.7,2.1,6.7,2.1V464.1z"/>
	<path fill-rule="evenodd" clip-rule="evenodd" fill="#39B54A" d="M2244.1,454.6c10.9,1.1,4.2-12.3,14.8-13c6.3-0.3,0.3-5.7-2.8-7.4
		c-6.3-3.5-10.2-2.8-15.2-8.8c-10.6,1.8-6.7,13.4-6.3,20.8c0,2.8,7,8.1,9.5,8.1V454.6z"/>
	<path fill-rule="evenodd" clip-rule="evenodd" fill="#39B54A" d="M2274.8,446.8c9.9-1.1,2.5-6.3,15.2,1.4c10.9,7,8.5-7.4,3.2-11
		c-9.2-6-15.5-12-23.6,2.5c-1.8,3.2,0.7,7.8,5.7,7H2274.8z"/>
	<path fill-rule="evenodd" clip-rule="evenodd" fill="#39B54A" d="M2188.4,453.9c9.5-2.5,0-4.6,14.8-4.9c1,0,8.8-3.2,3.2-8.8
		c-4.2-4.2,0.3-7-9.2-6.7c-3.9,0-5.7,9.2-9.9,10.6c-4.2,1.4-3.9,6,0,8.8C2188,453.1,2188,453.8,2188.4,453.9L2188.4,453.9z"/>
	<path fill-rule="evenodd" clip-rule="evenodd" fill="#39B54A" d="M2211.4,436.6c8.1-7,18,3.9,18-5c0-8.1,0-10.5-11.3-10.9
		c-13.4-0.3-9.5,12.3-8.5,13c0.7,0.3,1.8,2.5,1.8,2.5V436.6z"/>
	<path fill-rule="evenodd" clip-rule="evenodd" fill="#39B54A" d="M2160.6,460.2c5-6,9.5-11.7,2.1-18c-4.2-3.5-12-1-12,3.5
		c0,9.5-2.5,9.5,6,14.1c1,0.7,3.2,1,4.2,0.3L2160.6,460.2z"/>
	<path fill-rule="evenodd" clip-rule="evenodd" fill="#39B54A" d="M2177.1,450.7c2.8-0.3,4.2-7,8.8-8.8c6.7-2.8-4.6-12.7-14.1-7
		c-5.7,3.5-1.4,8.5-0.7,12.3C2171.5,450.4,2174.7,451.1,2177.1,450.7z"/>
	<path fill-rule="evenodd" clip-rule="evenodd" fill="#39B54A" d="M2189.5,433.4c6.3-6.3,2.5-3.2,10.2-5.3c4.6-1,8.5-5.7,6.3-10.5
		c-5.3-12.7-6.3-13-19-6.3c-8.8,4.6-9.5,4.6-5,14.8c1.8,3.9,1.4,6.7,7,7h0.3L2189.5,433.4z"/>
</g>
<path d="M439.7,484.3c36,0,65-29.1,65-65c0-35.9-29.1-65-65-65c-35.9,0-65,29.1-65,65C374.6,455.2,403.7,484.3,439.7,484.3z"/>
<path d="M331.3,657.8v-65h21.6v86.7h173.5v-86.7h21.7v86.7h54.2v-97.6c0-32.5-21.7-75.9-75.9-75.9H353c-54.3,0-76,43.4-76,75.9v97.6
	h54.3V657.8z"/>
<polygon points="52.4,710.7 52.4,755 114.4,755 114.4,976.4 184.6,976.4 184.6,755 714.2,755 714.2,976.4 784.3,976.4 784.3,755 
	846.8,755 846.8,710.7 "/>
<g>
	<polygon fill="#FFFFFF" points="386.7,648.6 407.7,635.3 419,624.1 438.1,617.2 455.6,617.4 466.4,624.9 489,638.9 500.6,656.7 
		482,680.1 424.6,683 391,668.6 	"/>
	<g>
		<path fill="#39B54A" d="M441.4,666.2c-2.5-8.5,11.2-13.7,11-5.1c1.3,4.6,1.6,7.2-3,8.1C445.2,670,442.7,670.5,441.4,666.2z"/>
		<path fill="#39B54A" d="M451.3,638c-1.4,4.6,5.4,5.3,3.6,10.4c3.5,0,2.5-2.8,3.8-5.1c1.9-3.3,6.3-4.1,6-8.7c0.3,8.4,5-0.6,8.1-0.9
			c0.2-1.6-0.6-3.5-0.7-4.6c-1.5-3.3-1.4-6.5-5.6-4.2c-3,1.6-6.9,4.8-3.1,7.7C459.5,633.2,452.7,633.2,451.3,638z"/>
		<path fill="#39B54A" d="M441.5,625.9c-1.7,1-2.7,4.8-3,6.6c-0.7,3.3-0.5,14,5.1,12.2c3.2-1,2.6-5.8,3.9-8.4c0.8-1.7,2-1.4,2.5-3.2
			c0.3-1.3-0.4-3.4-0.6-4.7c2.1,5.5,10.4,3,8.4-2.5c-1.7-1.5-4.9-2.5-7.1-1.3c-3.1,1.7-0.3,3.5-2.7,3.6
			C446.2,628.2,444.9,624,441.5,625.9z"/>
		<path fill="#39B54A" d="M450.5,649.4c-2.3-7.6-16,3.4-13.4,8.2c1.9,3.5,5.1-2.4,7-3.4C446.8,652.8,451.1,654.1,450.5,649.4z"/>
		<path fill="#39B54A" d="M455.7,621.5c2.1,0.9,4.5,0.7,3.8-2.4c-3.1-2.5-11.9-3.2-11.6,2.5C450.4,621.3,453.3,620.5,455.7,621.5z"
			/>
		<path fill="#39B54A" d="M461.6,651.3c2.3-1.6,6.2-1.4,5.6-5.2c-3.9-8.8-11,8.7-11.6,11.7C458.3,656.6,459.1,653,461.6,651.3z"/>
		<path fill="#39B54A" d="M478,662.7c1.3,2.6,7.1,0.9,10-0.5c3.8-1.9,4.7-4.4,3.8-8.6C489.1,642.8,474.4,655.7,478,662.7z"/>
		<path fill="#39B54A" d="M469.2,667c3.2-2.7,2.4-11.4,1.9-15c-3.3-0.5-7.4,0.9-9.8,3.3c-1.7,1.8-6.6,10.1-4.6,12.5
			C458,669.5,468,668,469.2,667z"/>
		<path fill="#39B54A" d="M487.9,645.9c2.6-0.5,1.6-4.6,1.2-7c-0.2-6.3-6.9-1.2-5.7,3.3C483.8,643.9,485.7,646.3,487.9,645.9z"/>
		<path fill="#39B54A" d="M470.4,645.9c1,1.9,3.6,1.9,4.2,5.2c0.8,3.8-0.9,7.7-0.4,11.5c2.4-2,2-9.1,4.1-12.4
			c1.2-1.9,2.7-2.2,2.7-4.5c0-1.6-1.5-3.7-2.3-5c2.5-0.1,4.9-8.9,1.5-8.7c-1.8-2.6-3.8-3-4.7-0.2c-0.9,3,2.7,5.9,3.6,8.4
			C474.9,637.9,467.1,639.8,470.4,645.9z"/>
		<path fill="#39B54A" d="M418.4,644.9c1.7-0.1,1.4,1.5,3.1,0.8c1.7-0.7,2.9-3.8,4-5.3c1.8-7.9-14.3-6.7-13,2.7
			C413.1,646.9,414.7,645.2,418.4,644.9z"/>
		<path fill="#39B54A" d="M411.1,635.7c-0.4-3.3-5.3-4.2-6.7-1C403.4,637,410.5,643.6,411.1,635.7z"/>
		<path fill="#39B54A" d="M409.4,655.1c-1.1,2.2-1.5,5-1.3,7.5c0.4,4.4,0.8,3.4,3.9,4.4c1.7,0.5,4.5,2.1,6.3,1.8
			c3.6-0.6,2-1.6,1.3-4.2c-0.6-2.1-1.9-4.3-1.9-6.5c0-3.1,2.6-5.1,2.3-8.3C417.6,642.9,410.7,652.3,409.4,655.1z"/>
		<path fill="#39B54A" d="M396.2,646.4c1.6,0.7,2.2,3.5,3.8,3.9c1.4,0.3,2.9-1.6,5.1-1.3c1.9,0.3,2.3,3.9,4.3,0.8
			c1.2-1.8,0.8-3.9,0.1-5.9c-4.1-4-9.2-6-14.4-3.4c-1.1,0.6-5.5,1.8-3.5,3.7C393.7,646.2,394.3,645.6,396.2,646.4z"/>
		<path fill="#39B54A" d="M444.6,618.7c-2.7-4.8-15.8-5.2-13.3,2.5C433,626.2,445.5,624.8,444.6,618.7z"/>
		<path fill="#39B54A" d="M395.5,648.6c-3,1.7-6.1,4.5-4.4,8.4c3.1,6.9,4.2,3.1,6.1-1.2c0.5,2.9-0.1,5.9,2.9,7.3
			c3.3,1.6,4.7-0.1,5-3.5c0.2-2.2,1.7-7.8-1.2-8.5c-2.1-0.5-4.4,3.1-6.4,3.6c0.3-1,0.5-2.2,1-3.1
			C398.1,650.2,396.8,649.4,395.5,648.6z"/>
		<path fill="#39B54A" d="M429.6,636.5c0.6,3.1-3.5,7.4-5,9.7c1.2-0.6,1.2-0.1,2.1-1.1c0.1,1.6,0.2,3.1,0.4,4.7
			c4.3-0.6,5.4,4,8.7-1.4c3.1-5.1-0.1-7.4-5.2-6.7c1-2.9,3.7-0.2,4.3-3.4c0.7-3.1,0.6-6.3,1.3-9.4c-1.3-1.5-4.4-3.6-6.4-3
			c-1.4,0.4-4.7,4.6-4.6,5.8C425.6,634.2,429,633.8,429.6,636.5z"/>
		<path fill="#39B54A" d="M421.9,657.9c-3.1,4.3,1.1,4.3,2.7,6.1c1.7,1.9,1.1,4.5,3.3,4.9c1.6,0.3,5,1.7,6.6,0.5
			c3.2-2.4-0.9-9.2-2.4-11.9C430.1,654.5,424,654.9,421.9,657.9z"/>
		<path d="M504.1,657.7c0-4.5-2.6-8.7-7-12.4c-1.9,1.2-3.9,2.3-5.9,3.2c2.9,2.1,4.4,4.5,4.4,7c0,9.7-24.1,17.6-53.8,17.6
			s-53.8-7.9-53.8-17.6c0-2.7,2-5.3,5.5-7.7l-5.6-3.6c-5.2,4-8.3,8.6-8.3,13.5c0,0.3,0,0.5,0,0.8h0c0.4,10.5,3.7,21.5,9,31.9
			c0,0,13,25.7,53.2,25.7s53-25.9,53-25.9c5.4-10.3,8.9-21.4,9.2-31.6h0C504.1,658.2,504.1,658,504.1,657.7z"/>
		<path fill="#39B54A" d="M426.9,624.1c2.1-7.3-15.3-0.2-12.3,7.5C416.8,637.1,425.3,626.7,426.9,624.1z"/>
	</g>
</g>
<g>
	<g>
		<g>
			<path fill="#52BE61" d="M891.1,650c9.3-8.2,18.3-16.4,27.2-24.8c8.8-8.5,17.4-17,25.8-25.7c0,0,5.8,1.6,11.5,3.2
				c2.9,0.8,5.8,1.5,8,2.1c2.2,0.5,3.6,0.9,3.6,0.9s-2.5,2.8-6.3,6.9c-3.8,4.1-8.9,9.7-14.1,15c-5.2,5.4-10.5,10.8-14.5,14.8
				c-4,4-6.8,6.6-6.8,6.6s1.9,0.6,5.3,1.5c3.4,0.9,8.2,2.3,14,3.9c2.9,0.7,6.1,1.5,9.4,2.4c1.7,0.4,3.4,0.9,5.1,1.3
				c0.9,0.2,1.8,0.4,2.7,0.6c1,0.2,2,0.5,3,0.7c19.8,4.6,40.5,8.7,61.7,11.7c21.2,3.1,42.8,5.3,64.5,6.6c43.4,2.6,87,1.4,127.5-2.9
				c20.3-2.1,39.8-5.1,58.1-8.5c18.4-3.4,35.6-7.2,51.4-11.4c2-0.5,3.9-1,5.9-1.5c1.9-0.5,3.8-1.1,5.7-1.6c3.8-1.1,7.4-2.1,11-3.1
				c3.6-1.1,7-2.1,10.4-3.2c1.7-0.5,3.3-1,5-1.5c1.6-0.5,3.2-1.1,4.8-1.6c6.3-2.1,12.2-4,17.6-5.9c5.4-1.9,10.4-3.6,14.8-5.4
				c4.4-1.7,8.4-3.2,11.8-4.5c3.4-1.4,6.3-2.6,8.7-3.6c4.7-1.9,7.2-3,7.2-3l8.8,20.9c0,0-2.6,1.1-7.4,3.1c-2.4,1-5.4,2.2-8.9,3.7
				c-3.6,1.4-7.6,2.9-12.2,4.7c-4.6,1.8-9.7,3.5-15.2,5.5c-5.5,2-11.6,4-18.1,6.1c-1.6,0.5-3.3,1.1-4.9,1.6c-1.7,0.5-3.4,1-5.1,1.6
				c-3.5,1.1-7,2.1-10.7,3.3c-3.7,1-7.5,2.1-11.3,3.2c-1.9,0.5-3.9,1.1-5.9,1.6c-2,0.5-4,1-6,1.5c-16.2,4.3-34,8.2-52.9,11.7
				c-18.9,3.5-39,6.6-59.8,8.7c-41.7,4.4-86.6,5.7-131.3,3c-22.3-1.3-44.6-3.6-66.4-6.8c-21.8-3.2-43.1-7.3-63.5-12.1
				c-1.1-0.2-2.1-0.5-3.1-0.7c-0.9-0.2-1.8-0.4-2.8-0.7c-1.8-0.5-3.6-0.9-5.3-1.3c-3.4-0.9-6.7-1.7-9.7-2.5c-6-1.7-11-3-14.5-4
				c-3.5-0.9-5.5-1.6-5.5-1.6s0.9,3.7,2.4,9.3c1.5,5.5,3.5,12.9,5.6,20.3c2.1,7.5,4.4,14.8,6.1,20.3c1.8,5.5,3,9.2,3,9.2
				s-1.7-0.4-4.3-1.1c-2.6-0.7-6-1.5-9.4-2.4c-6.8-1.9-13.7-3.8-13.7-3.8c-3.5-12.1-6.7-24.3-9.6-36.3
				C896.1,674.1,893.5,662,891.1,650z"/>
		</g>
	</g>
</g>
<g>
	<g>
		<g>
			<path fill="#52BE61" d="M1505.7,428.1c-20.4,14.1-39.9,28.5-58.6,43.9c0,0-1.4-0.6-3.5-1.5c-2.1-0.9-4.8-2.1-7.6-3.2
				c-5.6-2.2-11.2-4.3-11.2-4.3s11.2-9.8,22.9-19.4c11.6-9.4,23.7-18.6,23.7-18.6s-1.8-0.8-5.1-2.2c-1.6-0.7-3.6-1.5-5.8-2.5
				c-1.1-0.5-2.3-1-3.6-1.5c-1.3-0.5-2.6-1-4-1.6c-2.8-1.1-5.9-2.3-9.1-3.5c-1.6-0.6-3.3-1.3-5-1.9c-0.8-0.3-1.7-0.7-2.6-1
				c-0.4-0.2-0.9-0.3-1.3-0.5c-0.6-0.2-1.1-0.4-1.7-0.6c-21.2-7.7-43.4-14.8-66.2-21c-22.9-6-46.4-11.2-70.1-15.4
				c-23.7-4-47.6-6.9-71.2-8.9c-23.6-1.8-46.9-2.5-69.4-2.3c-5.6,0.1-11.2,0.3-16.7,0.4c-2.8,0.1-5.5,0.2-8.3,0.2
				c-2.7,0.1-5.5,0.3-8.2,0.4c-10.8,0.6-21.4,1.4-31.8,2.3c-20.6,1.9-40.1,4.4-58.1,6.9c-35.9,5.2-65.8,10.7-86.8,14.5
				c-21,3.9-32.9,6.1-32.9,6.1l-4.2-22.3c0,0,12-2.2,33-6.1c10.5-1.9,23.3-4.2,38-6.8c14.7-2.5,31.4-5.3,49.6-7.9
				c18.3-2.6,38.1-5.1,59.2-7.1c10.6-0.9,21.4-1.8,32.6-2.4c2.8-0.1,5.6-0.3,8.4-0.4c2.8-0.1,5.7-0.2,8.5-0.2
				c5.7-0.1,11.4-0.4,17.2-0.5c23.2-0.2,47.2,0.6,71.5,2.4c24.3,2,48.8,5.1,73.3,9.2c24.4,4.3,48.5,9.7,72.1,15.9
				c23.5,6.5,46.4,13.7,68.2,21.7c0.6,0.2,1.2,0.4,1.7,0.6c0.4,0.2,0.9,0.3,1.3,0.5c0.9,0.3,1.8,0.7,2.6,1c1.7,0.7,3.4,1.3,5.1,2
				c3.3,1.3,6.4,2.5,9.3,3.6c1.4,0.6,2.8,1.1,4.1,1.6c1.3,0.5,2.5,1.1,3.7,1.6c2.3,1,4.3,1.8,6,2.5c3.3,1.4,5.2,2.2,5.2,2.2
				s-1.9-15.1-4.3-30.4c-2.4-15.1-5.4-30.4-5.4-30.4s6.6,2.6,13.2,5.1c3.3,1.3,6.5,2.7,9,3.7c2.4,1,4.1,1.7,4.1,1.7
				C1500.9,378.7,1503.7,403.7,1505.7,428.1z"/>
		</g>
	</g>
</g>
<g>
	<path d="M2186.4,152.5c0,0,13.3,12.9,30.5,12.9c9.3,0,17.8-4.8,17.8-14.8c0-21.9-57.7-18.1-57.7-55.7c0-20.3,17.6-35.5,41-35.5
		c24.1,0,36.5,13.1,36.5,13.1l-9.7,18.1c0,0-11.7-10.7-27.1-10.7c-10.3,0-18.4,6-18.4,14.7c0,21.7,57.6,16.4,57.6,55.5
		c0,19.5-14.8,35.9-40.3,35.9c-27.2,0-42.2-16.7-42.2-16.7L2186.4,152.5z"/>
	<path d="M2314.1,93.9c25.3,0,39,18.4,39,41.7c0,2.6-0.5,8.4-0.5,8.4h-60.7c1.4,15.3,13.3,23.3,26.4,23.3c14.1,0,25.3-9.7,25.3-9.7
		l8.4,15.7c0,0-13.4,12.6-35.3,12.6c-29.1,0-47.2-21-47.2-46C2269.5,112.8,2287.9,93.9,2314.1,93.9z M2331,129
		c-0.3-11.9-7.8-18.3-17.4-18.3c-11.2,0-19,6.9-21,18.3H2331z"/>
	<path d="M2371.2,95.9h21v15.2c0,3.3-0.3,6.2-0.3,6.2h0.3c4-12.6,14.5-22.6,27.9-22.6c2.1,0,4,0.3,4,0.3v21.5c0,0-2.2-0.3-5.2-0.3
		c-9.3,0-19.8,5.3-24,18.4c-1.4,4.3-1.9,9.1-1.9,14.3v34.8h-21.9V95.9z"/>
	<path d="M2429.1,95.9h23.1l18.3,54.5c1.7,5.2,2.9,13.3,3.1,13.3h0.3c0.2,0,1.4-8.1,3.1-13.3l18.3-54.5h23.1l-31.5,87.9H2461
		L2429.1,95.9z"/>
	<path d="M2569.1,93.9c25.3,0,39,18.4,39,41.7c0,2.6-0.5,8.4-0.5,8.4h-60.7c1.4,15.3,13.3,23.3,26.4,23.3c14.1,0,25.3-9.7,25.3-9.7
		l8.4,15.7c0,0-13.4,12.6-35.3,12.6c-29.1,0-47.2-21-47.2-46C2524.4,112.8,2542.9,93.9,2569.1,93.9z M2585.9,129
		c-0.3-11.9-7.8-18.3-17.4-18.3c-11.2,0-19,6.9-21,18.3H2585.9z"/>
	<path d="M2626.1,95.9h21v15.2c0,3.3-0.3,6.2-0.3,6.2h0.3c4-12.6,14.5-22.6,27.9-22.6c2.1,0,4,0.3,4,0.3v21.5c0,0-2.2-0.3-5.2-0.3
		c-9.3,0-19.8,5.3-24,18.4c-1.4,4.3-1.9,9.1-1.9,14.3v34.8h-21.9V95.9z"/>
</g>
<g>
	<path d="M266.8,59.4c29.8,0,45.2,16.7,45.2,16.7l-10.7,16.5c0,0-14-12.9-33.4-12.9c-25.9,0-41,19.3-41,42.1
		c0,23.3,15.7,43.8,41.2,43.8c21.2,0,35.5-15.5,35.5-15.5l11.7,16c0,0-16.9,19.8-48.1,19.8c-37.4,0-63.3-27.8-63.3-63.8
		C203.9,86.6,230.8,59.4,266.8,59.4z"/>
	<path d="M331.1,61.4h21.7v91.7c0,9.7,3.3,12.1,9,12.1c1.7,0,3.3-0.2,3.3-0.2v19.1c0,0-3.3,0.5-6.9,0.5c-12.1,0-27.1-3.1-27.1-28.3
		V61.4z"/>
	<path d="M381.2,61.4H403v19.5h-21.7V61.4z M381.2,95.9h21.9v87.9h-21.9V95.9z"/>
	<path d="M465.7,93.9c25.3,0,39,18.4,39,41.7c0,2.6-0.5,8.4-0.5,8.4h-60.7c1.4,15.3,13.3,23.3,26.4,23.3c14.1,0,25.3-9.7,25.3-9.7
		l8.4,15.7c0,0-13.4,12.6-35.3,12.6c-29.1,0-47.2-21-47.2-46C421.1,112.8,439.5,93.9,465.7,93.9z M482.6,129
		c-0.3-11.9-7.8-18.3-17.4-18.3c-11.2,0-19,6.9-21,18.3H482.6z"/>
	<path d="M522.8,95.9h21v10.2c0,3.3-0.3,6-0.3,6h0.3c3.8-7.4,13.4-18.3,31.2-18.3c19.5,0,30.5,10.2,30.5,33.4v56.5h-21.7v-52.1
		c0-10.7-2.8-17.9-14-17.9c-11.7,0-20.3,7.4-23.6,17.9c-1.2,3.6-1.6,7.6-1.6,11.7v40.3h-21.9V95.9z"/>
	<path d="M632.2,114.7h-11.4V97.3h11.9V72h21.4v25.3h20v17.4h-20v34.1c0,14.5,11.4,16.5,17.4,16.5c2.4,0,4-0.3,4-0.3v19.1
		c0,0-2.6,0.5-6.7,0.5c-12.2,0-36.5-3.6-36.5-33.1V114.7z"/>
</g>
</svg>
