<?xml version="1.0" encoding="utf-8"?>
<!-- Generator: Adobe Illustrator 18.0.0, SVG Export Plug-In . SVG Version: 6.00 Build 0)  -->
<!DOCTYPE svg PUBLIC "-//W3C//DTD SVG 1.1//EN" "http://www.w3.org/Graphics/SVG/1.1/DTD/svg11.dtd">
<svg version="1.1" id="Layer_1" xmlns="http://www.w3.org/2000/svg" xmlns:xlink="http://www.w3.org/1999/xlink" x="0px" y="0px"
	 viewBox="0 0 2929.3 1055.4" enable-background="new 0 0 2929.3 1055.4" xml:space="preserve">
<g>
	<path fill-rule="evenodd" clip-rule="evenodd" d="M1761,251.7c34.5,0,62.4,31.4,62.4,70.2c0,38.8-27.9,70.2-62.4,70.2
		c-34.5,0-62.4-31.4-62.4-70.2C1698.5,283.2,1726.4,251.7,1761,251.7z"/>
	<rect x="2759.8" y="975.6" fill-rule="evenodd" clip-rule="evenodd" width="52.2" height="26.1"/>
	<path fill-rule="evenodd" clip-rule="evenodd" d="M1816.1,412.9c7.4,3.2,14.1,7.4,19.7,13l66.9,66.9l66.3-66.3
		c7.7-7.8,18.3-10.6,28.2-8.5l31-115.4c4.6-16.6,21.5-26.5,38.1-22.2c16.6,4.6,26.5,21.5,22.2,38.1l-45.2-12l-31.8,118.5
		c0.7,0.3,1.1,1,1.4,1.4c12,12,12,32.1,0,44.1l-89.9,90l-2.9,1.3c-0.3,0.3-0.7,0.7-1.4,1.1l-10,4.6h-14.3l-14.3-6.5l-27.2-27.2
		v218.7h-6.3v218.7c0,17.3-14.1,31.4-31.4,31.4h-18.7c-17.3,0-31.4-14.1-31.4-31.4V752.5h-12.3v218.7c0,17.3-14.1,31.4-31.4,31.4
		h-18.7c-17.3,0-31.4-14.1-31.4-31.4V752.5h-6.3V629.7l-70.2-70.2c-6.3-6.3-9.5-15.2-9.2-23.7c0-0.7,0-1.4,0.3-2.1v-3.6l6.5-14.4
		l90.3-90.3c5.7-5.7,12.3-10.2,20.1-13.4l2.1,2.8l1.4,1.8l1,1l0.7,1l1.1,1.4l0.3,0.3l1.4,1.8l2.3,2.3v0.3l12.5,12.5h0.3l2,2h0.3
		l0.3,0.3h0.3l2.3,2.3c-5.3,6-8.1,13.7-7.4,21.9l1,12l11.7-2.8c7-1.8,13.4-4.6,18.3-9.5c5,4.6,11.3,7.7,18.3,9.5l11.7,2.8l1-9.5
		l0.3-2.5c0.7-8.1-2.1-15.9-7.4-21.9l2.3-2.3h0.3l0.3-0.3h0.3l2-2h0.3l4.9-4.9h0.3l7.2-7.2V425l2.6-2.6v-0.3l4.2-4.2l1.4-1.8
		l2.1-2.8L1816.1,412.9z M1667.2,540.6v-7.4l-3.9,3.9l3.9,3.9V540.6z"/>
	<path fill-rule="evenodd" clip-rule="evenodd" d="M1755.4,408h10.6c-1.4,6.3-3.2,12.3-5.3,18.3
		C1758.2,420.3,1756.4,414.3,1755.4,408z"/>
	<path fill-rule="evenodd" clip-rule="evenodd" d="M1792,408c4.6,0,9.2,0.3,13.4,1.4c-10.2,14.5-23.7,26.8-39.5,37v0.3
		c7.8,1.4,16.6,9.9,15.5,20.1c-8.8-2.1-15.5-6.3-19.4-14.8c-0.3,0-1,0.3-1.8,0.3s-1.1,0-1.8-0.3c-3.5,8.5-10.5,12.7-19.4,14.8
		c-1-10.2,7.8-18.7,15.5-20.1v-0.3c-15.9-10.2-29.3-22.5-39.5-37c4.2-1,8.8-1.4,13.4-1.4h15.2c2.1,12,6.3,24.3,12.3,35.3
		c1-1.1,2.1-1.4,3.5-1.4c1.4,0,2.8,0.7,3.5,1.4c6-11.3,10.2-23.3,12.3-35.3h15.2H1792z"/>
	<polygon fill-rule="evenodd" clip-rule="evenodd" points="2080.5,702.2 2054.4,962.5 2877,962.5 2851.2,702.2 	"/>
	<path fill-rule="evenodd" clip-rule="evenodd" d="M2618.4,545.9c0,11.7,37.4,20.8,83.2,20.8c45.9,0,83.2-9.2,83.2-20.8H2618.4z"/>
	<path fill-rule="evenodd" clip-rule="evenodd" d="M2618.4,577.3c0,11.7,37.4,20.8,83.2,20.8c45.9,0,83.2-9.2,83.2-20.8H2618.4z"/>
	<path fill-rule="evenodd" clip-rule="evenodd" d="M2618.4,608.7c0,11.7,37.4,20.8,83.2,20.8c45.9,0,83.2-9.2,83.2-20.8H2618.4z"/>
	<path fill-rule="evenodd" clip-rule="evenodd" d="M2618.4,639.8c0,11.7,37.4,20.8,83.2,20.8c45.9,0,83.2-9.2,83.2-20.8H2618.4z"/>
	<path fill-rule="evenodd" clip-rule="evenodd" d="M2618.4,671.2c0,11.7,37.4,20.8,83.2,20.8c45.9,0,83.2-9.2,83.2-20.8H2618.4z"/>
	<path fill-rule="evenodd" clip-rule="evenodd" d="M2576.8,483.5h-208.5V546c0,11.3,9.5,20.8,20.8,20.8h166.5
		c11.3,0,20.8-9.5,20.8-20.8v-62.4H2576.8z"/>
	<polygon fill-rule="evenodd" clip-rule="evenodd" points="2556,577.3 2556,692 2535.2,692 2535.2,645.1 2410.3,645.1 2410.3,692 
		2389.5,692 2389.5,577.3 2410.3,577.3 2410.3,624.2 2535.2,624.2 2535.2,577.3 	"/>
	<path fill-rule="evenodd" clip-rule="evenodd" d="M2425.2,473.3c-5.3-11.7-8.5-22.9-8.5-32.1c0-10.6,9.9-17.7,24.3-21.5
		c10.6,27.9,41.6,62.4,64.9,39.2c12-12,8.8-26.1-1.1-38.4c31,7.4,58.9,24.7,61.7,52.9h-141.8L2425.2,473.3z"/>
	<path fill-rule="evenodd" clip-rule="evenodd" d="M1719,126.9h83.2V256c-11.7-8.8-25.7-14.5-41.7-14.5c-15.9,0-30.3,5.3-41.6,14.5
		L1719,126.9L1719,126.9z"/>
	<rect x="2119.3" y="975.6" fill-rule="evenodd" clip-rule="evenodd" width="52.2" height="26.1"/>
	<path fill-rule="evenodd" clip-rule="evenodd" d="M2444.5,397.1c-9.5,9.5,29.7,84.3,57.2,57.2
		C2528.9,427.1,2454,387.6,2444.5,397.1z"/>
	<path fill-rule="evenodd" clip-rule="evenodd" d="M2420.9,472.9c0.3-0.7-3.2-3.5-5-5c-4.2-3.9,0-5.7-1.1-8.8
		c-0.7-1.8-2.5-15.2-8.8-7c-7.8,9.9-3.9-7.4-13.7-7.4c-14.1,0,7,12-14.8,10.9c-4.6-0.3,3.9,8.8,0.3,9.5c-12,2.5-2.1,5.7-3.2,8.5
		h46.2V472.9z"/>
	<path fill-rule="evenodd" clip-rule="evenodd" d="M2326.7,483.5h-208.4V546c0,11.3,9.5,20.8,20.8,20.8h166.5
		c11.3,0,20.8-9.5,20.8-20.8v-62.4H2326.7z"/>
	<polygon fill-rule="evenodd" clip-rule="evenodd" points="2305.9,577.3 2305.9,692 2285.1,692 2285.1,645.1 2160.3,645.1 
		2160.3,692 2139.4,692 2139.4,577.3 2160.3,577.3 2160.3,624.2 2285.1,624.2 2285.1,577.3 	"/>
	<path fill-rule="evenodd" clip-rule="evenodd" fill="#39B54A" d="M2318.6,473.3c5.3-5,5.7-12.3-3.2-12c-1.4,0-7.8,9.5-8.1-3.2
		c0-2.1,5.7-12.7-3.9-10.5c-8.1,1.8,1.4,10.2-7.8,10.2c-8.5,0-7.8,7-11.3-7c0,0-5.3-5-5.3,5.7c0,10.9-11.3,5.7-13,10.6
		c-0.3,0.7-0.3,1-0.7,1.4c1.8,1,3.2,2.8,4.6,4.6h48.7V473.3z"/>
	<path fill-rule="evenodd" clip-rule="evenodd" fill="#39B54A" d="M2260.8,473.3c-0.3,0-0.7-0.3-1.4-0.3c-14.1-1.4-8.1-1.4-11.3-8.8
		c-1-2.8-10.2,6.3-10.5-6c-0.3-5.3-7.4,5.7-8.1-11.3c0-3.9-15.2-13-15.2-5.3c0,18.3-5,4.2-9.9,12.3c-1.4,2.5-7.7-1.4-9.9,3.9
		c-2.8,7-17.7,1.8-20.1-1.1c-3.5-3.5-8.5,0.3-8.5,6c0,11.7-9.2,7.4-13,10.2h108.3L2260.8,473.3z"/>
	<path fill-rule="evenodd" clip-rule="evenodd" fill="#39B54A" d="M2159.1,464.1c-9.2-3.9-12.3,6-13-11.3c0-5.3-13-8.8-13-1.8
		c0,14.8-6.7,4.2-5.7,9.9c1.8,13.4-4.6-3.2-4.6,12.3h22.2l0.3-0.7c3.5-8.1,10.2-5.3,13.7-7c0-0.3,0.3-0.7,0.3-1.1L2159.1,464.1z"/>
	<path fill-rule="evenodd" clip-rule="evenodd" fill="#39B54A" d="M2259.3,464.1c3.9,0,6.3-5,10.6-9.5c6.3-7-19.8-5.7-17.3,7
		c0,0.3,5.7,2.1,6.7,2.1V464.1z"/>
	<path fill-rule="evenodd" clip-rule="evenodd" fill="#39B54A" d="M2244.1,454.6c10.9,1.1,4.2-12.3,14.8-13c6.3-0.3,0.3-5.7-2.8-7.4
		c-6.3-3.5-10.2-2.8-15.2-8.8c-10.6,1.8-6.7,13.4-6.3,20.8c0,2.8,7,8.1,9.5,8.1V454.6z"/>
	<path fill-rule="evenodd" clip-rule="evenodd" fill="#39B54A" d="M2274.8,446.8c9.9-1.1,2.5-6.3,15.2,1.4c10.9,7,8.5-7.4,3.2-11
		c-9.2-6-15.5-12-23.6,2.5c-1.8,3.2,0.7,7.8,5.7,7H2274.8z"/>
	<path fill-rule="evenodd" clip-rule="evenodd" fill="#39B54A" d="M2188.4,453.9c9.5-2.5,0-4.6,14.8-4.9c1,0,8.8-3.2,3.2-8.8
		c-4.2-4.2,0.3-7-9.2-6.7c-3.9,0-5.7,9.2-9.9,10.6c-4.2,1.4-3.9,6,0,8.8C2188,453.1,2188,453.8,2188.4,453.9L2188.4,453.9z"/>
	<path fill-rule="evenodd" clip-rule="evenodd" fill="#39B54A" d="M2211.4,436.6c8.1-7,18,3.9,18-5c0-8.1,0-10.5-11.3-10.9
		c-13.4-0.3-9.5,12.3-8.5,13c0.7,0.3,1.8,2.5,1.8,2.5V436.6z"/>
	<path fill-rule="evenodd" clip-rule="evenodd" fill="#39B54A" d="M2160.6,460.2c5-6,9.5-11.7,2.1-18c-4.2-3.5-12-1-12,3.5
		c0,9.5-2.5,9.5,6,14.1c1,0.7,3.2,1,4.2,0.3L2160.6,460.2z"/>
	<path fill-rule="evenodd" clip-rule="evenodd" fill="#39B54A" d="M2177.1,450.7c2.8-0.3,4.2-7,8.8-8.8c6.7-2.8-4.6-12.7-14.1-7
		c-5.7,3.5-1.4,8.5-0.7,12.3C2171.5,450.4,2174.7,451.1,2177.1,450.7z"/>
	<path fill-rule="evenodd" clip-rule="evenodd" fill="#39B54A" d="M2189.5,433.4c6.3-6.3,2.5-3.2,10.2-5.3c4.6-1,8.5-5.7,6.3-10.5
		c-5.3-12.7-6.3-13-19-6.3c-8.8,4.6-9.5,4.6-5,14.8c1.8,3.9,1.4,6.7,7,7h0.3L2189.5,433.4z"/>
</g>
<path d="M439.7,484.3c36,0,65-29.1,65-65c0-35.9-29.1-65-65-65c-35.9,0-65,29.1-65,65C374.6,455.2,403.7,484.3,439.7,484.3z"/>
<path d="M331.3,657.8v-65h21.6v86.7h173.5v-86.7h21.7v86.7h54.2v-97.6c0-32.5-21.7-75.9-75.9-75.9H353c-54.3,0-76,43.4-76,75.9v97.6
	h54.3V657.8z"/>
<polygon points="52.4,710.7 52.4,755 114.4,755 114.4,976.4 184.6,976.4 184.6,755 714.2,755 714.2,976.4 784.3,976.4 784.3,755 
	846.8,755 846.8,710.7 "/>
<g>
	<polygon fill="#FFFFFF" points="386.7,648.6 407.7,635.3 419,624.1 438.1,617.2 455.6,617.4 466.4,624.9 489,638.9 500.6,656.7 
		482,680.1 424.6,683 391,668.6 	"/>
	<g>
		<path fill="#39B54A" d="M441.4,666.2c-2.5-8.5,11.2-13.7,11-5.1c1.3,4.6,1.6,7.2-3,8.1C445.2,670,442.7,670.5,441.4,666.2z"/>
		<path fill="#39B54A" d="M451.3,638c-1.4,4.6,5.4,5.3,3.6,10.4c3.5,0,2.5-2.8,3.8-5.1c1.9-3.3,6.3-4.1,6-8.7c0.3,8.4,5-0.6,8.1-0.9
			c0.2-1.6-0.6-3.5-0.7-4.6c-1.5-3.3-1.4-6.5-5.6-4.2c-3,1.6-6.9,4.8-3.1,7.7C459.5,633.2,452.7,633.2,451.3,638z"/>
		<path fill="#39B54A" d="M441.5,625.9c-1.7,1-2.7,4.8-3,6.6c-0.7,3.3-0.5,14,5.1,12.2c3.2-1,2.6-5.8,3.9-8.4c0.8-1.7,2-1.4,2.5-3.2
			c0.3-1.3-0.4-3.4-0.6-4.7c2.1,5.5,10.4,3,8.4-2.5c-1.7-1.5-4.9-2.5-7.1-1.3c-3.1,1.7-0.3,3.5-2.7,3.6
			C446.2,628.2,444.9,624,441.5,625.9z"/>
		<path fill="#39B54A" d="M450.5,649.4c-2.3-7.6-16,3.4-13.4,8.2c1.9,3.5,5.1-2.4,7-3.4C446.8,652.8,451.1,654.1,450.5,649.4z"/>
		<path fill="#39B54A" d="M455.7,621.5c2.1,0.9,4.5,0.7,3.8-2.4c-3.1-2.5-11.9-3.2-11.6,2.5C450.4,621.3,453.3,620.5,455.7,621.5z"
			/>
		<path fill="#39B54A" d="M461.6,651.3c2.3-1.6,6.2-1.4,5.6-5.2c-3.9-8.8-11,8.7-11.6,11.7C458.3,656.6,459.1,653,461.6,651.3z"/>
		<path fill="#39B54A" d="M478,662.7c1.3,2.6,7.1,0.9,10-0.5c3.8-1.9,4.7-4.4,3.8-8.6C489.1,642.8,474.4,655.7,478,662.7z"/>
		<path fill="#39B54A" d="M469.2,667c3.2-2.7,2.4-11.4,1.9-15c-3.3-0.5-7.4,0.9-9.8,3.3c-1.7,1.8-6.6,10.1-4.6,12.5
			C458,669.5,468,668,469.2,667z"/>
		<path fill="#39B54A" d="M487.9,645.9c2.6-0.5,1.6-4.6,1.2-7c-0.2-6.3-6.9-1.2-5.7,3.3C483.8,643.9,485.7,646.3,487.9,645.9z"/>
		<path fill="#39B54A" d="M470.4,645.9c1,1.9,3.6,1.9,4.2,5.2c0.8,3.8-0.9,7.7-0.4,11.5c2.4-2,2-9.1,4.1-12.4
			c1.2-1.9,2.7-2.2,2.7-4.5c0-1.6-1.5-3.7-2.3-5c2.5-0.1,4.9-8.9,1.5-8.7c-1.8-2.6-3.8-3-4.7-0.2c-0.9,3,2.7,5.9,3.6,8.4
			C474.9,637.9,467.1,639.8,470.4,645.9z"/>
		<path fill="#39B54A" d="M418.4,644.9c1.7-0.1,1.4,1.5,3.1,0.8c1.7-0.7,2.9-3.8,4-5.3c1.8-7.9-14.3-6.7-13,2.7
			C413.1,646.9,414.7,645.2,418.4,644.9z"/>
		<path fill="#39B54A" d="M411.1,635.7c-0.4-3.3-5.3-4.2-6.7-1C403.4,637,410.5,643.6,411.1,635.7z"/>
		<path fill="#39B54A" d="M409.4,655.1c-1.1,2.2-1.5,5-1.3,7.5c0.4,4.4,0.8,3.4,3.9,4.4c1.7,0.5,4.5,2.1,6.3,1.8
			c3.6-0.6,2-1.6,1.3-4.2c-0.6-2.1-1.9-4.3-1.9-6.5c0-3.1,2.6-5.1,2.3-8.3C417.6,642.9,410.7,652.3,409.4,655.1z"/>
		<path fill="#39B54A" d="M396.2,646.4c1.6,0.7,2.2,3.5,3.8,3.9c1.4,0.3,2.9-1.6,5.1-1.3c1.9,0.3,2.3,3.9,4.3,0.8
			c1.2-1.8,0.8-3.9,0.1-5.9c-4.1-4-9.2-6-14.4-3.4c-1.1,0.6-5.5,1.8-3.5,3.7C393.7,646.2,394.3,645.6,396.2,646.4z"/>
		<path fill="#39B54A" d="M444.6,618.7c-2.7-4.8-15.8-5.2-13.3,2.5C433,626.2,445.5,624.8,444.6,618.7z"/>
		<path fill="#39B54A" d="M395.5,648.6c-3,1.7-6.1,4.5-4.4,8.4c3.1,6.9,4.2,3.1,6.1-1.2c0.5,2.9-0.1,5.9,2.9,7.3
			c3.3,1.6,4.7-0.1,5-3.5c0.2-2.2,1.7-7.8-1.2-8.5c-2.1-0.5-4.4,3.1-6.4,3.6c0.3-1,0.5-2.2,1-3.1
			C398.1,650.2,396.8,649.4,395.5,648.6z"/>
		<path fill="#39B54A" d="M429.6,636.5c0.6,3.1-3.5,7.4-5,9.7c1.2-0.6,1.2-0.1,2.1-1.1c0.1,1.6,0.2,3.1,0.4,4.7
			c4.3-0.6,5.4,4,8.7-1.4c3.1-5.1-0.1-7.4-5.2-6.7c1-2.9,3.7-0.2,4.3-3.4c0.7-3.1,0.6-6.3,1.3-9.4c-1.3-1.5-4.4-3.6-6.4-3
			c-1.4,0.4-4.7,4.6-4.6,5.8C425.6,634.2,429,633.8,429.6,636.5z"/>
		<path fill="#39B54A" d="M421.9,657.9c-3.1,4.3,1.1,4.3,2.7,6.1c1.7,1.9,1.1,4.5,3.3,4.9c1.6,0.3,5,1.7,6.6,0.5
			c3.2-2.4-0.9-9.2-2.4-11.9C430.1,654.5,424,654.9,421.9,657.9z"/>
		<path d="M504.1,657.7c0-4.5-2.6-8.7-7-12.4c-1.9,1.2-3.9,2.3-5.9,3.2c2.9,2.1,4.4,4.5,4.4,7c0,9.7-24.1,17.6-53.8,17.6
			s-53.8-7.9-53.8-17.6c0-2.7,2-5.3,5.5-7.7l-5.6-3.6c-5.2,4-8.3,8.6-8.3,13.5c0,0.3,0,0.5,0,0.8h0c0.4,10.5,3.7,21.5,9,31.9
			c0,0,13,25.7,53.2,25.7s53-25.9,53-25.9c5.4-10.3,8.9-21.4,9.2-31.6h0C504.1,658.2,504.1,658,504.1,657.7z"/>
		<path fill="#39B54A" d="M426.9,624.1c2.1-7.3-15.3-0.2-12.3,7.5C416.8,637.1,425.3,626.7,426.9,624.1z"/>
	</g>
</g>
</svg>
