<?xml version="1.0" encoding="utf-8"?>
<!-- Generator: Adobe Illustrator 18.0.0, SVG Export Plug-In . SVG Version: 6.00 Build 0)  -->
<!DOCTYPE svg PUBLIC "-//W3C//DTD SVG 1.1//EN" "http://www.w3.org/Graphics/SVG/1.1/DTD/svg11.dtd">
<svg version="1.1" xmlns="http://www.w3.org/2000/svg" xmlns:xlink="http://www.w3.org/1999/xlink" x="0px" y="0px"
	 viewBox="0 0 1536 950.5" enable-background="new 0 0 1536 950.5" xml:space="preserve">
<pattern  x="-187" y="531" width="72" height="72" patternUnits="userSpaceOnUse" id="_x31_0_lpi_20_x25_" viewBox="72.2 -72 72 72" overflow="visible">
	<g>
		<polygon fill="none" points="72.2,-72 144.2,-72 144.2,0 72.2,0 		"/>
		<g>
			<line fill="none" stroke="#231F20" stroke-width="1.44" x1="144" y1="-3.6" x2="216.5" y2="-3.6"/>
			<line fill="none" stroke="#231F20" stroke-width="1.44" x1="144" y1="-18" x2="216.5" y2="-18"/>
			<line fill="none" stroke="#231F20" stroke-width="1.44" x1="144" y1="-32.4" x2="216.5" y2="-32.4"/>
			<line fill="none" stroke="#231F20" stroke-width="1.44" x1="144" y1="-46.8" x2="216.5" y2="-46.8"/>
			<line fill="none" stroke="#231F20" stroke-width="1.44" x1="144" y1="-61.2" x2="216.5" y2="-61.2"/>
			<line fill="none" stroke="#231F20" stroke-width="1.44" x1="144" y1="-10.8" x2="216.5" y2="-10.8"/>
			<line fill="none" stroke="#231F20" stroke-width="1.44" x1="144" y1="-25.2" x2="216.5" y2="-25.2"/>
			<line fill="none" stroke="#231F20" stroke-width="1.44" x1="144" y1="-39.6" x2="216.5" y2="-39.6"/>
			<line fill="none" stroke="#231F20" stroke-width="1.44" x1="144" y1="-54" x2="216.5" y2="-54"/>
			<line fill="none" stroke="#231F20" stroke-width="1.44" x1="144" y1="-68.4" x2="216.5" y2="-68.4"/>
		</g>
		<g>
			<line fill="none" stroke="#231F20" stroke-width="1.44" x1="72" y1="-3.6" x2="144.5" y2="-3.6"/>
			<line fill="none" stroke="#231F20" stroke-width="1.44" x1="72" y1="-18" x2="144.5" y2="-18"/>
			<line fill="none" stroke="#231F20" stroke-width="1.44" x1="72" y1="-32.4" x2="144.5" y2="-32.4"/>
			<line fill="none" stroke="#231F20" stroke-width="1.44" x1="72" y1="-46.8" x2="144.5" y2="-46.8"/>
			<line fill="none" stroke="#231F20" stroke-width="1.44" x1="72" y1="-61.2" x2="144.5" y2="-61.2"/>
			<line fill="none" stroke="#231F20" stroke-width="1.44" x1="72" y1="-10.8" x2="144.5" y2="-10.8"/>
			<line fill="none" stroke="#231F20" stroke-width="1.44" x1="72" y1="-25.2" x2="144.5" y2="-25.2"/>
			<line fill="none" stroke="#231F20" stroke-width="1.44" x1="72" y1="-39.6" x2="144.5" y2="-39.6"/>
			<line fill="none" stroke="#231F20" stroke-width="1.44" x1="72" y1="-54" x2="144.5" y2="-54"/>
			<line fill="none" stroke="#231F20" stroke-width="1.44" x1="72" y1="-68.4" x2="144.5" y2="-68.4"/>
		</g>
		<g>
			<line fill="none" stroke="#231F20" stroke-width="1.44" x1="0" y1="-3.6" x2="72.5" y2="-3.6"/>
			<line fill="none" stroke="#231F20" stroke-width="1.44" x1="0" y1="-18" x2="72.5" y2="-18"/>
			<line fill="none" stroke="#231F20" stroke-width="1.44" x1="0" y1="-32.4" x2="72.5" y2="-32.4"/>
			<line fill="none" stroke="#231F20" stroke-width="1.44" x1="0" y1="-46.8" x2="72.5" y2="-46.8"/>
			<line fill="none" stroke="#231F20" stroke-width="1.44" x1="0" y1="-61.2" x2="72.5" y2="-61.2"/>
			<line fill="none" stroke="#231F20" stroke-width="1.44" x1="0" y1="-10.8" x2="72.5" y2="-10.8"/>
			<line fill="none" stroke="#231F20" stroke-width="1.44" x1="0" y1="-25.2" x2="72.5" y2="-25.2"/>
			<line fill="none" stroke="#231F20" stroke-width="1.44" x1="0" y1="-39.6" x2="72.5" y2="-39.6"/>
			<line fill="none" stroke="#231F20" stroke-width="1.44" x1="0" y1="-54" x2="72.5" y2="-54"/>
			<line fill="none" stroke="#231F20" stroke-width="1.44" x1="0" y1="-68.4" x2="72.5" y2="-68.4"/>
		</g>
	</g>
</pattern>
<g id="Layer_2" display="none">
	
		<rect x="-163.1" y="588.6" display="inline" fill="none" stroke="#231F20" stroke-width="0.8843" stroke-miterlimit="10" width="568.5" height="398.8"/>
	<rect x="-149.7" y="540.6" display="inline" fill="#FFFFFF" width="224.8" height="91.5"/>
	<g display="inline">
		<text transform="matrix(1 0 0 1 -140.6012 609.4603)" font-family="'MuseoSans-700'" font-size="54.6634">SERVER</text>
	</g>
</g>
<g id="Layer_1">
	<rect x="398.2" y="671.1" fill="#FFFFFF" stroke="#2BB673" stroke-width="3.04" stroke-miterlimit="10" width="253" height="208"/>
	<g>
		<rect x="937.1" y="54.8" fill="#D5D5D5" width="243.3" height="11.1"/>
		
			<rect x="937.1" y="54.8" fill="none" stroke="#231F20" stroke-width="0.8961" stroke-miterlimit="10" width="243.3" height="216.4"/>
		<circle fill="#ED1C24" cx="942.3" cy="60.4" r="3"/>
		<circle fill="#FFDE17" cx="951.3" cy="60.4" r="3"/>
		<circle fill="#39B54A" cx="960.2" cy="60.4" r="3"/>
		
			<rect x="937.1" y="65.9" fill="#27AAE1" stroke="#231F20" stroke-width="0.8961" stroke-miterlimit="10" width="243.3" height="118.7"/>
		<text transform="matrix(1 0 0 1 997.4012 134.8652)" fill="#FFFFFF" font-family="'MuseoSans-700'" font-size="27.5494">WEBSITE</text>
		<pattern  id="SVGID_1_" xlink:href="#_x31_0_lpi_20_x25_" patternTransform="matrix(0.8961 0 0 0.8961 -605.7598 -858.7751)">
		</pattern>
		<rect x="951.3" y="198" fill="url(#SVGID_1_)" width="63" height="63"/>
		<pattern  id="SVGID_2_" xlink:href="#_x31_0_lpi_20_x25_" patternTransform="matrix(0.8961 0 0 0.8961 -605.7598 -858.7751)">
		</pattern>
		<rect x="1027.4" y="198" fill="url(#SVGID_2_)" width="63" height="63"/>
		<pattern  id="SVGID_3_" xlink:href="#_x31_0_lpi_20_x25_" patternTransform="matrix(0.8961 0 0 0.8961 -605.7598 -858.7751)">
		</pattern>
		<rect x="1105.3" y="199.2" fill="url(#SVGID_3_)" width="63" height="63"/>
	</g>
	<g>
		<text transform="matrix(1 0 0 1 472.0456 721.1123)" font-family="'MuseoSans-700'" font-size="35.6794">Model</text>
	</g>
	<g>
		
			<rect x="941" y="476.9" fill="#FFFFFF" stroke="#2BB673" stroke-width="3.3527" stroke-miterlimit="10" width="298.9" height="214.1"/>
		<text transform="matrix(1 0 0 1 961.5638 563.5576)"><tspan x="0" y="0" font-family="'Monaco'" font-size="19.5174">views/</tspan><tspan x="0" y="23.4" font-family="'Monaco'" font-size="19.5174" letter-spacing="46">	</tspan><tspan x="58.6" y="23.4" font-family="'Monaco'" font-size="19.5174">archive.twig</tspan><tspan x="0" y="46.8" font-family="'Monaco'" font-size="19.5174" letter-spacing="46">	</tspan><tspan x="58.6" y="46.8" font-family="'Monaco'" font-size="19.5174">page.twig</tspan><tspan x="0" y="70.3" font-family="'Monaco'" font-size="19.5174" letter-spacing="46">	</tspan><tspan x="58.6" y="70.3" font-family="'Monaco'" font-size="19.5174">page-contact.twig</tspan><tspan x="0" y="93.7" font-family="'Monaco'" font-size="19.5174" letter-spacing="46">	</tspan><tspan x="58.6" y="93.7" font-family="'Monaco'" font-size="19.5174">single.twig</tspan></text>
		<g>
			<text transform="matrix(1 0 0 1 1049.6497 525.6525)" font-family="'MuseoSans-700'" font-size="35.6794">View</text>
		</g>
	</g>
	<g>
		
			<rect x="390.9" y="302.6" fill="#FFFFFF" stroke="#2BB673" stroke-width="3.1607" stroke-miterlimit="10" width="267.6" height="212.6"/>
		<text transform="matrix(1 0 0 1 418.4811 386.7876)"><tspan x="0" y="0" font-family="'Monaco'" font-size="19.5174">archive.php</tspan><tspan x="0" y="23.4" font-family="'Monaco'" font-size="19.5174">page.php</tspan><tspan x="0" y="46.8" font-family="'Monaco'" font-size="19.5174">page-contact.php</tspan><tspan x="0" y="70.3" font-family="'Monaco'" font-size="19.5174">single.php</tspan><tspan x="0" y="93.7" font-family="'Monaco'" font-size="19.5174">.....</tspan></text>
		<g>
			<text transform="matrix(1 0 0 1 437.9362 348.9693)" font-family="'MuseoSans-700'" font-size="35.6794">Controller</text>
		</g>
	</g>
	<g>
		<text transform="matrix(1 0 0 1 464.7637 793.4677)" font-family="'Monaco'" font-size="19.5174">WP_Post</text>
	</g>
	<g>
		<g>
			<g>
				<path fill="#46BF85" d="M1043,325c0,0,7.1,1.4,14.4,3.2c7.2,1.8,14.4,3.9,14.4,3.9c0.5,1.8,1,3.7,1.5,5.5c0.5,1.8,1,3.6,1.4,5.5
					c-3.9-1.3-7.8-2.6-11.7-3.7c-2-0.6-3.9-1.1-5.8-1.7c-2-0.5-3.9-1.1-5.9-1.5c0.8,2.6,1.5,5.3,2.2,8c0.7,2.7,1.3,5.4,1.9,8.1
					c3.5,15.7,5.6,31.6,6.2,47.7c0.3,8,0.2,16.1-0.2,24.1c-0.5,8-1.3,16-2.5,23.9l-8.9-1.3c4.7-30.7,3.5-62.1-3.4-92.4
					c-0.6-2.6-1.2-5.2-1.9-7.8c-0.7-2.6-1.3-5.2-2.1-7.8c-1.4,1.4-2.8,2.8-4.2,4.2c-1.4,1.4-2.9,2.8-4.3,4.2c-2.9,2.7-5.8,5.4-8.8,8
					c-0.3-1.5-0.8-3-1.2-4.6c-0.4-1.5-0.8-3-1.2-4.5c0,0,1.3-1.2,3.2-3.1c1.9-1.9,4.5-4.4,7-7.1C1038.2,330.6,1043,325,1043,325z"/>
			</g>
		</g>
	</g>
	<g>
		<g>
			<g>
				<path fill="#46BF85" d="M710.3,348.7c-0.5-9.7-0.8-19.6-0.9-29.5c0,0,2.3-1.4,4.6-2.8c1.2-0.7,2.3-1.4,3.2-1.9
					c0.9-0.5,1.5-0.9,1.5-0.9s0,1.5,0,3.8c0,2.3,0,5.3,0,8.4c0.1,6.1,0.2,12.1,0.2,12.1s2.8-1.7,7-4.2c1-0.6,2.2-1.3,3.4-2
					c1.2-0.7,2.6-1.5,3.9-2.3c13.3-7.7,27.8-15.5,42.5-22.7c14.7-7.2,29.7-14,43.8-19.9c14.2-5.9,27.6-11.1,39.1-15.3
					c11.5-4.2,21.2-7.5,28-9.8c6.8-2.2,10.7-3.5,10.7-3.5l2.7,8.6c0,0-3.9,1.3-10.6,3.5c-6.7,2.2-16.3,5.5-27.8,9.7
					c-11.4,4.2-24.7,9.3-38.7,15.2c-14,5.9-28.8,12.5-43.3,19.7c-14.5,7.1-28.8,14.8-42,22.4c-1.3,0.8-2.6,1.5-3.9,2.2
					c-1.2,0.7-2.3,1.4-3.3,2c-4.1,2.5-6.9,4.2-6.9,4.2s5.3,2.9,10.5,5.8c2.6,1.5,5.2,3,7.1,4.1c1.9,1.1,3.2,1.9,3.2,1.9
					s-0.5,0.3-1.3,0.8c-0.8,0.5-1.9,1.1-2.9,1.8c-2.1,1.3-4.2,2.6-4.2,2.6C727.6,357.8,719.1,353.2,710.3,348.7z"/>
			</g>
		</g>
	</g>
	<g>
		<text transform="matrix(1 0 0 1 651.2061 168.0221)" font-family="'MuseoSans-700'" font-size="79">Client</text>
	</g>
	<g>
		<text transform="matrix(1 0 0 1 91.4805 562.4832)" font-family="'MuseoSans-700'" font-size="79">Server</text>
	</g>
	<g>
		<g>
			<g>
				<polygon fill="#46BF85" points="513,623.9 486.7,610.9 486.1,600.6 507.7,611.3 506.7,595 503.4,544.3 512.4,543.7 515.6,594.4 
					516.7,610.7 536.8,597.3 537.4,607.7 				"/>
			</g>
		</g>
	</g>
	<g>
		<g>
			<g>
				<path fill="#46BF85" d="M638.4,554c4.8-0.7,9.6-1.4,14.6-1.8c2.5-0.2,5-0.5,7.5-0.6c2.5-0.1,5-0.3,7.5-0.3c0,0,1.7,2.4,3.3,4.8
					c0.8,1.2,1.6,2.5,2.2,3.4c0.6,0.9,1,1.6,1,1.6s-1.5,0-3.9-0.1c-2.3,0-5.4,0-8.5,0.1c-6.2,0.2-12.2,0.7-12.2,0.7s0.5,0.7,1.3,1.9
					c0.8,1.2,2,2.9,3.4,4.9c1.3,2.1,2.9,4.6,4.5,7.3c6,10.2,11.5,21.6,15.9,33.4c4.4,11.8,7.8,24,10,35.6
					c2.1,11.6,3.1,22.6,3.5,32.1c0,2.4,0,4.6,0,6.8c0,1.1,0,2.1,0,3.1c0,1-0.1,2-0.1,3c-0.1,1.9-0.2,3.7-0.2,5.4
					c0,0.8-0.1,1.6-0.1,2.4c0,0.8-0.1,1.5-0.2,2.2c-0.5,5.5-0.8,8.6-0.8,8.6l-8.9-1.1c0,0,0.3-3,0.8-8.2c0.1-0.7,0.2-1.3,0.2-2.1
					c0-0.7,0.1-1.5,0.1-2.3c0.1-1.6,0.2-3.3,0.2-5.1c0-0.9,0.1-1.9,0.1-2.8c0-1,0-2,0-3c0-2.1,0-4.2,0-6.5c-0.4-9-1.3-19.6-3.4-30.7
					c-2.1-11.1-5.3-22.8-9.6-34.1c-4.2-11.3-9.5-22.2-15.3-31.9c-1.6-2.5-3-4.9-4.3-7c-1.3-2-2.5-3.6-3.2-4.7
					c-0.8-1.1-1.2-1.8-1.2-1.8s-2.6,5.5-5.3,10.6c-1.4,2.6-2.9,5.2-4,7.1c-1.1,1.9-1.9,3.2-1.9,3.2s-0.3-0.5-0.7-1.2
					c-0.5-0.7-1-1.7-1.7-2.6c-1.3-1.9-2.6-3.7-2.6-3.7c1.1-2.1,2.2-4.2,3.3-6.4c1.1-2.2,2.1-4.3,3.1-6.5
					C634.7,563.1,636.6,558.6,638.4,554z"/>
			</g>
		</g>
	</g>
	<g>
		<g>
			<g>
				<path fill="#46BF85" d="M888.1,562.5c-6,7.6-12.2,15.3-18.6,22.8l-10.6-1.9c0,0,4-4.6,8-9.2c1.9-2.3,3.9-4.6,5.4-6.4
					c1.4-1.8,2.4-2.9,2.4-2.9s-0.8-0.1-2.2-0.4c-1.4-0.2-3.4-0.6-5.8-1c-1.2-0.2-2.5-0.4-3.9-0.7c-0.7-0.1-1.4-0.2-2.1-0.4
					c-0.4-0.1-0.7-0.1-1.1-0.2c-0.4-0.1-0.8-0.2-1.2-0.2c-15.8-3-32.6-6.9-49.2-11.5c-33.2-9.1-65.4-21.6-88.6-32.8
					c-1.5-0.7-2.9-1.3-4.3-2c-1.4-0.7-2.7-1.4-4-2c-2.6-1.3-5.1-2.6-7.5-3.8c-4.6-2.5-8.7-4.6-12-6.4c-6.5-3.7-10.3-5.9-10.3-5.9
					l4.6-7.7c0,0,3.7,2.1,10.1,5.8c3.2,1.8,7.2,3.9,11.7,6.3c2.3,1.2,4.8,2.4,7.3,3.7c1.3,0.6,2.6,1.3,4,2c1.4,0.7,2.8,1.3,4.2,2
					c22.9,11,54.5,23.3,87.2,32.3c16.3,4.5,32.8,8.4,48.4,11.3c0.4,0.1,0.8,0.2,1.2,0.2c0.4,0.1,0.7,0.1,1.1,0.2
					c0.7,0.1,1.4,0.2,2.1,0.4c1.4,0.2,2.6,0.5,3.8,0.7c2.4,0.4,4.3,0.8,5.7,1c1.4,0.3,2.2,0.4,2.2,0.4s-0.5-1.4-1.3-3.5
					c-0.8-2.1-1.8-5-2.8-7.8c-2-5.7-3.9-11.3-3.9-11.3l9.8,1.7C880.9,544.3,884.4,553.4,888.1,562.5z"/>
			</g>
		</g>
	</g>
</g>
<g id="Layer_3" display="none">
	<g display="inline">
		<path d="M-3.8-459.8c0,9.9-8,18-18,18c-9.9,0-18-8-18-18c0-9.9,8-18,18-18C-11.8-477.8-3.8-469.7-3.8-459.8z"/>
		<path d="M-11.7-437.4c0-2.3-0.8-3.2-0.8-3.2l-6.6,1.7c-0.5-0.8-1.4-1.4-2.4-1.4c-1,0-1.9,0.5-2.4,1.3l-6.5-1.6c0,0-0.8,1-0.8,3.2
			c0,2.3,0.8,3.3,0.8,3.3l6.7-1.6c0.5,0.7,1.3,1.1,2.2,1.1c0.9,0,1.7-0.5,2.2-1.1l6.8,1.7C-12.6-434.1-11.7-435.1-11.7-437.4z"/>
		<path d="M56.4-426.5L56.4-426.5c0.9-2.2,0.7-4.8-0.8-6.8c-2.3-3.1-6.6-3.7-9.6-1.4c-0.7,0.5-1.2,1.1-1.6,1.8l0,0l-0.1,0.1
			c0,0.1-0.1,0.2-0.1,0.2l-11,19.1L17.5-433c-1.2-1.8-3.2-2.9-5.5-3l-0.2-0.1H-8.5l-10.4,39.7h4.4v46H-43v-46h-0.4h20l-10.4-39.7
			h-24.5c-0.1,0-0.1,0-0.2,0c-3.7,0-6.8,3-6.9,6.7l0,0v45.8c0,4.1,3.3,7.4,7.4,7.4h4.6l3.5,35.7h3l5.8,82.6c-3.8,1.6-6.3,4.6-6.3,8
			H1.9c0-3.8-3.1-7.1-7.6-8.5l6.6-82.1h2.9l9.3-62.2l14.1,10.8c2.9,3.2,7.7,3.8,11.2,1.2c1.2-0.9,2.1-2.1,2.6-3.3l0,0l15-31.8
			c0.1-0.2,0.2-0.4,0.3-0.5L56.4-426.5z"/>
	</g>
	<g display="inline">
		<path fill-rule="evenodd" clip-rule="evenodd" d="M-1249.9,483.5c-15.3,0-27.6,13.9-27.6,31s12.3,31,27.6,31
			c15.3,0,27.6-13.9,27.6-31S-1234.7,483.5-1249.9,483.5z"/>
		<rect x="-1714.5" y="803.4" fill-rule="evenodd" clip-rule="evenodd" width="23.1" height="11.6"/>
		<path fill-rule="evenodd" clip-rule="evenodd" d="M-1270.2,554.9l0.9,1.2l0.6,0.8l1.9,1.9v0.1l1.2,1.2v0.1l3.2,3.2h0.1l2.2,2.2
			h0.1l0.9,0.9h0.1l0.1,0.1h0.1l1,1c-2.4,2.6-3.6,6.1-3.3,9.7l0.1,1.1l0.5,4.2l5.2-1.2c3.1-0.8,5.9-2.2,8.1-4.2
			c2.2,2.2,5,3.4,8.1,4.2l5.2,1.2l0.5-5.3c0.3-3.6-0.9-7-3.3-9.7l1-1h0.1l0.1-0.1h0.1l0.9-0.9h0.1l5.5-5.5v-0.1l1-1l0.6-0.8l0.1-0.1
			l0.5-0.6l0.3-0.5l0.4-0.4l0.6-0.8l0.9-1.2c3.4,1.4,6.4,3.4,8.9,5.9l39.9,39.9l2.9,6.3v1.6c0.1,0.3,0.1,0.6,0.1,0.9
			c0.1,3.7-1.3,7.7-4.1,10.5l-31,31v54.2h-2.8v96.7c0,7.7-6.3,13.9-13.9,13.9h-8.3c-7.7,0-13.9-6.2-13.9-13.9v-96.7h-5.4v96.7
			c0,7.7-6.3,13.9-13.9,13.9h-8.3c-7.7,0-13.9-6.2-13.9-13.9v-96.7h-2.8v-96.7l-12,12l-6.3,2.9h-6.3l-4.4-2
			c-0.3-0.1-0.5-0.3-0.6-0.5l-1.3-0.6l-39.8-39.8c-5.3-5.3-5.3-14.2,0-19.5c0.2-0.2,0.3-0.5,0.6-0.6l-14-52.4l-20,5.3
			c-1.9-7.3,2.5-14.8,9.8-16.8c7.3-1.9,14.8,2.5,16.8,9.8l13.7,51c4.4-0.9,9.1,0.3,12.5,3.7l29.3,29.3l29.6-29.6
			c2.5-2.5,5.4-4.4,8.7-5.8L-1270.2,554.9z M-1208.5,611.3l1.7-1.7l-1.7-1.7v3.3V611.3z"/>
		<path fill-rule="evenodd" clip-rule="evenodd" d="M-1247.5,552.5h-4.7c0.6,2.8,1.4,5.5,2.3,8.1
			C-1248.7,558-1247.9,555.3-1247.5,552.5z"/>
		<path fill-rule="evenodd" clip-rule="evenodd" d="M-1263.6,552.5c-2,0-4.1,0.1-5.9,0.6c4.5,6.4,10.5,11.8,17.5,16.4v0.1
			c-3.4,0.6-7.3,4.4-6.9,8.9c3.9-0.9,6.9-2.8,8.6-6.5c0.1,0,0.5,0.1,0.8,0.1c0.3,0,0.5,0,0.8-0.1c1.6,3.7,4.7,5.6,8.6,6.5
			c0.5-4.5-3.4-8.3-6.9-8.9v-0.1c7-4.5,12.9-10,17.5-16.4c-1.9-0.5-3.9-0.6-5.9-0.6h-6.7c-0.9,5.3-2.8,10.7-5.4,15.6
			c-0.5-0.5-0.9-0.6-1.6-0.6c-0.6,0-1.2,0.3-1.6,0.6c-2.6-5-4.5-10.3-5.4-15.6h-6.7H-1263.6z"/>
		<polygon fill-rule="evenodd" clip-rule="evenodd" points="-1391.2,682.6 -1379.6,797.7 -1743.2,797.7 -1731.9,682.6 		"/>
		<path fill-rule="evenodd" clip-rule="evenodd" d="M-1628.9,613.5c0,5.2-16.5,9.2-36.8,9.2c-20.3,0-36.8-4.1-36.8-9.2H-1628.9z"/>
		<path fill-rule="evenodd" clip-rule="evenodd" d="M-1628.9,627.4c0,5.2-16.5,9.2-36.8,9.2c-20.3,0-36.8-4.1-36.8-9.2H-1628.9z"/>
		<path fill-rule="evenodd" clip-rule="evenodd" d="M-1628.9,641.3c0,5.2-16.5,9.2-36.8,9.2c-20.3,0-36.8-4.1-36.8-9.2H-1628.9z"/>
		<path fill-rule="evenodd" clip-rule="evenodd" d="M-1628.9,655c0,5.2-16.5,9.2-36.8,9.2c-20.3,0-36.8-4.1-36.8-9.2H-1628.9z"/>
		<path fill-rule="evenodd" clip-rule="evenodd" d="M-1628.9,668.9c0,5.2-16.5,9.2-36.8,9.2c-20.3,0-36.8-4.1-36.8-9.2H-1628.9z"/>
		<path fill-rule="evenodd" clip-rule="evenodd" d="M-1610.6,585.9h92.1v27.6c0,5-4.2,9.2-9.2,9.2h-73.6c-5,0-9.2-4.2-9.2-9.2v-27.6
			H-1610.6z"/>
		<polygon fill-rule="evenodd" clip-rule="evenodd" points="-1601.3,627.4 -1601.3,678.1 -1592.1,678.1 -1592.1,657.4 
			-1536.9,657.4 -1536.9,678.1 -1527.8,678.1 -1527.8,627.4 -1536.9,627.4 -1536.9,648.1 -1592.1,648.1 -1592.1,627.4 		"/>
		<path fill-rule="evenodd" clip-rule="evenodd" d="M-1543.5,581.4c2.3-5.2,3.7-10.1,3.7-14.2c0-4.7-4.4-7.8-10.7-9.5
			c-4.7,12.3-18.4,27.6-28.7,17.3c-5.3-5.3-3.9-11.5,0.5-17c-13.7,3.3-26,10.9-27.3,23.4h62.7L-1543.5,581.4z"/>
		<path fill-rule="evenodd" clip-rule="evenodd" d="M-1231.4,428.3h-36.8v57.1c5.2-3.9,11.4-6.4,18.4-6.4c7,0,13.4,2.3,18.4,6.4
			L-1231.4,428.3L-1231.4,428.3z"/>
		<rect x="-1431.4" y="803.4" fill-rule="evenodd" clip-rule="evenodd" width="23.1" height="11.6"/>
		<path fill-rule="evenodd" clip-rule="evenodd" d="M-1552.1,547.7c4.2,4.2-13.1,37.3-25.3,25.3
			C-1589.4,561-1556.3,543.5-1552.1,547.7z"/>
		<path fill-rule="evenodd" clip-rule="evenodd" d="M-1541.6,581.2c-0.1-0.3,1.4-1.6,2.2-2.2c1.9-1.7,0-2.5,0.5-3.9
			c0.3-0.8,1.1-6.7,3.9-3.1c3.4,4.4,1.7-3.3,6.1-3.3c6.2,0-3.1,5.3,6.5,4.8c2-0.1-1.7,3.9-0.1,4.2c5.3,1.1,0.9,2.5,1.4,3.7h-20.4
			V581.2z"/>
		<path fill-rule="evenodd" clip-rule="evenodd" d="M-1500,585.9h92.1v27.6c0,5-4.2,9.2-9.2,9.2h-73.6c-5,0-9.2-4.2-9.2-9.2v-27.6
			H-1500z"/>
		<polygon fill-rule="evenodd" clip-rule="evenodd" points="-1490.8,627.4 -1490.8,678.1 -1481.6,678.1 -1481.6,657.4 
			-1426.4,657.4 -1426.4,678.1 -1417.2,678.1 -1417.2,627.4 -1426.4,627.4 -1426.4,648.1 -1481.6,648.1 -1481.6,627.4 		"/>
		<path fill-rule="evenodd" clip-rule="evenodd" fill="#39B54A" d="M-1496.4,581.4c-2.3-2.2-2.5-5.5,1.4-5.3c0.6,0,3.4,4.2,3.6-1.4
			c0-0.9-2.5-5.6,1.7-4.7c3.6,0.8-0.6,4.5,3.4,4.5c3.7,0,3.4,3.1,5-3.1c0,0,2.3-2.2,2.3,2.5c0,4.8,5,2.5,5.8,4.7
			c0.1,0.3,0.1,0.5,0.3,0.6c-0.8,0.5-1.4,1.2-2,2h-21.5V581.4z"/>
		<path fill-rule="evenodd" clip-rule="evenodd" fill="#39B54A" d="M-1470.8,581.4c0.1,0,0.3-0.1,0.6-0.1c6.2-0.6,3.6-0.6,5-3.9
			c0.5-1.2,4.5,2.8,4.7-2.7c0.1-2.3,3.3,2.5,3.6-5c0-1.7,6.7-5.8,6.7-2.3c0,8.1,2.2,1.9,4.4,5.4c0.6,1.1,3.4-0.6,4.4,1.7
			c1.2,3.1,7.8,0.8,8.9-0.5c1.6-1.6,3.7,0.1,3.7,2.7c0,5.2,4.1,3.3,5.8,4.5h-47.9L-1470.8,581.4z"/>
		<path fill-rule="evenodd" clip-rule="evenodd" fill="#39B54A" d="M-1425.9,577.3c4.1-1.7,5.4,2.6,5.8-5c0-2.3,5.8-3.9,5.8-0.8
			c0,6.5,3,1.9,2.5,4.4c-0.8,5.9,2-1.4,2,5.5h-9.8l-0.1-0.3c-1.6-3.6-4.5-2.3-6.1-3.1c0-0.1-0.1-0.3-0.1-0.5L-1425.9,577.3z"/>
		<path fill-rule="evenodd" clip-rule="evenodd" fill="#39B54A" d="M-1470.2,577.3c-1.7,0-2.8-2.2-4.7-4.2c-2.8-3.1,8.7-2.5,7.6,3.1
			c0,0.1-2.5,0.9-3,0.9V577.3z"/>
		<path fill-rule="evenodd" clip-rule="evenodd" fill="#39B54A" d="M-1463.5,573.1c-4.8,0.5-1.9-5.4-6.5-5.8
			c-2.8-0.1-0.1-2.5,1.2-3.3c2.8-1.6,4.5-1.2,6.7-3.9c4.7,0.8,3,5.9,2.8,9.2c0,1.2-3.1,3.6-4.2,3.6V573.1z"/>
		<path fill-rule="evenodd" clip-rule="evenodd" fill="#39B54A" d="M-1477.1,569.7c-4.4-0.5-1.1-2.8-6.7,0.6
			c-4.8,3.1-3.7-3.3-1.4-4.8c4.1-2.6,6.9-5.3,10.5,1.1c0.8,1.4-0.3,3.4-2.5,3.1H-1477.1z"/>
		<path fill-rule="evenodd" clip-rule="evenodd" fill="#39B54A" d="M-1438.9,572.8c-4.2-1.1,0-2-6.5-2.2c-0.5,0-3.9-1.4-1.4-3.9
			c1.9-1.9-0.1-3.1,4.1-3c1.7,0,2.5,4.1,4.4,4.7c1.9,0.6,1.7,2.6,0,3.9C-1438.7,572.5-1438.7,572.8-1438.9,572.8L-1438.9,572.8z"/>
		<path fill-rule="evenodd" clip-rule="evenodd" fill="#39B54A" d="M-1449,565.2c-3.6-3.1-8,1.7-8-2.2c0-3.6,0-4.7,5-4.8
			c5.9-0.1,4.2,5.4,3.7,5.8c-0.3,0.1-0.8,1.1-0.8,1.1V565.2z"/>
		<path fill-rule="evenodd" clip-rule="evenodd" fill="#39B54A" d="M-1426.6,575.6c-2.2-2.6-4.2-5.2-0.9-8c1.9-1.6,5.3-0.5,5.3,1.6
			c0,4.2,1.1,4.2-2.6,6.2c-0.5,0.3-1.4,0.5-1.9,0.1L-1426.6,575.6z"/>
		<path fill-rule="evenodd" clip-rule="evenodd" fill="#39B54A" d="M-1433.9,571.4c-1.2-0.1-1.9-3.1-3.9-3.9c-3-1.2,2-5.6,6.2-3.1
			c2.5,1.6,0.6,3.7,0.3,5.4C-1431.4,571.3-1432.8,571.6-1433.9,571.4z"/>
		<path fill-rule="evenodd" clip-rule="evenodd" fill="#39B54A" d="M-1439.4,563.8c-2.8-2.8-1.1-1.4-4.5-2.3c-2-0.5-3.7-2.5-2.8-4.7
			c2.3-5.6,2.8-5.8,8.4-2.8c3.9,2,4.2,2,2.2,6.5c-0.8,1.7-0.6,3-3.1,3.1h-0.1L-1439.4,563.8z"/>
	</g>
	<g display="inline">
		<text transform="matrix(1 0 0 1 -1670.543 428.2776)" font-family="'MuseoSans-700'" font-size="79">Server</text>
	</g>
	<g display="inline">
		<text transform="matrix(1 0 0 1 -855.364 438.2779)" font-family="'MuseoSans-700'" font-size="79">Client</text>
	</g>
	<path display="inline" d="M-725.8,586.3c15.9,0,28.8-12.9,28.8-28.8c0-15.9-12.9-28.7-28.8-28.7c-15.9,0-28.7,12.9-28.7,28.7
		C-754.5,573.4-741.7,586.3-725.8,586.3z"/>
	<path display="inline" d="M-773.7,663v-28.8h9.6v38.3h76.7v-38.3h9.6v38.3h24v-43.1c0-14.4-9.6-33.5-33.5-33.5h-76.7
		c-24,0-33.6,19.2-33.6,33.5v43.1h24V663z"/>
	<polygon display="inline" points="-897,686.4 -897,705.9 -869.6,705.9 -869.6,803.8 -838.5,803.8 -838.5,705.9 -604.5,705.9 
		-604.5,803.8 -573.4,803.8 -573.4,705.9 -545.8,705.9 -545.8,686.4 	"/>
	<g display="inline">
		<polygon fill="#FFFFFF" points="-749.2,658.9 -739.9,653 -734.9,648.1 -726.5,645 -718.8,645.1 -714,648.4 -704,654.6 
			-698.9,662.5 -707.1,672.8 -732.5,674.1 -747.3,667.7 		"/>
		<g>
			<path fill="#39B54A" d="M-725,666.7c-1.1-3.8,4.9-6,4.9-2.2c0.6,2,0.7,3.2-1.3,3.6C-723.3,668.4-724.5,668.6-725,666.7z"/>
			<path fill="#39B54A" d="M-720.7,654.2c-0.6,2,2.4,2.3,1.6,4.6c1.6,0,1.1-1.2,1.7-2.3c0.8-1.5,2.8-1.8,2.6-3.8
				c0.1,3.7,2.2-0.3,3.6-0.4c0.1-0.7-0.2-1.6-0.3-2c-0.7-1.5-0.6-2.9-2.5-1.9c-1.3,0.7-3.1,2.1-1.4,3.4
				C-717,652.1-720,652.1-720.7,654.2z"/>
			<path fill="#39B54A" d="M-725,648.9c-0.8,0.4-1.2,2.1-1.3,2.9c-0.3,1.5-0.2,6.2,2.3,5.4c1.4-0.4,1.2-2.6,1.7-3.7
				c0.4-0.7,0.9-0.6,1.1-1.4c0.1-0.6-0.2-1.5-0.3-2.1c0.9,2.4,4.6,1.3,3.7-1.1c-0.7-0.7-2.2-1.1-3.1-0.6c-1.4,0.7-0.1,1.5-1.2,1.6
				C-722.9,649.9-723.5,648-725,648.9z"/>
			<path fill="#39B54A" d="M-721,659.3c-1-3.4-7.1,1.5-5.9,3.6c0.8,1.5,2.2-1.1,3.1-1.5C-722.7,660.8-720.7,661.3-721,659.3z"/>
			<path fill="#39B54A" d="M-718.7,646.9c0.9,0.4,2,0.3,1.7-1c-1.4-1.1-5.2-1.4-5.1,1.1C-721.1,646.8-719.8,646.5-718.7,646.9z"/>
			<path fill="#39B54A" d="M-716.1,660.1c1-0.7,2.7-0.6,2.5-2.3c-1.7-3.9-4.9,3.8-5.1,5.2C-717.6,662.4-717.2,660.8-716.1,660.1z"/>
			<path fill="#39B54A" d="M-708.9,665.1c0.6,1.1,3.1,0.4,4.4-0.2c1.7-0.8,2.1-1.9,1.7-3.8C-703.9,656.3-710.5,662-708.9,665.1z"/>
			<path fill="#39B54A" d="M-712.8,667c1.4-1.2,1.1-5,0.8-6.6c-1.5-0.2-3.3,0.4-4.3,1.5c-0.8,0.8-2.9,4.4-2.1,5.5
				C-717.7,668.1-713.3,667.5-712.8,667z"/>
			<path fill="#39B54A" d="M-704.5,657.7c1.1-0.2,0.7-2,0.5-3.1c-0.1-2.8-3-0.5-2.5,1.4C-706.3,656.8-705.5,657.9-704.5,657.7z"/>
			<path fill="#39B54A" d="M-712.2,657.7c0.4,0.8,1.6,0.8,1.9,2.3c0.3,1.7-0.4,3.4-0.2,5.1c1.1-0.9,0.9-4,1.8-5.5
				c0.5-0.9,1.2-1,1.2-2c0-0.7-0.7-1.6-1-2.2c1.1,0,2.2-3.9,0.6-3.9c-0.8-1.2-1.7-1.3-2.1-0.1c-0.4,1.3,1.2,2.6,1.6,3.7
				C-710.2,654.1-713.7,655-712.2,657.7z"/>
			<path fill="#39B54A" d="M-735.2,657.3c0.8,0,0.6,0.7,1.4,0.4c0.8-0.3,1.3-1.7,1.8-2.3c0.8-3.5-6.3-3-5.7,1.2
				C-737.6,658.1-736.8,657.4-735.2,657.3z"/>
			<path fill="#39B54A" d="M-738.4,653.2c-0.2-1.5-2.4-1.9-3-0.5C-741.9,653.8-738.7,656.7-738.4,653.2z"/>
			<path fill="#39B54A" d="M-739.2,661.8c-0.5,1-0.7,2.2-0.6,3.3c0.2,1.9,0.4,1.5,1.7,1.9c0.7,0.2,2,0.9,2.8,0.8
				c1.6-0.3,0.9-0.7,0.6-1.8c-0.2-0.9-0.8-1.9-0.8-2.9c0-1.4,1.2-2.3,1-3.7C-735.5,656.4-738.6,660.5-739.2,661.8z"/>
			<path fill="#39B54A" d="M-745,657.9c0.7,0.3,1,1.5,1.7,1.7c0.6,0.1,1.3-0.7,2.3-0.6c0.8,0.1,1,1.7,1.9,0.4
				c0.5-0.8,0.4-1.7,0.1-2.6c-1.8-1.8-4.1-2.7-6.4-1.5c-0.5,0.2-2.5,0.8-1.5,1.6C-746.1,657.9-745.8,657.6-745,657.9z"/>
			<path fill="#39B54A" d="M-723.6,645.7c-1.2-2.1-7-2.3-5.9,1.1C-728.8,649-723.2,648.4-723.6,645.7z"/>
			<path fill="#39B54A" d="M-745.3,658.9c-1.3,0.7-2.7,2-1.9,3.7c1.4,3.1,1.9,1.4,2.7-0.5c0.2,1.3,0,2.6,1.3,3.2
				c1.5,0.7,2.1,0,2.2-1.5c0.1-1,0.8-3.5-0.5-3.8c-0.9-0.2-2,1.4-2.8,1.6c0.1-0.4,0.2-1,0.5-1.4
				C-744.2,659.6-744.8,659.3-745.3,658.9z"/>
			<path fill="#39B54A" d="M-730.3,653.6c0.3,1.4-1.6,3.3-2.2,4.3c0.5-0.2,0.5-0.1,0.9-0.5c0.1,0.7,0.1,1.4,0.2,2.1
				c1.9-0.3,2.4,1.8,3.9-0.6c1.4-2.2,0-3.3-2.3-3c0.4-1.3,1.6-0.1,1.9-1.5c0.3-1.4,0.3-2.8,0.6-4.1c-0.6-0.7-2-1.6-2.8-1.3
				c-0.6,0.2-2.1,2-2,2.6C-732,652.5-730.5,652.4-730.3,653.6z"/>
			<path fill="#39B54A" d="M-733.7,663c-1.4,1.9,0.5,1.9,1.2,2.7c0.7,0.8,0.5,2,1.4,2.2c0.7,0.1,2.2,0.7,2.9,0.2
				c1.4-1.1-0.4-4-1.1-5.3C-730,661.5-732.7,661.7-733.7,663z"/>
			<path d="M-697.3,662.9c0-2-1.1-3.8-3.1-5.5c-0.8,0.5-1.7,1-2.6,1.4c1.3,0.9,2,2,2,3.1c0,4.3-10.7,7.8-23.8,7.8
				c-13.1,0-23.8-3.5-23.8-7.8c0-1.2,0.9-2.4,2.4-3.4l-2.5-1.6c-2.3,1.8-3.7,3.8-3.7,6c0,0.1,0,0.2,0,0.4h0c0.2,4.6,1.6,9.5,4,14.1
				c0,0,5.8,11.4,23.5,11.4c17.8,0,23.4-11.5,23.4-11.5c2.4-4.5,3.9-9.5,4.1-14h0C-697.3,663.2-697.3,663-697.3,662.9z"/>
			<path fill="#39B54A" d="M-731.4,648.1c0.9-3.2-6.8-0.1-5.4,3.3C-735.9,653.8-732.2,649.2-731.4,648.1z"/>
		</g>
	</g>
	<g display="inline">
		<g>
			<g>
				<path fill="#52BE61" d="M-1127,659.5c8.3-7.3,16-14.7,23.4-22.3l10.2,2.7c0,0-4.4,4.9-9,9.7c-2.3,2.4-4.7,4.8-6.4,6.6
					c-1.8,1.8-3,2.9-3,2.9s0.8,0.3,2.3,0.7c1.5,0.4,3.6,1,6.2,1.6c1.3,0.3,2.7,0.7,4.2,1.1c0.7,0.2,1.5,0.4,2.3,0.6
					c0.4,0.1,0.8,0.2,1.2,0.3c0.4,0.1,0.9,0.2,1.4,0.3c17.5,4.2,36.6,7,55.8,8.1c19.2,1.2,38.4,0.6,56.3-1.3
					c2.2-0.2,4.5-0.4,6.7-0.7c2.2-0.3,4.4-0.6,6.5-1c4.3-0.6,8.5-1.2,12.5-2.1c2-0.4,4-0.8,6-1.2c1-0.2,2-0.4,2.9-0.6
					c1-0.2,1.9-0.4,2.9-0.6c3.8-0.9,7.4-1.8,10.9-2.6c0.9-0.2,1.7-0.4,2.6-0.6c0.8-0.2,1.7-0.5,2.5-0.7c1.7-0.5,3.3-1,4.8-1.4
					c1.6-0.5,3.1-0.9,4.6-1.3c0.7-0.2,1.5-0.4,2.2-0.6c0.7-0.2,1.4-0.5,2.1-0.7c2.8-0.9,5.4-1.8,7.8-2.7c2.4-0.8,4.6-1.5,6.5-2.3
					c7.8-3.1,12.3-4.9,12.3-4.9l3.9,9.2c0,0-4.6,1.8-12.7,5c-2,0.8-4.3,1.5-6.8,2.4c-2.5,0.8-5.1,1.8-8,2.7
					c-0.7,0.2-1.4,0.5-2.2,0.7c-0.7,0.2-1.5,0.4-2.3,0.7c-1.5,0.4-3.1,0.9-4.7,1.4c-1.6,0.5-3.3,1-5,1.5c-0.9,0.2-1.7,0.5-2.6,0.8
					c-0.9,0.2-1.8,0.4-2.7,0.7c-3.6,0.9-7.4,1.8-11.2,2.7c-1,0.3-2,0.5-3,0.6c-1,0.2-2,0.4-3,0.6c-2,0.4-4.1,0.8-6.2,1.2
					c-4.2,0.9-8.5,1.5-12.9,2.1c-2.2,0.3-4.4,0.7-6.7,1c-2.3,0.3-4.6,0.5-6.9,0.7c-18.4,2-38.3,2.6-58,1.4
					c-19.7-1.2-39.4-4.1-57.4-8.4c-0.5-0.1-0.9-0.2-1.4-0.3c-0.4-0.1-0.8-0.2-1.2-0.3c-0.8-0.2-1.6-0.4-2.3-0.6
					c-1.5-0.4-3-0.8-4.3-1.1c-2.7-0.7-4.9-1.3-6.4-1.7c-1.6-0.4-2.4-0.7-2.4-0.7s0.4,1.7,1,4.1c0.6,2.4,1.5,5.7,2.5,8.9
					c1.9,6.5,4,13.1,4,13.1l-12.1-3.2C-1122.3,680.8-1124.9,670-1127,659.5z"/>
			</g>
		</g>
	</g>
	<g display="inline">
		<g>
			<g>
				<path fill="#52BE61" d="M-855.4,561.4c-9,6.2-17.6,12.6-25.9,19.4c0,0-0.6-0.3-1.5-0.6c-0.9-0.4-2.1-0.9-3.4-1.4
					c-2.5-1-4.9-1.9-4.9-1.9s5-4.3,10.1-8.6c5.1-4.1,10.5-8.2,10.5-8.2s-0.8-0.3-2.2-1c-1.4-0.6-3.5-1.5-5.9-2.5
					c-1.2-0.5-2.6-1-4-1.6c-0.7-0.3-1.4-0.6-2.2-0.8c-0.4-0.1-0.8-0.3-1.1-0.4l-0.6-0.2l-0.7-0.3c-9.4-3.4-19.2-6.5-29.3-9.3
					c-10.1-2.7-20.5-5-31-6.8c-10.5-1.8-21-3.1-31.5-3.9c-10.4-0.8-20.7-1.1-30.7-1c-19.9,0.2-38.5,2.3-54.4,4.6
					c-15.9,2.3-29.1,4.7-38.4,6.4c-9.3,1.7-14.6,2.7-14.6,2.7l-1.8-9.8c0,0,5.3-1,14.6-2.7c9.3-1.7,22.6-4.2,38.7-6.5
					c16.1-2.3,35.1-4.4,55.7-4.7c10.3-0.1,20.9,0.3,31.6,1.1c10.7,0.9,21.6,2.2,32.4,4.1c10.8,1.9,21.5,4.3,31.9,7
					c10.4,2.9,20.5,6.1,30.1,9.6l0.8,0.3l0.6,0.2c0.4,0.2,0.8,0.3,1.2,0.5c0.8,0.3,1.5,0.6,2.3,0.9c1.5,0.6,2.8,1.1,4.1,1.6
					c2.6,1,4.6,1.9,6.1,2.5c1.5,0.6,2.3,1,2.3,1s-0.8-6.7-1.9-13.4c-1.1-6.7-2.4-13.4-2.4-13.4s2.9,1.1,5.8,2.3
					c1.5,0.6,2.9,1.2,4,1.7c1.1,0.5,1.8,0.8,1.8,0.8C-857.5,539.6-856.2,550.7-855.4,561.4z"/>
			</g>
		</g>
	</g>
</g>
<g id="Layer_4" display="none">
	<g display="inline">
		<path d="M912.5,267.5c0,1.8-1.8,3.5-3.5,3.5s-3.5-1.8-3.5-3.5v-28.2c0-1.8,1.8-3.5,3.5-3.5s3.5,1.8,3.5,3.5V267.5z M958.2,147.9
			h-63.3V359h63.3c3.9,0,7-3.2,7-7V154.9C965.2,151.1,962.1,147.9,958.2,147.9z"/>
		<path d="M863.2,154.9V352c0,3.9,3.2,7,7,7h21.1V147.9h-21.1C866.4,147.9,863.2,151.1,863.2,154.9z"/>
		<path d="M704.8,312.6c0-1.1,0.7-1.8,1.8-1.8c1.1,0,1.8,0.7,1.8,1.8v14.1c0,1.1-0.7,1.8-1.8,1.8c-1.1,0-1.8-1.1-1.8-1.8V312.6z
			 M701.3,359h49.3v-79.2h-49.3V359z"/>
		<path d="M690.8,312.6c0-1.1,0.7-1.8,1.8-1.8s1.8,0.7,1.8,1.8v14.1c0,1.1-0.7,1.8-1.8,1.8s-1.8-1.1-1.8-1.8V312.6z M648.5,359h49.3
			v-79.2h-49.3V359z"/>
		<path d="M747.1,271.1h-95c-1.8,0-3.5,1.8-3.5,3.5v3.5h102.1v-3.5C750.6,272.8,748.8,271.1,747.1,271.1z"/>
		<path d="M771.7,318.6h70.4v28.2h-70.4V318.6z M771.7,302.7h70.4v10.6h-70.4V302.7z M755.9,359h102.1v-68.6H755.9V359z"/>
		<path d="M775.2,276.3c1.8,0,3.5,1.8,3.5,3.5s-1.8,3.5-3.5,3.5s-3.5-1.8-3.5-3.5S773.5,276.3,775.2,276.3z M789.3,276.3
			c1.8,0,3.5,1.8,3.5,3.5s-1.8,3.5-3.5,3.5s-3.5-1.8-3.5-3.5S787.5,276.3,789.3,276.3z M821,278.4c0-1.1,0.7-1.8,1.8-1.8h17.6
			c1.1,0,1.8,0.7,1.8,1.8v2.8c0,1.1-0.7,1.8-1.8,1.8h-17.6c-1.1,0-1.8-0.7-1.8-1.8V278.4z M755.9,288.7h102.1v-17.6H755.9V288.7z"/>
		<path d="M673.2,232.3h35.2v28.2h-35.2V232.3z M718.9,248.2c1.8,0,3.5,1.8,3.5,3.5s-1.8,3.5-3.5,3.5s-3.5-1.8-3.5-3.5
			S717.1,248.2,718.9,248.2z M718.9,234.1c1.8,0,3.5,1.8,3.5,3.5s-1.8,3.5-3.5,3.5s-3.5-1.8-3.5-3.5S717.1,234.1,718.9,234.1z
			 M671.4,267.5h56.3c1.8,0,3.5-1.8,3.5-3.5v-35.2c0-1.8-1.8-3.5-3.5-3.5h-56.3c-1.8,0-3.5,1.8-3.5,3.5V264
			C667.9,265.8,669.6,267.5,671.4,267.5z"/>
		<path d="M758.3,244.7h2.8V257c0,6,4.6,10.6,10.6,10.6h21.1c6,0,10.6-4.6,10.6-10.6v-12.3h2.8c1.4,0,2.8-1.1,2.8-2.8
			s-1.4-2.5-2.8-2.5c-15.8,0-31.7,0-47.5,0c-1.4,0-2.8,1.1-2.8,2.8S756.9,244.7,758.3,244.7z"/>
		<path d="M785.8,233.4c-0.3-1.4-1.8-2.8-3.5-2.8c-1.8,0-3.2,1.1-3.5,2.8c-10.2,0.3-17.6,2.1-17.6,4.2c14.1,0,28.2,0,42.2,0
			C803.4,235.5,795.6,233.8,785.8,233.4z"/>
	</g>
	<g display="inline">
		<g>
			<path d="M1216.8,502.9c0,9.9-8,18-18,18c-9.9,0-18-8-18-18c0-9.9,8-18,18-18C1208.7,484.9,1216.8,493,1216.8,502.9z"/>
			<path d="M1208.8,525.3c0-2.3-0.8-3.2-0.8-3.2l-6.6,1.7c-0.5-0.8-1.4-1.4-2.4-1.4c-1,0-1.9,0.5-2.4,1.3l-6.5-1.6
				c0,0-0.8,1-0.8,3.2c0,2.3,0.8,3.3,0.8,3.3l6.7-1.6c0.5,0.7,1.3,1.1,2.2,1.1c0.9,0,1.7-0.5,2.2-1.1l6.8,1.7
				C1208,528.6,1208.8,527.6,1208.8,525.3z"/>
			<path d="M1276.9,536.2L1276.9,536.2c0.9-2.2,0.7-4.8-0.8-6.8c-2.3-3.1-6.6-3.7-9.6-1.4c-0.7,0.5-1.2,1.1-1.6,1.8l0,0l-0.1,0.1
				c0,0.1-0.1,0.2-0.1,0.2l-11,19.1l-15.5-19.5c-1.2-1.8-3.2-2.9-5.5-3l-0.2-0.1h-20.3l-10.4,39.7h4.4v46h-28.5v-46h-0.4h20
				l-10.4-39.7h-24.5c-0.1,0-0.1,0-0.2,0c-3.7,0-6.8,3-6.9,6.7l0,0v45.8c0,4.1,3.3,7.4,7.4,7.4h4.6l3.5,35.7h3l5.8,82.6
				c-3.8,1.6-6.3,4.6-6.3,8h49.4c0-3.8-3.1-7.1-7.6-8.5l6.6-82.1h2.9l9.3-62.2l14.1,10.8c2.9,3.2,7.7,3.8,11.2,1.2
				c1.2-0.9,2.1-2.1,2.6-3.3l0,0l15-31.8c0.1-0.2,0.2-0.4,0.3-0.5L1276.9,536.2z"/>
		</g>
		<g>
			<path fill="#39B54A" d="M1272,504.6c-1.3-4.5,5.9-7.2,5.8-2.7c0.7,2.4,0.9,3.8-1.6,4.3C1274.1,506.6,1272.7,506.8,1272,504.6z"/>
			<path fill="#39B54A" d="M1277.3,489.7c-0.7,2.4,2.8,2.8,1.9,5.5c1.8,0,1.3-1.5,2-2.7c1-1.7,3.3-2.2,3.1-4.6
				c0.2,4.4,2.6-0.3,4.3-0.5c0.1-0.8-0.3-1.8-0.4-2.4c-0.8-1.7-0.7-3.4-3-2.2c-1.6,0.9-3.6,2.5-1.6,4.1
				C1281.6,487.2,1278,487.2,1277.3,489.7z"/>
			<path fill="#39B54A" d="M1272.1,483.4c-0.9,0.5-1.4,2.5-1.6,3.5c-0.4,1.8-0.3,7.4,2.7,6.4c1.7-0.5,1.4-3.1,2-4.4
				c0.4-0.9,1.1-0.7,1.3-1.7c0.2-0.7-0.2-1.8-0.3-2.5c1.1,2.9,5.5,1.6,4.4-1.3c-0.9-0.8-2.6-1.3-3.7-0.7c-1.7,0.9-0.1,1.8-1.4,1.9
				C1274.6,484.6,1273.9,482.4,1272.1,483.4z"/>
			<path fill="#39B54A" d="M1276.9,495.8c-1.2-4-8.5,1.8-7.1,4.3c1,1.8,2.7-1.3,3.7-1.8C1274.9,497.5,1277.2,498.2,1276.9,495.8z"/>
			<path fill="#39B54A" d="M1279.6,481c1.1,0.5,2.4,0.4,2-1.3c-1.6-1.3-6.3-1.7-6.1,1.3C1276.8,481,1278.3,480.5,1279.6,481z"/>
			<path fill="#39B54A" d="M1282.7,496.7c1.2-0.8,3.3-0.7,2.9-2.8c-2-4.6-5.8,4.6-6.1,6.2C1281,499.5,1281.4,497.6,1282.7,496.7z"/>
			<path fill="#39B54A" d="M1291.3,502.7c0.7,1.3,3.7,0.5,5.2-0.3c2-1,2.5-2.3,2-4.5C1297.2,492.3,1289.4,499.1,1291.3,502.7z"/>
			<path fill="#39B54A" d="M1286.7,505c1.7-1.4,1.3-6,1-7.9c-1.8-0.3-3.9,0.5-5.1,1.8c-0.9,0.9-3.5,5.3-2.4,6.6
				C1280.8,506.3,1286.1,505.5,1286.7,505z"/>
			<path fill="#39B54A" d="M1296.5,493.9c1.4-0.3,0.9-2.4,0.6-3.7c-0.1-3.3-3.6-0.7-3,1.7C1294.4,492.9,1295.4,494.1,1296.5,493.9z"
				/>
			<path fill="#39B54A" d="M1287.3,493.9c0.5,1,1.9,1,2.2,2.8c0.4,2-0.5,4.1-0.2,6.1c1.3-1,1.1-4.8,2.2-6.5c0.6-1,1.4-1.2,1.4-2.4
				c0-0.8-0.8-1.9-1.2-2.6c1.3-0.1,2.6-4.7,0.8-4.6c-0.9-1.4-2-1.6-2.5-0.1c-0.5,1.6,1.4,3.1,1.9,4.4
				C1289.7,489.7,1285.6,490.7,1287.3,493.9z"/>
			<path fill="#39B54A" d="M1259.9,493.4c0.9,0,0.8,0.8,1.6,0.4c0.9-0.4,1.5-2,2.1-2.8c0.9-4.2-7.6-3.5-6.8,1.4
				C1257.1,494.4,1258,493.5,1259.9,493.4z"/>
			<path fill="#39B54A" d="M1256.1,488.5c-0.2-1.7-2.8-2.2-3.5-0.5C1252,489.2,1255.8,492.7,1256.1,488.5z"/>
			<path fill="#39B54A" d="M1255.2,498.7c-0.6,1.2-0.8,2.6-0.7,3.9c0.2,2.3,0.4,1.8,2.1,2.3c0.9,0.3,2.4,1.1,3.3,1
				c1.9-0.3,1-0.9,0.7-2.2c-0.3-1.1-1-2.3-1-3.4c0-1.6,1.4-2.7,1.2-4.4C1259.5,492.3,1255.9,497.3,1255.2,498.7z"/>
			<path fill="#39B54A" d="M1248.2,494.2c0.9,0.4,1.2,1.8,2,2c0.7,0.2,1.5-0.9,2.7-0.7c1,0.2,1.2,2,2.2,0.4c0.6-1,0.4-2,0.1-3.1
				c-2.2-2.1-4.9-3.2-7.6-1.8c-0.6,0.3-2.9,0.9-1.8,1.9C1246.9,494.1,1247.3,493.8,1248.2,494.2z"/>
			<path fill="#39B54A" d="M1273.7,479.6c-1.4-2.5-8.3-2.7-7,1.3C1267.6,483.5,1274.2,482.8,1273.7,479.6z"/>
			<path fill="#39B54A" d="M1247.9,495.3c-1.6,0.9-3.2,2.4-2.3,4.4c1.6,3.6,2.2,1.6,3.2-0.7c0.3,1.5-0.1,3.1,1.5,3.9
				c1.7,0.8,2.5-0.1,2.6-1.8c0.1-1.2,0.9-4.1-0.6-4.5c-1.1-0.3-2.3,1.6-3.4,1.9c0.2-0.5,0.3-1.2,0.5-1.6
				C1249.2,496.1,1248.6,495.8,1247.9,495.3z"/>
			<path fill="#39B54A" d="M1265.8,489c0.3,1.6-1.9,3.9-2.6,5.1c0.6-0.3,0.6-0.1,1.1-0.6c0.1,0.8,0.1,1.6,0.2,2.5
				c2.2-0.3,2.8,2.1,4.6-0.8c1.6-2.7,0-3.9-2.8-3.5c0.5-1.5,1.9-0.1,2.3-1.8c0.3-1.6,0.3-3.3,0.7-4.9c-0.7-0.8-2.3-1.9-3.4-1.6
				c-0.7,0.2-2.5,2.4-2.4,3.1C1263.7,487.7,1265.5,487.5,1265.8,489z"/>
			<path fill="#39B54A" d="M1261.8,500.2c-1.6,2.2,0.6,2.3,1.4,3.2c0.9,1,0.6,2.4,1.7,2.6c0.9,0.2,2.7,0.9,3.5,0.3
				c1.7-1.3-0.5-4.8-1.3-6.3C1266.1,498.4,1262.9,498.7,1261.8,500.2z"/>
			<path d="M1305.1,500.1c0-2.4-1.4-4.6-3.7-6.5c-1,0.6-2,1.2-3.1,1.7c1.5,1.1,2.3,2.4,2.3,3.7c0,5.1-12.7,9.3-28.4,9.3
				c-15.7,0-28.4-4.1-28.4-9.3c0-1.4,1.1-2.8,2.9-4l-2.9-1.9c-2.8,2.1-4.4,4.5-4.4,7.1c0,0.1,0,0.3,0,0.4h0
				c0.2,5.5,1.9,11.3,4.8,16.8c0,0,6.9,13.5,28,13.5c21.2,0,27.9-13.6,27.9-13.6c2.8-5.4,4.7-11.3,4.9-16.7h0
				C1305,500.4,1305.1,500.2,1305.1,500.1z"/>
			<path fill="#39B54A" d="M1264.4,482.4c1.1-3.8-8.1-0.1-6.5,3.9C1259.1,489.3,1263.5,483.8,1264.4,482.4z"/>
		</g>
	</g>
	<g display="inline">
		<g>
			<line x1="746" y1="713.5" x2="774" y2="713.5"/>
			<path d="M886.9,815c0,14.6-11.9,26.5-26.5,26.5c-14.7,0-26.5-11.9-26.5-26.5c0-14.7,11.9-26.5,26.5-26.5
				C875.1,788.4,886.9,800.3,886.9,815"/>
			<path d="M895.4,895.4l0-11.9h4.6l28.4,20.6l-5.8,15.6c0,0,0.5,17.4,18.8,7.6l11.8-26l-37.2-42l0,0c-5.1-7.4-13.2-12.4-24.3-12.4
				l-59.4,0c-11.2,0-19.8,5.4-25,13.8l-36.5,40.6l12,26c18.6,9.8,19-7.6,19-7.6l-5.8-15.6l28.9-20.6h4.5l0,11.9"/>
			<path d="M896.3,933.1c-4.6,3.9-18.9,6.7-35.9,6.7c-16.9,0-31.2-2.8-35.9-6.7c-11.5-2.5-18.9-6.3-18.9-10.4
				c0-7.6,24.5-13.8,54.8-13.8c30.3,0,54.8,6.2,54.8,13.8C915.2,926.8,907.9,930.5,896.3,933.1z M997.4,950.1l-39-50.4h-3.3l1.9,1.6
				L943.9,930l-1,0.4c-4.2,2.2-7.9,3.3-11.2,3.3c-2.2,0-4.2-0.5-5.9-1.6c-6.1-3.6-6.4-11.9-6.4-12.2l0-0.6l5.1-13.3l-9.2-6.2h-106
				l-9.4,6.2l5.2,13.5l0,0.5c0,0.4-0.3,8.5-6.4,12.1c-4.4,2.6-10.2,1.9-17.4-1.8l-1-0.5L767,901.3l1.9-1.6H765l-33,50.4v22.4h266
				v-22.4H997.4z"/>
		</g>
		<g>
			<polygon fill="#FFFFFF" points="831.4,892.2 842.4,885.1 848.4,879.3 858.5,875.6 867.7,875.7 873.4,879.7 885.3,887 
				891.4,896.4 881.6,908.7 851.3,910.3 833.7,902.7 			"/>
			<g>
				<path fill="#39B54A" d="M860.2,901.4c-1.3-4.5,5.9-7.2,5.8-2.7c0.7,2.4,0.9,3.8-1.6,4.3C862.2,903.4,860.9,903.7,860.2,901.4z"
					/>
				<path fill="#39B54A" d="M865.4,886.6c-0.7,2.4,2.8,2.8,1.9,5.5c1.8,0,1.3-1.5,2-2.7c1-1.7,3.3-2.2,3.1-4.6
					c0.2,4.4,2.6-0.3,4.3-0.5c0.1-0.8-0.3-1.8-0.4-2.4c-0.8-1.7-0.7-3.4-3-2.2c-1.6,0.9-3.6,2.5-1.6,4.1
					C869.7,884,866.2,884,865.4,886.6z"/>
				<path fill="#39B54A" d="M860.2,880.2c-0.9,0.5-1.4,2.5-1.6,3.5c-0.4,1.8-0.3,7.4,2.7,6.4c1.7-0.5,1.4-3.1,2-4.4
					c0.4-0.9,1.1-0.7,1.3-1.7c0.2-0.7-0.2-1.8-0.3-2.5c1.1,2.9,5.5,1.6,4.4-1.3c-0.9-0.8-2.6-1.3-3.7-0.7c-1.7,0.9-0.1,1.8-1.4,1.9
					C862.7,881.4,862,879.2,860.2,880.2z"/>
				<path fill="#39B54A" d="M865,892.6c-1.2-4-8.5,1.8-7.1,4.3c1,1.8,2.7-1.3,3.7-1.8C863,894.4,865.3,895,865,892.6z"/>
				<path fill="#39B54A" d="M867.7,877.9c1.1,0.5,2.4,0.4,2-1.3c-1.6-1.3-6.3-1.7-6.1,1.3C864.9,877.8,866.5,877.3,867.7,877.9z"/>
				<path fill="#39B54A" d="M870.9,893.6c1.2-0.8,3.3-0.7,2.9-2.8c-2-4.6-5.8,4.6-6.1,6.2C869.1,896.3,869.5,894.5,870.9,893.6z"/>
				<path fill="#39B54A" d="M879.5,899.6c0.7,1.3,3.7,0.5,5.2-0.3c2-1,2.5-2.3,2-4.5C885.3,889.1,877.6,895.9,879.5,899.6z"/>
				<path fill="#39B54A" d="M874.8,901.8c1.7-1.4,1.3-6,1-7.9c-1.8-0.3-3.9,0.5-5.1,1.8c-0.9,0.9-3.5,5.3-2.4,6.6
					C868.9,903.1,874.2,902.3,874.8,901.8z"/>
				<path fill="#39B54A" d="M884.7,890.7c1.4-0.3,0.9-2.4,0.6-3.7c-0.1-3.3-3.6-0.7-3,1.7C882.5,889.7,883.5,890.9,884.7,890.7z"/>
				<path fill="#39B54A" d="M875.5,890.7c0.5,1,1.9,1,2.2,2.8c0.4,2-0.5,4.1-0.2,6.1c1.3-1,1.1-4.8,2.2-6.5c0.6-1,1.4-1.2,1.4-2.4
					c0-0.8-0.8-1.9-1.2-2.6c1.3-0.1,2.6-4.7,0.8-4.6c-0.9-1.4-2-1.6-2.5-0.1c-0.5,1.6,1.4,3.1,1.9,4.4
					C877.8,886.5,873.7,887.5,875.5,890.7z"/>
				<path fill="#39B54A" d="M848.1,890.2c0.9,0,0.8,0.8,1.6,0.4c0.9-0.4,1.5-2,2.1-2.8c0.9-4.2-7.6-3.5-6.8,1.4
					C845.3,891.2,846.1,890.3,848.1,890.2z"/>
				<path fill="#39B54A" d="M844.2,885.4c-0.2-1.7-2.8-2.2-3.5-0.5C840.2,886.1,843.9,889.5,844.2,885.4z"/>
				<path fill="#39B54A" d="M843.3,895.6c-0.6,1.2-0.8,2.6-0.7,3.9c0.2,2.3,0.4,1.8,2.1,2.3c0.9,0.3,2.4,1.1,3.3,1
					c1.9-0.3,1-0.9,0.7-2.2c-0.3-1.1-1-2.3-1-3.4c0-1.6,1.4-2.7,1.2-4.4C847.7,889.1,844,894.1,843.3,895.6z"/>
				<path fill="#39B54A" d="M836.4,891c0.9,0.4,1.2,1.8,2,2c0.7,0.2,1.5-0.9,2.7-0.7c1,0.2,1.2,2,2.2,0.4c0.6-1,0.4-2,0.1-3.1
					c-2.2-2.1-4.9-3.2-7.6-1.8c-0.6,0.3-2.9,0.9-1.8,1.9C835.1,890.9,835.4,890.6,836.4,891z"/>
				<path fill="#39B54A" d="M861.9,876.4c-1.4-2.5-8.3-2.7-7,1.3C855.8,880.3,862.4,879.6,861.9,876.4z"/>
				<path fill="#39B54A" d="M836,892.2c-1.6,0.9-3.2,2.4-2.3,4.4c1.6,3.6,2.2,1.6,3.2-0.7c0.3,1.5-0.1,3.1,1.5,3.9
					c1.7,0.8,2.5-0.1,2.6-1.8c0.1-1.2,0.9-4.1-0.6-4.5c-1.1-0.3-2.3,1.6-3.4,1.9c0.2-0.5,0.3-1.2,0.5-1.6
					C837.4,893,836.7,892.6,836,892.2z"/>
				<path fill="#39B54A" d="M854,885.8c0.3,1.6-1.9,3.9-2.6,5.1c0.6-0.3,0.6-0.1,1.1-0.6c0.1,0.8,0.1,1.6,0.2,2.5
					c2.2-0.3,2.8,2.1,4.6-0.8c1.6-2.7,0-3.9-2.8-3.5c0.5-1.5,1.9-0.1,2.3-1.8c0.3-1.6,0.3-3.3,0.7-4.9c-0.7-0.8-2.3-1.9-3.4-1.6
					c-0.7,0.2-2.5,2.4-2.4,3.1C851.9,884.5,853.7,884.4,854,885.8z"/>
				<path fill="#39B54A" d="M849.9,897c-1.6,2.2,0.6,2.3,1.4,3.2c0.9,1,0.6,2.4,1.7,2.6c0.9,0.2,2.7,0.9,3.5,0.3
					c1.7-1.3-0.5-4.8-1.3-6.3C854.2,895.3,851.1,895.5,849.9,897z"/>
				<path d="M893.2,896.9c0-2.4-1.4-4.6-3.7-6.5c-1,0.6-2,1.2-3.1,1.7c1.5,1.1,2.3,2.4,2.3,3.7c0,5.1-12.7,9.3-28.4,9.3
					s-28.4-4.1-28.4-9.3c0-1.4,1.1-2.8,2.9-4l-2.9-1.9c-2.8,2.1-4.4,4.5-4.4,7.1c0,0.1,0,0.3,0,0.4h0c0.2,5.5,1.9,11.3,4.8,16.8
					c0,0,6.9,13.5,28,13.5s27.9-13.6,27.9-13.6c2.8-5.4,4.7-11.3,4.9-16.7h0C893.2,897.2,893.2,897.1,893.2,896.9z"/>
				<path fill="#39B54A" d="M852.6,879.3c1.1-3.8-8.1-0.1-6.5,3.9C847.3,886.1,851.7,880.6,852.6,879.3z"/>
			</g>
		</g>
	</g>
	<g display="inline">
		<g>
			<g>
				<path fill="#52BE61" d="M989.6,884.2c0.1-13.8,0-27.5-0.5-41.2c0,0,0.8-0.4,1.9-1.1c1.1-0.7,2.6-1.6,4.1-2.5
					c1.5-0.9,3-1.8,4.1-2.5c1.1-0.7,1.8-1.1,1.8-1.1c0.7,11.2,1,22.5,1.2,33.8c6.6-3.9,13.1-7.9,19.5-12
					c11.4-7.2,22.5-14.8,33.2-22.9c5.4-4,10.6-8.2,15.8-12.4c5.1-4.3,10.1-8.7,14.9-13.3c9.6-9.2,18.5-19,25.9-29.8
					c7.3-10.7,13-22.4,15.3-34.7l12.5,2.3c-1.4,7.3-3.7,14.2-6.7,20.8c-3,6.6-6.6,12.8-10.6,18.7c-8,11.7-17.5,22.1-27.6,31.8
					c-5.1,4.8-10.3,9.4-15.6,13.9c-5.3,4.4-10.8,8.7-16.3,12.9c-11.1,8.3-22.4,16-34,23.4c-6.6,4.2-13.2,8.2-19.8,12.2
					c9.9,5.5,20,10.9,30.3,16.1c0,0-0.8,0.5-2,1.3c-1.2,0.8-2.9,1.8-4.5,2.8c-1.6,1-3.3,2-4.5,2.7c-1.2,0.7-2.1,1.2-2.1,1.2
					C1013.6,898.1,1001.5,891.2,989.6,884.2z"/>
			</g>
		</g>
	</g>
	<g display="inline">
		<path d="M521.4,499.3c0,9.9-8,18-18,18c-9.9,0-18-8-18-18c0-9.9,8-18,18-18C513.3,481.3,521.4,489.4,521.4,499.3z"/>
		<path d="M513.4,521.7c0-2.3-0.8-3.2-0.8-3.2l-6.6,1.7c-0.5-0.8-1.4-1.4-2.4-1.4c-1,0-1.9,0.5-2.4,1.3l-6.5-1.6c0,0-0.8,1-0.8,3.2
			c0,2.3,0.8,3.3,0.8,3.3l6.7-1.6c0.5,0.7,1.3,1.1,2.2,1.1c0.9,0,1.7-0.5,2.2-1.1l6.8,1.7C512.6,525,513.4,524,513.4,521.7z"/>
		<path d="M581.5,532.6L581.5,532.6c0.9-2.2,0.7-4.8-0.8-6.8c-2.3-3.1-6.6-3.7-9.6-1.4c-0.7,0.5-1.2,1.1-1.6,1.8l0,0l-0.1,0.1
			c0,0.1-0.1,0.2-0.1,0.2l-11,19.1l-15.5-19.5c-1.2-1.8-3.2-2.9-5.5-3L537,523h-20.3l-10.4,39.7h4.4v46h-28.5v-46h-0.4h20L491.2,523
			h-24.5c-0.1,0-0.1,0-0.2,0c-3.7,0-6.8,3-6.9,6.7l0,0v45.8c0,4.1,3.3,7.4,7.4,7.4h4.6l3.5,35.7h3l5.8,82.6c-3.8,1.6-6.3,4.6-6.3,8
			H527c0-3.8-3.1-7.1-7.6-8.5l6.6-82.1h2.9l9.3-62.2l14.1,10.8c2.9,3.2,7.7,3.8,11.2,1.2c1.2-0.9,2.1-2.1,2.6-3.3l0,0l15-31.8
			c0.1-0.2,0.2-0.4,0.3-0.5L581.5,532.6z"/>
	</g>
	<text transform="matrix(1 0 0 1 725.9431 595.2979)" display="inline" font-family="'MuseoSans-700'" font-size="79">Server</text>
	<text transform="matrix(1 0 0 1 745.9717 1092.6688)" display="inline" font-family="'MuseoSans-700'" font-size="79">Client</text>
	<g display="inline">
		<g>
			<g>
				<path fill="#52BE61" d="M520.8,790.3c0,0,3.1-0.3,7.6-0.9c4.5-0.6,10.4-1.5,16.4-2.5c6-1,11.8-2.1,16.2-3
					c4.4-0.9,7.3-1.5,7.3-1.5c3.3,4.1,6.9,8,10.4,12.1c-6.4,1.5-12.8,3-19.3,4.3c-6.5,1.4-12.9,2.6-19.5,3.8
					c2.9,3.4,5.7,6.9,8.7,10.2l4.4,5l4.5,5c2,2.2,4.1,4.5,6.2,6.6l6.2,6.6c4.3,4.3,8.4,8.6,12.8,12.8c8.6,8.5,17.6,16.5,26.8,24.3
					l6.9,5.8c2.3,1.9,4.7,3.7,7.1,5.6c4.7,3.8,9.6,7.1,14.4,10.6c9.9,6.7,20,12.9,30.5,18l-6.4,13.5c-11.5-5.6-22.2-12.2-32.6-19.2
					c-5.1-3.7-10.2-7.2-15.1-11.1c-2.4-1.9-5-3.8-7.3-5.8l-7.2-5.9c-9.5-8.1-18.7-16.3-27.5-25c-4.5-4.3-8.8-8.7-13.1-13.1l-6.4-6.7
					c-2.1-2.2-4.2-4.5-6.3-6.8l-4.6-5.1l-4.5-5.2c-3-3.4-6-7-8.9-10.5c-2.3,6.3-4.5,12.7-6.6,19.1c-2.1,6.4-4.1,12.9-6.1,19.4
					c-4.1-4.7-8.2-9.3-12.1-14.1c0,0,1-2.9,2.4-7.4c1.5-4.4,3.6-10.3,5.7-16.1c2.1-5.7,4.4-11.5,6.2-15.7
					C519.6,793,520.8,790.3,520.8,790.3z"/>
			</g>
		</g>
	</g>
	<g display="inline">
		<g>
			<g>
				<path fill="#52BE61" d="M599.4,358.6c0,0-0.1,0.6-0.3,1.6c-0.2,1-0.4,2.5-0.5,4.2c-0.1,1.7-0.2,3.8-0.1,5.9
					c0.1,2.1,0.2,4.4,0.5,6.6c0.2,2.2,0.6,4.5,0.9,6.5c0.4,2,0.7,4,1.1,5.6c0.4,1.6,0.7,3,0.9,3.9c0.2,0.9,0.4,1.5,0.4,1.5
					c-2.5,1.8-5.2,4.1-8,6.5c-2.7-9.6-5.1-19.4-6.3-29.6c-5.4,3.8-10.6,8.3-15.7,13c-10.6,9.9-20.6,20.9-31,31.7
					c-5.2,5.4-10.5,10.8-16.1,16c-2.8,2.6-5.7,5.1-8.8,7.6c-3.1,2.4-6.3,4.8-10,6.8l-5.6-10.2c2.9-1.6,5.7-3.6,8.4-5.8
					c2.8-2.2,5.5-4.5,8.1-7c5.3-4.9,10.5-10.1,15.6-15.5c10.3-10.7,20.4-21.7,31.5-32.1c5.3-4.9,10.8-9.7,16.9-14
					c-9.7-4.2-20.1-7.4-30.7-10.1c3.9-3.5,8.1-6.9,12.8-10.4c0,0,0.6,0.2,1.7,0.5c1.1,0.3,2.6,0.8,4.4,1.4c1.8,0.6,3.9,1.4,6.2,2.2
					c2.3,0.9,4.6,1.8,6.9,2.9c2.3,1.1,4.6,2.2,6.6,3.3c2.1,1.2,3.9,2.3,5.4,3.3c1.5,1.1,2.7,2,3.5,2.6
					C598.9,358.2,599.4,358.6,599.4,358.6z"/>
			</g>
		</g>
	</g>
	<g display="inline">
		<g>
			<g>
				<path fill="#52BE61" d="M1140.6,440.9c0,0-0.6-0.3-1.7-0.9c-1.1-0.6-2.7-1.4-4.5-2.2c-1.9-0.9-4.1-1.8-6.5-2.7
					c-2.4-0.9-5-1.7-7.5-2.5c-2.6-0.7-5.2-1.4-7.6-1.9c-2.4-0.5-4.7-1-6.7-1.3c-1.9-0.3-3.6-0.6-4.7-0.8c-1.1-0.2-1.8-0.3-1.8-0.3
					c-0.9-3.6-2.1-7.4-3.6-11.3c11.7,0.8,23.5,2.5,35.3,5.7c-1.9-7.7-4.4-15.3-7.5-22.8c-7.3-17.6-17.1-34.4-28.4-50.1
					c-11.3-15.7-24.2-30.2-38.5-43.1l9.2-10.3c15.1,13.6,28.6,28.8,40.5,45.3c11.8,16.4,22.2,34,30,52.9c3.3,8,6.1,16.3,8.2,24.9
					c8.9-8.8,17-18.9,24.4-29.7c2.2,6.1,4.3,12.4,6,19.1c0,0-0.5,0.6-1.3,1.6c-0.8,1-2,2.5-3.5,4.2c-1.5,1.7-3.2,3.7-5.2,5.7
					c-2,2.1-4,4.2-6.2,6.2c-2.2,2.1-4.4,4-6.5,5.7c-2.1,1.8-4.1,3.3-5.9,4.5c-1.8,1.3-3.3,2.2-4.3,2.9
					C1141.1,440.5,1140.6,440.9,1140.6,440.9z"/>
			</g>
		</g>
	</g>
</g>
</svg>
