<?xml version="1.0" encoding="utf-8"?>
<!-- Generator: Adobe Illustrator 20.1.0, SVG Export Plug-In . SVG Version: 6.00 Build 0)  -->
<!DOCTYPE svg PUBLIC "-//W3C//DTD SVG 1.1//EN" "http://www.w3.org/Graphics/SVG/1.1/DTD/svg11.dtd">
<svg version="1.1" id="Layer_1" xmlns="http://www.w3.org/2000/svg" xmlns:xlink="http://www.w3.org/1999/xlink" x="0px" y="0px"
	 viewBox="0 0 1817 905.2" style="enable-background:new 0 0 1817 905.2;" xml:space="preserve">
<style type="text/css">
	.st0{fill:#2480A9;}
	.st1{fill:#247FA9;}
	.st2{fill:#3E3739;}
</style>
<path class="st0" d="M1253,465.5c-2.7,2.7-6.4,4.9-9.6,6.4c-9.6,4.2-19.9,4.2-31.7-0.5c-13.4-5.4-22-14-25.8-24.7
	c-2.7-8.1-2.7-17.2-1-25.2c1.7,6.4,5.4,12.3,11.3,17.2l5.9-7.5c-13.4-9.6-8.6-33.3-8.6-33.3l6.4-30.6l-15.5,26.9
	c-0.5,1-16.7,29.6-7.5,55.9c4.9,13.4,15,23.6,31.1,30.1c14,5.9,27.4,5.9,39.2,0.5c5.4-2.7,10.1-5.9,14-10.1"/>
<g>
	<path class="st1" d="M362.9,484h-16.2v-24.2h16.7v-34.9h29.6v34.9h27.9V484h-27.9v47.3c0,19.9,15.5,23.1,24.2,23.1
		c3.2,0,5.4-0.5,5.4-0.5v26.3c0,0-3.7,0.5-9.1,0.5c-17.2,0-50.5-4.9-50.5-46.1C362.9,534.5,362.9,484,362.9,484z"/>
	<path class="st1" d="M509.5,503.3h4.2v-1.7c0-16.1-10.1-21.5-23.6-21.5c-17.7,0-33.3,11.8-33.3,11.8L445,470c0,0,18.8-15,47.8-15
		c32.2,0,50.5,17.7,50.5,48.3v76.2h-27.9v-10.1c0-4.9,0.5-8.6,0.5-8.6h-0.5c0,0-9.1,21.5-37,21.5c-22,0-41.4-13.4-41.4-38.2
		C437.5,506,489.6,503.3,509.5,503.3z M486.3,559.2c16.1,0,27.4-17.2,27.4-32.2v-2.7h-5.4c-15.5,0-40.9,2.2-40.9,19.3
		C468.1,551.7,474,559.2,486.3,559.2z"/>
	<path class="st1" d="M632.9,455c31.7,0,46.8,18.2,46.8,18.2l-13.4,20.9c0,0-12.8-13.4-31.7-13.4c-22.5,0-37,17.2-37,37.5
		c0,20.4,15,38.2,38.2,38.2c20.4,0,36-15.5,36-15.5l11.8,21.5c0,0-17.7,19.9-50.5,19.9c-40.2,0-66-28.4-66-63.9
		C566.3,484,592.1,455,632.9,455z"/>
	<path class="st1" d="M705.9,409.9h30.6v90.7h15l29.6-42.9h33.8l-38.7,54.7v0.5l43.4,67.1h-34.9l-32.2-53.2h-15.5V580h-30.6V409.9
		H705.9z"/>
	<path class="st1" d="M835.3,409.9h30.1v127.2c0,13.4,4.2,16.7,12.3,16.7c2.2,0,4.2,0,4.2,0v26.3c0,0-4.2,0.5-9.6,0.5
		c-16.7,0-37.5-4.2-37.5-39.2V409.9H835.3z"/>
	<path class="st1" d="M958.2,455c34.9,0,54.2,25.8,54.2,57.9c0,3.7-0.5,11.8-0.5,11.8h-84.3c2.2,21.5,18.2,32.2,36.5,32.2
		c19.9,0,34.9-13.4,34.9-13.4l11.8,22c0,0-18.8,17.7-48.8,17.7c-40.2,0-65.5-29-65.5-63.9C896.5,481.3,921.6,455,958.2,455z
		 M981.8,503.9c-0.5-16.7-10.8-25.2-24.2-25.2c-15.5,0-26.3,9.6-29,25.2H981.8z"/>
	<path class="st2" d="M1037.6,409.9h30.6v52.5c0,5.9-0.5,10.1-0.5,10.1h0.5c0,0,10.8-17.7,36.5-17.7c32.8,0,54.2,26.3,54.2,63.9
		c0,38.7-23.6,63.9-55.9,63.9c-25.2,0-36.5-18.2-36.5-18.2h-0.5c0,0,0.5,3.7,0.5,8.6v6.9h-28.4v-170H1037.6z M1097.3,557
		c16.7,0,30.6-13.4,30.6-37.5c0-23.1-12.3-38.2-30.6-38.2c-15.5,0-30.6,11.3-30.6,38.7C1066.7,538.7,1076.8,557,1097.3,557z"/>
	<path class="st2" d="M1241.7,438.5c37.5,0,67.1,26.3,67.1,63.9s-30.1,63.9-67.1,63.9c-37.5,0-67.1-26.3-67.1-63.9
		C1174.5,465.4,1204.5,438.5,1241.7,438.5z M1241.7,540.5c19.9,0,36-15.5,36-38.2c0-22.5-16.7-38.2-36-38.2
		c-19.9,0-36.5,15.5-36.5,38.2C1205.2,525,1221.8,540.5,1241.7,540.5z"/>
	<path class="st2" d="M1377,538.2c0,0-1.7,3.7-3.2,6.4l-21.5,35.5h-33.8l40.2-61.8l-39.2-60.1h34.3l18.8,33.3
		c2.2,3.2,4.2,7.5,4.2,7.5h0.5c0,0,2.2-4.2,4.2-7.5l18.8-33.3h34.3l-38.9,60.1l40.2,61.8h-33.8l-21.5-35.5
		C1379,541.9,1377.5,538.2,1377,538.2L1377,538.2z"/>
</g>
<path class="st0" d="M1497.5-20.8l-6.9,1l-159.2,323.7c-0.5,0-0.5-0.5-1-0.5c-7.5-3.2-16.1,0.5-18.8,8.1c-2.2,5.9,0,12.3,3.7,16.1
	l-43.4,108.9v0.5c0,0-5.9,17.7-18.8,29l8.6,5.4c12.8-12.3,18.2-29,19.3-31.1l43.4-108.4c5.4,0,11.8-3.2,14-9.1
	c2.2-5.4,1-11.3-2.7-15L1497.5-20.8z M1324.8,324c-4.2,0-7.5-3.2-7.5-7.5s3.2-7.5,7.5-7.5s7.5,3.2,7.5,7.5
	C1331.7,320.8,1328.5,324,1324.8,324z"/>
<g>
	<path class="st2" d="M1321.5,593.7h7.6c3.7,0,6.3,2.1,6.3,5.5c0,2.2-1,3.9-2.7,4.6l0,0c2.3,0.6,3.6,2.8,3.6,5.3
		c0,4.1-3.2,6.2-6.9,6.2h-7.8L1321.5,593.7L1321.5,593.7z M1329,603c1.9,0,3.2-1.4,3.2-3.3c0-1.9-1.2-3.2-3.2-3.2h-4.5v6.6H1329z
		 M1329.4,612.9c2.3,0,3.7-1.4,3.7-3.7c0-2.2-1.4-3.7-3.7-3.7h-4.9v7.5L1329.4,612.9L1329.4,612.9z"/>
	<path class="st2" d="M1345.4,606.3l-7.3-12.6h3.5l4,7.2c0.6,1.2,1.3,2.7,1.3,2.7l0,0c0,0,0.6-1.5,1.3-2.7l4-7.2h3.5l-7.3,12.6v9.3
		h-3.1v-9.3H1345.4z"/>
	<path class="st2" d="M1366.7,593.7h3.1v19.1h9.8v2.7h-12.7L1366.7,593.7L1366.7,593.7z"/>
	<path class="st2" d="M1394,609.3h-8.2l-2.2,6.3h-3.1l7.8-21.7h3.2l7.8,21.7h-3.2L1394,609.3z M1389.9,596.8c0,0-0.5,1.9-0.9,3.1
		l-2.4,6.9h6.6l-2.4-6.9C1390.6,598.7,1390.1,596.8,1389.9,596.8L1389.9,596.8z"/>
	<path class="st2" d="M1402.7,593.7h6.7c2.3,0,3.2,0.1,4.1,0.5c2.2,0.8,3.7,3,3.7,5.9c0,2.8-1.5,5.1-3.9,5.9l0,0c0,0,0.3,0.3,0.6,1
		l4.6,8.5h-3.5l-4.6-8.6h-4.6v8.6h-3.1v-21.8L1402.7,593.7L1402.7,593.7z M1410.1,604.3c2.3,0,3.9-1.5,3.9-4c0-1.5-0.6-2.7-1.7-3.3
		c-0.6-0.3-1.3-0.5-3-0.5h-3.5v7.8H1410.1z"/>
	<path class="st2" d="M1433.1,609.3h-8.2l-2.2,6.3h-3.1l7.8-21.7h3.2l7.8,21.7h-3.2L1433.1,609.3z M1429,596.8c0,0-0.5,1.9-0.9,3.1
		l-2.4,6.9h6.6l-2.4-6.9C1429.6,598.7,1429.1,596.8,1429,596.8L1429,596.8z"/>
</g>
</svg>
