<?xml version="1.0" encoding="utf-8"?>
<!-- Generator: Adobe Illustrator 18.0.0, SVG Export Plug-In . SVG Version: 6.00 Build 0)  -->
<!DOCTYPE svg PUBLIC "-//W3C//DTD SVG 1.1//EN" "http://www.w3.org/Graphics/SVG/1.1/DTD/svg11.dtd">
<svg version="1.1" id="Layer_1" xmlns="http://www.w3.org/2000/svg" xmlns:xlink="http://www.w3.org/1999/xlink" x="0px" y="0px"
	 viewBox="0 0 753.9 226.6" enable-background="new 0 0 753.9 226.6" xml:space="preserve">
<g>
	<path fill="#2480A9" d="M590.9,134.3c1.2,1.1,2.6,2.1,4.1,3c6.3,4.1,12.6,5.3,18.9,3.7c11.9-3.1,18.9-15.6,19.7-16.8l30.6-48.4
		c2.5,0.5,6-0.4,7.6-3c1.5-2.4,1.5-5.3,0.1-7.5L738.1,0l-3.3,0l-64.7,63.3c-0.2-0.1-0.3-0.2-0.5-0.3c-3.3-2.1-7.7-1.2-9.8,2.1
		c-1.7,2.6-1.1,6,0.3,8.1l-30.6,48.4l0,0.2c-0.1,0.1-6.5,11.9-16.8,14.6c-4.9,1.3-10,0.2-15.1-3.1c-1.4-0.9-2.6-1.8-3.7-2.8
		 M667.8,70.2c-0.7,1.1-2.2,1.4-3.3,0.7c-1.1-0.7-1.4-2.2-0.7-3.3c0.7-1.1,2.2-1.4,3.3-0.7C668.2,67.7,668.5,69.1,667.8,70.2z"/>
	<path fill="#3E3739" d="M101.3,180.6c1.2,4.4,1.3,8,1.4,8h0.2c0,0,0.3-3.7,1.3-8l12.4-52.2h14.1l-19.5,75.5H95.4l-11.6-44.7
		c-1.3-4.9-1.9-9.9-1.9-9.9h-0.2c0,0-0.6,5-1.9,9.9l-11.6,44.7H52.4l-18.9-75.5h14.1l11.9,52.2c1,4.3,1.3,8,1.3,8H61
		c0.1,0,0.2-3.6,1.4-8L76,128.4h11.9L101.3,180.6z"/>
	<path fill="#3E3739" d="M162.7,148.4c15.6,0,24,11.4,24,25.7c0,1.6-0.3,5.2-0.3,5.2h-37.4c0.9,9.5,8.2,14.4,16.3,14.4
		c8.7,0,15.6-6,15.6-6l5.2,9.7c0,0-8.3,7.8-21.8,7.8c-18,0-29.1-13-29.1-28.4C135.1,160.1,146.5,148.4,162.7,148.4z M173.1,170.1
		c-0.2-7.3-4.8-11.3-10.7-11.3c-6.9,0-11.7,4.3-13,11.3H173.1z"/>
	<path fill="#3E3739" d="M197.9,128.4h13.5v23.3c0,2.7-0.2,4.6-0.2,4.6h0.2c0,0,4.8-7.9,16.3-7.9c14.7,0,24,11.6,24,28.4
		c0,17.2-10.5,28.4-24.9,28.4c-11.3,0-16.2-8.1-16.2-8.1h-0.2c0,0,0.2,1.6,0.2,3.7v3.1h-12.8V128.4z M224.4,193.8
		c7.4,0,13.6-6.1,13.6-16.8c0-10.3-5.5-17-13.5-17c-7,0-13.6,5.1-13.6,17.1C210.9,185.5,215.4,193.8,224.4,193.8z"/>
	<path fill="#3E3739" d="M264.4,187.8c0,0,6,6,14.8,6c3.8,0,7.1-1.7,7.1-4.9c0-8.1-26.4-7-26.4-24.5c0-10.1,9-16,20.7-16
		c12.2,0,18.2,6.2,18.2,6.2l-5,10c0,0-5-4.7-13.3-4.7c-3.5,0-6.9,1.5-6.9,4.9c0,7.7,26.4,6.7,26.4,24.1c0,9-7.9,16.3-20.7,16.3
		c-13.5,0-21.1-8-21.1-8L264.4,187.8z"/>
	<path fill="#3E3739" d="M310.9,128.4h13.4v12h-13.4V128.4z M310.9,149.7h13.5v54.2h-13.5V149.7z"/>
	<path fill="#3E3739" d="M341.6,161.3h-7v-10.7h7.3v-15.6h13.2v15.6h12.3v10.7h-12.3v21.1c0,8.9,7,10.2,10.7,10.2
		c1.5,0,2.4-0.2,2.4-0.2v11.8c0,0-1.6,0.3-4.1,0.3c-7.6,0-22.5-2.2-22.5-20.4V161.3z"/>
	<path fill="#3E3739" d="M403.1,148.4c15.6,0,24,11.4,24,25.7c0,1.6-0.3,5.2-0.3,5.2h-37.4c0.9,9.5,8.2,14.4,16.3,14.4
		c8.7,0,15.6-6,15.6-6l5.2,9.7c0,0-8.3,7.8-21.8,7.8c-18,0-29.1-13-29.1-28.4C375.6,160.1,387,148.4,403.1,148.4z M413.5,170.1
		c-0.2-7.3-4.8-11.3-10.7-11.3c-6.9,0-11.7,4.3-13,11.3H413.5z"/>
	<path fill="#3E3739" d="M439.9,187.8c0,0,6,6,14.8,6c3.8,0,7.1-1.7,7.1-4.9c0-8.1-26.4-7-26.4-24.5c0-10.1,9-16,20.7-16
		c12.2,0,18.2,6.2,18.2,6.2l-5,10c0,0-5-4.7-13.3-4.7c-3.5,0-6.9,1.5-6.9,4.9c0,7.7,26.4,6.7,26.4,24.1c0,9-7.9,16.3-20.7,16.3
		c-13.5,0-21.1-8-21.1-8L439.9,187.8z"/>
	<path fill="#3E3739" d="M510.5,192.1h16.4v-41.9c0-2.6,0.1-5.1,0.1-5.1h-0.2c0,0-0.9,1.8-3.3,4.3l-6.1,5.7l-8.1-8.5l18.9-18.2h12
		v63.7h16.4v11.8h-46.2V192.1z"/>
	<path fill="#3E3739" d="M567,157.2c1.9-21.6,10.1-38.2,30.7-36.3c20.6,1.8,25.8,19.6,23.9,41.2c-1.9,21.6-10.3,38.4-30.8,36.5
		C570.2,196.8,565.1,178.9,567,157.2z M607.5,160.9c1.3-14.6-0.6-26.4-10.9-27.3c-10.3-0.9-14.3,10.4-15.6,25
		c-1.3,14.8,0.6,26.7,10.9,27.7C602.2,187.1,606.2,175.7,607.5,160.9z"/>
	<path fill="#3E3739" d="M631.9,192.1h16.4v-41.9c0-2.6,0.1-5.1,0.1-5.1h-0.2c0,0-0.9,1.8-3.3,4.3l-6.1,5.7l-8.1-8.5l18.9-18.2h12
		v63.7H678v11.8h-46.2V192.1z"/>
	<path fill="#2480A9" d="M597,133.7c-3.6-3.2-9-10.2-9.6-14.4c-0.6-4.2,0.3-8.5,1.7-12.1c0.3,3.2,1.4,6.4,4,9.2l3.4-3.2
		c-5.5-5.9-1.2-16.7-1.2-16.8l5.8-14L591.4,94c-0.4,0.5-10.6,12.8-8.6,26.1c0.8,5.5,5.2,11.9,9.8,15.9"/>
</g>
</svg>
